DINAH.ufo
<glyph name="exclam" format="1">
  <advance width="243"/>
  <unicode hex="0021"/>
  <outline>
    <contour>
      <point x="84" y="204" type="line"/>
      <point x="86" y="217"/>
      <point x="89" y="287"/>
      <point x="92" y="367"/>
      <point x="94" y="442"/>
      <point x="94" y="460" type="qcurve"/>
      <point x="94" y="491"/>
      <point x="83" y="553"/>
      <point x="75" y="567" type="qcurve"/>
      <point x="129" y="649" type="line"/>
      <point x="133" y="656"/>
      <point x="139" y="656" type="qcurve"/>
      <point x="146" y="656"/>
      <point x="156" y="620"/>
      <point x="163" y="560"/>
      <point x="166" y="480"/>
      <point x="166" y="437" type="qcurve"/>
      <point x="166" y="399"/>
      <point x="163" y="320"/>
      <point x="159" y="247"/>
      <point x="152" y="183"/>
      <point x="148" y="161" type="qcurve"/>
    </contour>
    <contour>
      <point x="125" y="116" type="qcurve"/>
      <point x="140" y="116"/>
      <point x="160" y="104"/>
      <point x="172" y="87"/>
      <point x="176" y="66"/>
      <point x="176" y="57" type="qcurve"/>
      <point x="176" y="34"/>
      <point x="145" y="-2"/>
      <point x="121" y="-2" type="qcurve"/>
      <point x="96" y="-2"/>
      <point x="66" y="34"/>
      <point x="66" y="57" type="qcurve"/>
      <point x="66" y="68"/>
      <point x="68" y="73" type="qcurve" name="hr01"/>
      <point x="73" y="93"/>
      <point x="107" y="116"/>
    </contour>
  </outline>
</glyph>
<glyph name="quotedbl" format="1">
  <advance width="229"/>
  <unicode hex="0022"/>
  <outline>
    <contour>
      <point x="80" y="654" type="line"/>
      <point x="83" y="597"/>
      <point x="89" y="507"/>
      <point x="89" y="476" type="qcurve"/>
      <point x="89" y="450"/>
      <point x="83" y="422"/>
      <point x="77" y="422" type="qcurve"/>
      <point x="26" y="462" type="line"/>
      <point x="29" y="467"/>
      <point x="30" y="493"/>
      <point x="30" y="508" type="qcurve"/>
      <point x="30" y="545" type="line"/>
      <point x="29" y="556"/>
      <point x="28" y="588"/>
      <point x="26" y="619"/>
      <point x="24" y="647"/>
      <point x="23" y="654" type="qcurve"/>
    </contour>
    <contour>
      <point x="186" y="654" type="line"/>
      <point x="190" y="597"/>
      <point x="195" y="507"/>
      <point x="195" y="476" type="qcurve"/>
      <point x="195" y="450"/>
      <point x="190" y="422"/>
      <point x="184" y="422" type="qcurve"/>
      <point x="133" y="462" type="line"/>
      <point x="135" y="467"/>
      <point x="137" y="493"/>
      <point x="137" y="508" type="qcurve"/>
      <point x="137" y="519"/>
      <point x="137" y="538"/>
      <point x="136" y="545" type="qcurve"/>
      <point x="135" y="556"/>
      <point x="134" y="588"/>
      <point x="133" y="619"/>
      <point x="131" y="647"/>
      <point x="130" y="654" type="qcurve" name="hr01"/>
    </contour>
  </outline>
</glyph>
<glyph name="numbersign" format="1">
  <advance width="710"/>
  <unicode hex="0023"/>
  <outline>
    <contour>
      <point x="71" y="212" type="line"/>
      <point x="106" y="212"/>
      <point x="138" y="213"/>
      <point x="152" y="213" type="qcurve"/>
      <point x="184" y="213" type="line"/>
      <point x="221" y="362" type="line"/>
      <point x="178" y="361"/>
      <point x="115" y="358"/>
      <point x="106" y="358" type="qcurve"/>
      <point x="124" y="429" type="line"/>
      <point x="238" y="429" type="line"/>
      <point x="242" y="451"/>
      <point x="246" y="462" type="qcurve"/>
      <point x="252" y="487"/>
      <point x="262" y="537"/>
      <point x="262" y="554" type="qcurve"/>
      <point x="262" y="564"/>
      <point x="261" y="567" type="qcurve"/>
      <point x="325" y="648" type="line"/>
      <point x="339" y="647"/>
      <point x="339" y="613" type="qcurve"/>
      <point x="339" y="584"/>
      <point x="322" y="489"/>
      <point x="308" y="430" type="qcurve" name="hr01"/>
      <point x="459" y="430" type="line"/>
      <point x="467" y="462" type="line" name="hr02"/>
      <point x="474" y="487"/>
      <point x="484" y="537"/>
      <point x="484" y="554" type="qcurve"/>
      <point x="484" y="561"/>
      <point x="482" y="567" type="qcurve"/>
      <point x="546" y="648" type="line"/>
      <point x="560" y="647"/>
      <point x="560" y="613" type="qcurve"/>
      <point x="560" y="584"/>
      <point x="543" y="489"/>
      <point x="530" y="430" type="qcurve"/>
      <point x="596" y="428"/>
      <point x="657" y="416"/>
      <point x="657" y="400" type="qcurve"/>
      <point x="564" y="361" type="line"/>
      <point x="559" y="363"/>
      <point x="557" y="366" type="qcurve"/>
      <point x="552" y="370"/>
      <point x="540" y="372"/>
      <point x="534" y="372" type="qcurve"/>
      <point x="529" y="372"/>
      <point x="521" y="371"/>
      <point x="517" y="371" type="qcurve"/>
      <point x="480" y="214" type="line"/>
      <point x="546" y="212"/>
      <point x="608" y="201"/>
      <point x="608" y="184" type="qcurve"/>
      <point x="515" y="145" type="line"/>
      <point x="508" y="150" type="line"/>
      <point x="507" y="150"/>
      <point x="494" y="154"/>
      <point x="489" y="154" type="qcurve"/>
      <point x="467" y="154" type="line"/>
      <point x="462" y="141" type="line"/>
      <point x="453" y="104"/>
      <point x="438" y="31"/>
      <point x="430" y="0" type="qcurve"/>
      <point x="348" y="0" type="line"/>
      <point x="352" y="11"/>
      <point x="375" y="96"/>
      <point x="389" y="153" type="qcurve"/>
      <point x="242" y="153" type="line"/>
      <point x="241" y="148"/>
      <point x="240" y="143"/>
      <point x="240" y="141" type="qcurve" name="hr03"/>
      <point x="209" y="0" type="line"/>
      <point x="127" y="0" type="line"/>
      <point x="131" y="10"/>
      <point x="150" y="85"/>
      <point x="164" y="136" type="qcurve"/>
      <point x="166" y="146" type="line"/>
      <point x="125" y="144"/>
      <point x="63" y="142"/>
      <point x="53" y="140" type="qcurve"/>
    </contour>
    <contour>
      <point x="258" y="215" type="qcurve"/>
      <point x="406" y="215" type="line"/>
      <point x="444" y="369" type="line"/>
      <point x="412" y="367"/>
      <point x="334" y="367"/>
      <point x="294" y="365" type="qcurve"/>
      <point x="266" y="248" type="line"/>
      <point x="264" y="239"/>
      <point x="261" y="223"/>
    </contour>
  </outline>
</glyph>
<glyph name="dollar" format="1">
  <advance width="609"/>
  <unicode hex="0024"/>
  <outline>
    <contour>
      <point x="431" y="477" type="line"/>
      <point x="430" y="500"/>
      <point x="413" y="535"/>
      <point x="386" y="560"/>
      <point x="352" y="577"/>
      <point x="333" y="582" type="qcurve"/>
      <point x="335" y="537"/>
      <point x="337" y="428"/>
      <point x="338" y="380" type="qcurve"/>
      <point x="368" y="370"/>
      <point x="427" y="346"/>
      <point x="473" y="310"/>
      <point x="502" y="258"/>
      <point x="502" y="220" type="qcurve"/>
      <point x="502" y="196"/>
      <point x="494" y="164" type="qcurve"/>
      <point x="490" y="147"/>
      <point x="459" y="107"/>
      <point x="416" y="68"/>
      <point x="364" y="32"/>
      <point x="340" y="19" type="qcurve"/>
      <point x="340" y="-89" type="line"/>
      <point x="276" y="-84" type="line"/>
      <point x="276" y="-5" type="line"/>
      <point x="272" y="-4" type="line"/>
      <point x="247" y="-4"/>
      <point x="207" y="-1"/>
      <point x="170" y="8"/>
      <point x="134" y="22"/>
      <point x="112" y="33" type="qcurve"/>
      <point x="112" y="74"/>
      <point x="91" y="154"/>
      <point x="91" y="194" type="qcurve"/>
      <point x="144" y="216" type="line"/>
      <point x="144" y="207" type="line"/>
      <point x="144" y="176"/>
      <point x="166" y="127"/>
      <point x="203" y="92"/>
      <point x="251" y="69"/>
      <point x="278" y="65" type="qcurve"/>
      <point x="278" y="304" type="line"/>
      <point x="261" y="310" type="line"/>
      <point x="233" y="320"/>
      <point x="178" y="344"/>
      <point x="135" y="380"/>
      <point x="107" y="435"/>
      <point x="106" y="476" type="qcurve"/>
      <point x="108" y="502" type="line"/>
      <point x="114" y="523"/>
      <point x="150" y="569"/>
      <point x="198" y="611"/>
      <point x="251" y="644"/>
      <point x="273" y="652" type="qcurve"/>
      <point x="272" y="660"/>
      <point x="270" y="682"/>
      <point x="268" y="702"/>
      <point x="267" y="717"/>
      <point x="266" y="720" type="qcurve"/>
      <point x="318" y="743" type="line"/>
      <point x="320" y="743"/>
      <point x="323" y="727"/>
      <point x="326" y="703"/>
      <point x="329" y="676"/>
      <point x="331" y="664" type="qcurve"/>
      <point x="331" y="656" type="line" name="hr01"/>
      <point x="356" y="653"/>
      <point x="400" y="642"/>
      <point x="433" y="630"/>
      <point x="451" y="619"/>
      <point x="451" y="617" type="qcurve"/>
      <point x="455" y="603"/>
      <point x="466" y="567"/>
      <point x="476" y="529"/>
      <point x="485" y="493"/>
      <point x="487" y="479" type="qcurve"/>
    </contour>
    <contour>
      <point x="279" y="538" type="line"/>
      <point x="279" y="542"/>
      <point x="278" y="572"/>
      <point x="277" y="590" type="qcurve"/>
      <point x="258" y="590"/>
      <point x="215" y="571"/>
      <point x="202" y="563" type="qcurve"/>
      <point x="192" y="542"/>
      <point x="183" y="524"/>
      <point x="182" y="510" type="qcurve"/>
      <point x="182" y="507"/>
      <point x="181" y="502"/>
      <point x="181" y="499" type="qcurve"/>
      <point x="181" y="457"/>
      <point x="238" y="413"/>
      <point x="279" y="399" type="qcurve"/>
    </contour>
    <contour>
      <point x="340" y="66" type="line"/>
      <point x="354" y="71"/>
      <point x="379" y="84"/>
      <point x="390" y="89" type="qcurve"/>
      <point x="399" y="104"/>
      <point x="404" y="125"/>
      <point x="406" y="139" type="qcurve"/>
      <point x="407" y="144"/>
      <point x="407" y="155"/>
      <point x="407" y="160" type="qcurve"/>
      <point x="407" y="206"/>
      <point x="369" y="259"/>
      <point x="340" y="276" type="qcurve"/>
    </contour>
  </outline>
</glyph>
<glyph name="percent" format="1">
  <advance width="683"/>
  <unicode hex="0025"/>
  <outline>
    <contour>
      <point x="144" y="353" type="qcurve"/>
      <point x="99" y="353"/>
      <point x="48" y="381"/>
      <point x="23" y="427"/>
      <point x="16" y="486"/>
      <point x="16" y="516" type="qcurve"/>
      <point x="16" y="530"/>
      <point x="52" y="578"/>
      <point x="101" y="624"/>
      <point x="154" y="657"/>
      <point x="172" y="657" type="qcurve"/>
      <point x="209" y="657"/>
      <point x="259" y="637"/>
      <point x="289" y="602"/>
      <point x="302" y="557"/>
      <point x="302" y="532" type="qcurve"/>
      <point x="302" y="526"/>
      <point x="300" y="511"/>
      <point x="298" y="494" type="qcurve"/>
      <point x="298" y="479"/>
      <point x="263" y="432"/>
      <point x="213" y="386"/>
      <point x="161" y="353"/>
    </contour>
    <contour>
      <point x="469" y="-5" type="qcurve"/>
      <point x="424" y="-5"/>
      <point x="373" y="23"/>
      <point x="347" y="70"/>
      <point x="341" y="128"/>
      <point x="341" y="158" type="qcurve"/>
      <point x="341" y="173"/>
      <point x="377" y="220"/>
      <point x="426" y="266"/>
      <point x="479" y="299"/>
      <point x="497" y="299" type="qcurve"/>
      <point x="534" y="299"/>
      <point x="584" y="279"/>
      <point x="614" y="245"/>
      <point x="626" y="200"/>
      <point x="626" y="175" type="qcurve"/>
      <point x="626" y="168"/>
      <point x="625" y="153"/>
      <point x="623" y="136" type="qcurve"/>
      <point x="623" y="122"/>
      <point x="588" y="74"/>
      <point x="538" y="28"/>
      <point x="486" y="-5"/>
    </contour>
    <contour>
      <point x="61" y="-6" type="line"/>
      <point x="67" y="1"/>
      <point x="114" y="76"/>
      <point x="179" y="180"/>
      <point x="253" y="300"/>
      <point x="319" y="407"/>
      <point x="366" y="485"/>
      <point x="373" y="496" type="qcurve"/>
      <point x="387" y="518"/>
      <point x="412" y="563"/>
      <point x="417" y="578" type="qcurve"/>
      <point x="420" y="587"/>
      <point x="420" y="591" type="qcurve"/>
      <point x="506" y="648" type="line"/>
      <point x="513" y="644"/>
      <point x="513" y="634" type="qcurve"/>
      <point x="513" y="629"/>
      <point x="510" y="618"/>
      <point x="508" y="610" type="qcurve"/>
      <point x="497" y="576"/>
      <point x="433" y="463"/>
      <point x="392" y="394" type="qcurve"/>
      <point x="326" y="285" type="line"/>
      <point x="312" y="261"/>
      <point x="282" y="216"/>
      <point x="268" y="193" type="qcurve"/>
      <point x="151" y="-2" type="line"/>
    </contour>
    <contour>
      <point x="550" y="69" type="qcurve"/>
      <point x="560" y="84"/>
      <point x="567" y="118"/>
      <point x="567" y="135" type="qcurve"/>
      <point x="567" y="156"/>
      <point x="555" y="197"/>
      <point x="533" y="228"/>
      <point x="500" y="247"/>
      <point x="479" y="247" type="qcurve"/>
      <point x="454" y="247"/>
      <point x="427" y="233" type="qcurve" name="hr01"/>
      <point x="403" y="201"/>
      <point x="403" y="166" type="qcurve" name="hr02"/>
      <point x="403" y="145"/>
      <point x="419" y="106"/>
      <point x="447" y="76"/>
      <point x="484" y="58"/>
      <point x="505" y="58" type="qcurve"/>
      <point x="529" y="58"/>
    </contour>
    <contour>
      <point x="225" y="426" type="qcurve"/>
      <point x="235" y="441"/>
      <point x="243" y="476"/>
      <point x="243" y="493" type="qcurve"/>
      <point x="243" y="514"/>
      <point x="231" y="554"/>
      <point x="208" y="585"/>
      <point x="175" y="604"/>
      <point x="154" y="604" type="qcurve"/>
      <point x="129" y="604"/>
      <point x="102" y="590" type="qcurve"/>
      <point x="90" y="575"/>
      <point x="79" y="541"/>
      <point x="79" y="524" type="qcurve"/>
      <point x="79" y="503"/>
      <point x="95" y="464"/>
      <point x="122" y="434"/>
      <point x="159" y="416"/>
      <point x="180" y="416" type="qcurve"/>
      <point x="204" y="416"/>
    </contour>
  </outline>
</glyph>
<glyph name="ampersand" format="1">
  <advance width="604"/>
  <unicode hex="0026"/>
  <outline>
    <contour>
      <point x="506" y="155" type="line"/>
      <point x="515" y="143"/>
      <point x="543" y="106"/>
      <point x="570" y="65"/>
      <point x="590" y="25"/>
      <point x="590" y="11" type="qcurve"/>
      <point x="590" y="-1"/>
      <point x="581" y="-7" type="qcurve"/>
      <point x="502" y="-8" type="line"/>
      <point x="501" y="0"/>
      <point x="486" y="33"/>
      <point x="477" y="50" type="qcurve"/>
      <point x="466" y="69"/>
      <point x="453" y="90" type="qcurve"/>
      <point x="343" y="-10"/>
      <point x="248" y="-14" type="qcurve"/>
      <point x="165" y="-16"/>
      <point x="76" y="82"/>
      <point x="68" y="160" type="qcurve"/>
      <point x="68" y="311"/>
      <point x="247" y="372" type="qcurve"/>
      <point x="241" y="383"/>
      <point x="225" y="422"/>
      <point x="211" y="469"/>
      <point x="201" y="521"/>
      <point x="201" y="545" type="qcurve"/>
      <point x="201" y="565"/>
      <point x="213" y="602"/>
      <point x="243" y="632"/>
      <point x="292" y="653"/>
      <point x="328" y="657" type="qcurve"/>
      <point x="333" y="657"/>
      <point x="340" y="658"/>
      <point x="344" y="658" type="qcurve"/>
      <point x="369" y="658"/>
      <point x="409" y="639"/>
      <point x="436" y="608"/>
      <point x="451" y="566"/>
      <point x="451" y="542" type="qcurve"/>
      <point x="451" y="520"/>
      <point x="439" y="472"/>
      <point x="413" y="426"/>
      <point x="373" y="384"/>
      <point x="345" y="369" type="qcurve"/>
      <point x="477" y="197" type="line"/>
      <point x="485" y="220"/>
      <point x="492" y="246" type="qcurve"/>
      <point x="497" y="268"/>
      <point x="507" y="323"/>
      <point x="507" y="352" type="qcurve"/>
      <point x="507" y="374" type="line"/>
      <point x="507" y="375"/>
      <point x="528" y="379"/>
      <point x="541" y="382" type="qcurve"/>
      <point x="556" y="385"/>
      <point x="575" y="389" type="qcurve"/>
      <point x="577" y="386"/>
      <point x="577" y="381" type="qcurve"/>
      <point x="577" y="363"/>
      <point x="553" y="291"/>
      <point x="539" y="254" type="qcurve"/>
      <point x="522" y="211"/>
      <point x="502" y="162" type="qcurve"/>
    </contour>
    <contour>
      <point x="430" y="124" type="qcurve"/>
      <point x="373" y="196"/>
      <point x="309" y="276"/>
      <point x="278" y="317"/>
      <point x="268" y="330"/>
      <point x="264" y="336" type="qcurve"/>
      <point x="202" y="318"/>
      <point x="155" y="270"/>
      <point x="155" y="233" type="qcurve"/>
      <point x="155" y="190"/>
      <point x="192" y="131" type="qcurve" name="hr01"/>
      <point x="223" y="84"/>
      <point x="274" y="44"/>
      <point x="300" y="44" type="qcurve"/>
      <point x="315" y="44"/>
      <point x="348" y="57"/>
      <point x="364" y="68" type="qcurve"/>
      <point x="367" y="70"/>
      <point x="386" y="86"/>
      <point x="407" y="104"/>
      <point x="426" y="121"/>
    </contour>
    <contour>
      <point x="283" y="611" type="qcurve"/>
      <point x="277" y="600"/>
      <point x="272" y="571"/>
      <point x="272" y="554" type="qcurve"/>
      <point x="272" y="529"/>
      <point x="283" y="476"/>
      <point x="300" y="433"/>
      <point x="318" y="405"/>
      <point x="326" y="405" type="qcurve"/>
      <point x="331" y="405"/>
      <point x="334" y="407"/>
      <point x="336" y="410" type="qcurve"/>
      <point x="357" y="419"/>
      <point x="379" y="477"/>
      <point x="379" y="512" type="qcurve"/>
      <point x="379" y="532"/>
      <point x="371" y="571"/>
      <point x="355" y="601"/>
      <point x="331" y="620"/>
      <point x="315" y="620" type="qcurve"/>
      <point x="308" y="620"/>
      <point x="291" y="616"/>
    </contour>
  </outline>
</glyph>
<glyph name="quotesingle" format="1">
  <advance width="119"/>
  <unicode hex="0027"/>
  <outline>
    <contour>
      <point x="80" y="654" type="line" name="hr00"/>
      <point x="83" y="597"/>
      <point x="89" y="507"/>
      <point x="89" y="476" type="qcurve"/>
      <point x="89" y="450"/>
      <point x="83" y="422"/>
      <point x="77" y="422" type="qcurve"/>
      <point x="26" y="462" type="line"/>
      <point x="29" y="467"/>
      <point x="30" y="493"/>
      <point x="30" y="508" type="qcurve"/>
      <point x="30" y="545" type="line"/>
      <point x="29" y="556"/>
      <point x="28" y="588"/>
      <point x="26" y="619"/>
      <point x="24" y="647"/>
      <point x="23" y="654" type="qcurve"/>
    </contour>
  </outline>
</glyph>
<glyph name="parenleft" format="1">
  <advance width="250"/>
  <unicode hex="0028"/>
  <outline>
    <contour>
      <point x="235" y="644" type="line" name="hr00"/>
      <point x="197" y="588"/>
      <point x="149" y="489"/>
      <point x="121" y="388"/>
      <point x="110" y="277"/>
      <point x="108" y="210" type="qcurve"/>
      <point x="108" y="202"/>
      <point x="107" y="186"/>
      <point x="107" y="178" type="qcurve"/>
      <point x="107" y="88"/>
      <point x="137" y="-42"/>
      <point x="182" y="-141"/>
      <point x="236" y="-218"/>
      <point x="259" y="-254" type="qcurve"/>
      <point x="229" y="-254" type="line"/>
      <point x="172" y="-206"/>
      <point x="126" y="-139" type="qcurve"/>
      <point x="106" y="-111"/>
      <point x="69" y="-40"/>
      <point x="39" y="44"/>
      <point x="21" y="142"/>
      <point x="20" y="197" type="qcurve"/>
      <point x="20" y="201" type="line"/>
      <point x="20" y="256"/>
      <point x="36" y="354"/>
      <point x="63" y="440"/>
      <point x="97" y="514"/>
      <point x="115" y="544" type="qcurve"/>
      <point x="157" y="614"/>
      <point x="211" y="667" type="qcurve"/>
    </contour>
  </outline>
</glyph>
<glyph name="parenright" format="1">
  <advance width="236"/>
  <unicode hex="0029"/>
  <outline>
    <contour>
      <point x="25" y="667" type="line" name="hr00"/>
      <point x="78" y="614"/>
      <point x="120" y="544" type="qcurve"/>
      <point x="138" y="514"/>
      <point x="172" y="440"/>
      <point x="199" y="354"/>
      <point x="216" y="256"/>
      <point x="216" y="201" type="qcurve"/>
      <point x="216" y="197" type="line"/>
      <point x="215" y="142"/>
      <point x="197" y="44"/>
      <point x="167" y="-40"/>
      <point x="129" y="-111"/>
      <point x="110" y="-139" type="qcurve"/>
      <point x="64" y="-206"/>
      <point x="7" y="-254" type="qcurve"/>
      <point x="-23" y="-254" type="line"/>
      <point x="0" y="-218"/>
      <point x="54" y="-141"/>
      <point x="99" y="-42"/>
      <point x="129" y="88"/>
      <point x="129" y="178" type="qcurve"/>
      <point x="129" y="186"/>
      <point x="128" y="202"/>
      <point x="128" y="210" type="qcurve"/>
      <point x="126" y="277"/>
      <point x="115" y="388"/>
      <point x="87" y="489"/>
      <point x="40" y="588"/>
      <point x="2" y="644" type="qcurve"/>
    </contour>
  </outline>
</glyph>
<glyph name="asterisk" format="1">
  <advance width="328"/>
  <unicode hex="002A"/>
  <outline>
    <contour>
      <point x="204" y="672" type="line" name="hr00"/>
      <point x="193" y="652"/>
      <point x="177" y="593"/>
      <point x="177" y="548" type="qcurve"/>
      <point x="185" y="562" type="line"/>
      <point x="194" y="574"/>
      <point x="225" y="601"/>
      <point x="258" y="622"/>
      <point x="286" y="637"/>
      <point x="293" y="637" type="qcurve"/>
      <point x="293" y="574" type="line"/>
      <point x="266" y="569"/>
      <point x="215" y="553"/>
      <point x="188" y="530" type="qcurve"/>
      <point x="224" y="516"/>
      <point x="268" y="491"/>
      <point x="294" y="469"/>
      <point x="304" y="451"/>
      <point x="307" y="444" type="qcurve"/>
      <point x="246" y="425" type="line"/>
      <point x="234" y="448"/>
      <point x="207" y="487"/>
      <point x="179" y="506" type="qcurve"/>
      <point x="189" y="459"/>
      <point x="180" y="396"/>
      <point x="180" y="378" type="qcurve"/>
      <point x="124" y="388" type="line"/>
      <point x="130" y="402"/>
      <point x="133" y="423"/>
      <point x="136" y="447"/>
      <point x="143" y="482"/>
      <point x="152" y="510" type="qcurve"/>
      <point x="129" y="481"/>
      <point x="93" y="452"/>
      <point x="63" y="440"/>
      <point x="39" y="440"/>
      <point x="29" y="440" type="qcurve"/>
      <point x="34" y="503" type="line"/>
      <point x="57" y="505"/>
      <point x="110" y="513"/>
      <point x="136" y="530" type="qcurve"/>
      <point x="103" y="543"/>
      <point x="61" y="568"/>
      <point x="37" y="590"/>
      <point x="27" y="608"/>
      <point x="25" y="615" type="qcurve"/>
      <point x="85" y="633" type="line"/>
      <point x="96" y="612"/>
      <point x="121" y="570"/>
      <point x="150" y="553" type="qcurve"/>
      <point x="145" y="576"/>
      <point x="143" y="615"/>
      <point x="145" y="647"/>
      <point x="148" y="671"/>
      <point x="148" y="680" type="qcurve"/>
    </contour>
  </outline>
</glyph>
<glyph name="plus" format="1">
  <advance width="529"/>
  <unicode hex="002B"/>
  <outline>
    <contour>
      <point x="79" y="260" type="line" name="hr00"/>
      <point x="225" y="260" type="line"/>
      <point x="225" y="281"/>
      <point x="226" y="315"/>
      <point x="226" y="324" type="qcurve"/>
      <point x="226" y="339"/>
      <point x="225" y="359"/>
      <point x="223" y="374"/>
      <point x="220" y="388"/>
      <point x="219" y="398" type="qcurve"/>
      <point x="259" y="462" type="line"/>
      <point x="263" y="471"/>
      <point x="268" y="471" type="qcurve"/>
      <point x="282" y="471"/>
      <point x="289" y="383"/>
      <point x="289" y="294" type="qcurve"/>
      <point x="289" y="262" type="line"/>
      <point x="467" y="262" type="line"/>
      <point x="433" y="199" type="line"/>
      <point x="422" y="199" type="line"/>
      <point x="411" y="199"/>
      <point x="395" y="202"/>
      <point x="381" y="202" type="qcurve"/>
      <point x="369" y="201"/>
      <point x="319" y="201"/>
      <point x="287" y="200" type="qcurve"/>
      <point x="285" y="147"/>
      <point x="277" y="56"/>
      <point x="271" y="25" type="qcurve"/>
      <point x="212" y="25" type="line"/>
      <point x="213" y="33"/>
      <point x="215" y="69"/>
      <point x="218" y="117"/>
      <point x="221" y="172"/>
      <point x="222" y="199" type="qcurve"/>
      <point x="195" y="199"/>
      <point x="144" y="198"/>
      <point x="100" y="196"/>
      <point x="68" y="195"/>
      <point x="61" y="194" type="qcurve"/>
    </contour>
  </outline>
</glyph>
<glyph name="comma" format="1">
  <advance width="203"/>
  <unicode hex="002C"/>
  <outline>
    <contour>
      <point x="90" y="-125" type="qcurve" name="hr00"/>
      <point x="85" y="-123"/>
      <point x="53" y="-107"/>
      <point x="42" y="-98" type="qcurve"/>
      <point x="56" y="-89"/>
      <point x="87" y="-32"/>
      <point x="98" y="0" type="qcurve"/>
      <point x="90" y="-2"/>
      <point x="87" y="-2" type="qcurve"/>
      <point x="61" y="-2"/>
      <point x="32" y="34"/>
      <point x="32" y="57" type="qcurve"/>
      <point x="32" y="68"/>
      <point x="34" y="73" type="qcurve"/>
      <point x="38" y="92"/>
      <point x="67" y="114"/>
      <point x="84" y="116" type="qcurve"/>
      <point x="90" y="116" type="line"/>
      <point x="110" y="116"/>
      <point x="133" y="97"/>
      <point x="138" y="83" type="qcurve"/>
      <point x="144" y="75"/>
      <point x="153" y="57"/>
      <point x="153" y="45" type="qcurve"/>
      <point x="153" y="26"/>
      <point x="134" y="-33"/>
      <point x="111" y="-89"/>
      <point x="91" y="-127"/>
    </contour>
  </outline>
</glyph>
<glyph name="hyphen" format="1">
  <advance width="353"/>
  <unicode hex="002D"/>
  <outline>
    <contour>
      <point x="79" y="235" type="line"/>
      <point x="157" y="235" type="line" name="hr01"/>
      <point x="184" y="235"/>
      <point x="239" y="236"/>
      <point x="266" y="237" type="qcurve"/>
      <point x="292" y="237" type="line"/>
      <point x="257" y="175" type="line"/>
      <point x="247" y="175" type="line"/>
      <point x="235" y="175"/>
      <point x="220" y="177"/>
      <point x="206" y="177" type="qcurve" name="hr02"/>
      <point x="168" y="176"/>
      <point x="90" y="173"/>
      <point x="61" y="170" type="qcurve"/>
    </contour>
  </outline>
</glyph>
<glyph name="period" format="1">
  <advance width="165"/>
  <unicode hex="002E"/>
  <outline>
    <contour>
      <point x="90" y="116" type="qcurve" name="hr00"/>
      <point x="105" y="116"/>
      <point x="125" y="104"/>
      <point x="137" y="87"/>
      <point x="142" y="66"/>
      <point x="142" y="57" type="qcurve"/>
      <point x="142" y="34"/>
      <point x="110" y="-2"/>
      <point x="87" y="-2" type="qcurve"/>
      <point x="61" y="-2"/>
      <point x="32" y="34"/>
      <point x="32" y="57" type="qcurve"/>
      <point x="32" y="68"/>
      <point x="34" y="73" type="qcurve"/>
      <point x="39" y="93"/>
      <point x="72" y="116"/>
    </contour>
  </outline>
</glyph>
<glyph name="slash" format="1">
  <advance width="431"/>
  <unicode hex="002F"/>
  <outline>
    <contour>
      <point x="61" y="-9" type="line" name="hr00"/>
      <point x="66" y="-2"/>
      <point x="102" y="65"/>
      <point x="152" y="161"/>
      <point x="210" y="274"/>
      <point x="265" y="380"/>
      <point x="309" y="468"/>
      <point x="321" y="490" type="qcurve"/>
      <point x="330" y="510" type="line"/>
      <point x="341" y="531"/>
      <point x="361" y="574"/>
      <point x="364" y="589" type="qcurve"/>
      <point x="366" y="593"/>
      <point x="366" y="600"/>
      <point x="366" y="602" type="qcurve"/>
      <point x="447" y="662" type="line"/>
      <point x="455" y="659"/>
      <point x="455" y="645" type="qcurve"/>
      <point x="455" y="637"/>
      <point x="452" y="625" type="qcurve"/>
      <point x="444" y="590"/>
      <point x="391" y="474"/>
      <point x="356" y="404" type="qcurve"/>
      <point x="299" y="292" type="line"/>
      <point x="287" y="267"/>
      <point x="261" y="220"/>
      <point x="249" y="197" type="qcurve"/>
      <point x="150" y="-2" type="line"/>
    </contour>
  </outline>
</glyph>
<glyph name="zero" format="1">
  <advance width="448"/>
  <unicode hex="0030"/>
  <outline>
    <contour>
      <point x="307" y="135" type="qcurve" name="hr00"/>
      <point x="318" y="169"/>
      <point x="328" y="250"/>
      <point x="328" y="292" type="qcurve"/>
      <point x="328" y="343"/>
      <point x="313" y="440"/>
      <point x="284" y="517"/>
      <point x="243" y="564"/>
      <point x="217" y="564" type="qcurve"/>
      <point x="186" y="564"/>
      <point x="151" y="530" type="qcurve"/>
      <point x="136" y="492"/>
      <point x="113" y="395"/>
      <point x="113" y="354" type="qcurve"/>
      <point x="113" y="302"/>
      <point x="133" y="208"/>
      <point x="169" y="136"/>
      <point x="216" y="94"/>
      <point x="243" y="94" type="qcurve"/>
      <point x="256" y="94"/>
      <point x="293" y="121"/>
    </contour>
    <contour>
      <point x="205" y="0" type="qcurve"/>
      <point x="149" y="0"/>
      <point x="85" y="60"/>
      <point x="53" y="158"/>
      <point x="45" y="282"/>
      <point x="45" y="346" type="qcurve"/>
      <point x="45" y="367"/>
      <point x="66" y="427"/>
      <point x="99" y="494"/>
      <point x="142" y="561"/>
      <point x="185" y="614"/>
      <point x="225" y="647"/>
      <point x="240" y="647" type="qcurve"/>
      <point x="287" y="647"/>
      <point x="349" y="603"/>
      <point x="386" y="530"/>
      <point x="401" y="433"/>
      <point x="401" y="380" type="qcurve"/>
      <point x="401" y="360"/>
      <point x="400" y="320"/>
      <point x="398" y="300" type="qcurve"/>
      <point x="398" y="279"/>
      <point x="377" y="219"/>
      <point x="344" y="152"/>
      <point x="302" y="86"/>
      <point x="259" y="33"/>
      <point x="219" y="0"/>
    </contour>
  </outline>
</glyph>
<glyph name="one" format="1">
  <advance width="189"/>
  <unicode hex="0031"/>
  <outline>
    <contour>
      <point x="86" y="0" type="line"/>
      <point x="91" y="57"/>
      <point x="96" y="243"/>
      <point x="96" y="330" type="curve" smooth="yes"/>
      <point x="96" y="398"/>
      <point x="96" y="490"/>
      <point x="81" y="519" type="curve"/>
      <point x="80" y="519"/>
      <point x="34" y="500"/>
      <point x="26" y="498" type="curve"/>
      <point x="21" y="517" type="line"/>
      <point x="51" y="569"/>
      <point x="129" y="649"/>
      <point x="145" y="646" type="curve"/>
      <point x="153" y="627" type="line"/>
      <point x="175" y="582"/>
      <point x="162" y="365"/>
      <point x="167" y="3" type="curve"/>
    </contour>
  </outline>
</glyph>
<glyph name="two" format="1">
  <advance width="439"/>
  <unicode hex="0032"/>
  <outline>
    <contour>
      <point x="195" y="649" type="line" smooth="yes"/>
      <point x="232" y="649"/>
      <point x="353" y="545"/>
      <point x="366" y="499" type="curve" smooth="yes"/>
      <point x="370" y="483"/>
      <point x="372" y="466"/>
      <point x="372" y="449" type="curve" smooth="yes"/>
      <point x="372" y="318"/>
      <point x="257" y="168"/>
      <point x="154" y="59" type="curve"/>
      <point x="158" y="59" type="line" smooth="yes"/>
      <point x="200" y="63"/>
      <point x="320" y="80"/>
      <point x="364" y="87" type="curve" smooth="yes"/>
      <point x="367" y="87"/>
      <point x="370" y="89"/>
      <point x="374" y="89" type="curve" smooth="yes"/>
      <point x="406" y="94" type="line"/>
      <point x="370" y="3" type="line"/>
      <point x="336" y="3"/>
      <point x="309" y="5"/>
      <point x="279" y="5" type="curve" smooth="yes"/>
      <point x="249" y="5"/>
      <point x="220" y="3"/>
      <point x="195" y="3" type="curve" smooth="yes"/>
      <point x="139" y="3" type="line" smooth="yes"/>
      <point x="81" y="3"/>
      <point x="47" y="7"/>
      <point x="47" y="27" type="curve"/>
      <point x="107" y="92" type="line"/>
      <point x="138" y="142"/>
      <point x="239" y="254"/>
      <point x="279" y="388" type="curve" smooth="yes"/>
      <point x="286" y="411"/>
      <point x="292" y="435"/>
      <point x="292" y="459" type="curve" smooth="yes"/>
      <point x="292" y="509"/>
      <point x="274" y="554"/>
      <point x="247" y="561" type="curve" smooth="yes"/>
      <point x="241" y="562"/>
      <point x="236" y="563"/>
      <point x="231" y="563" type="curve" smooth="yes"/>
      <point x="185" y="559"/>
      <point x="159" y="524"/>
      <point x="144" y="502" type="curve"/>
      <point x="142" y="499" type="line"/>
      <point x="127" y="506"/>
      <point x="101" y="537"/>
      <point x="96" y="548" type="curve"/>
      <point x="96" y="560"/>
      <point x="156" y="649"/>
      <point x="189" y="649" type="curve" smooth="yes"/>
    </contour>
  </outline>
</glyph>
<glyph name="three" format="1">
  <advance width="448"/>
  <unicode hex="0033"/>
  <outline>
    <contour>
      <point x="86" y="549" type="qcurve"/>
      <point x="86" y="553"/>
      <point x="104" y="581"/>
      <point x="131" y="614"/>
      <point x="163" y="644"/>
      <point x="178" y="649" type="qcurve"/>
      <point x="184" y="649" type="line"/>
      <point x="199" y="649"/>
      <point x="248" y="614"/>
      <point x="297" y="566"/>
      <point x="337" y="518"/>
      <point x="342" y="505" type="qcurve"/>
      <point x="349" y="489"/>
      <point x="355" y="453"/>
      <point x="355" y="433" type="qcurve"/>
      <point x="355" y="397"/>
      <point x="330" y="331"/>
      <point x="302" y="312" type="qcurve"/>
      <point x="349" y="279"/>
      <point x="409" y="207"/>
      <point x="409" y="168" type="qcurve"/>
      <point x="409" y="138"/>
      <point x="376" y="77"/>
      <point x="323" y="28"/>
      <point x="259" y="-3"/>
      <point x="199" y="-3"/>
      <point x="136" y="1"/>
      <point x="84" y="18"/>
      <point x="50" y="55"/>
      <point x="50" y="88" type="qcurve"/>
      <point x="50" y="96"/>
      <point x="52" y="114"/>
      <point x="55" y="125" type="qcurve"/>
      <point x="57" y="125"/>
      <point x="75" y="124"/>
      <point x="99" y="122"/>
      <point x="122" y="118"/>
      <point x="128" y="115" type="qcurve" name="hr01"/>
      <point x="128" y="102"/>
      <point x="132" y="75"/>
      <point x="144" y="53"/>
      <point x="163" y="39"/>
      <point x="178" y="39" type="qcurve"/>
      <point x="215" y="39"/>
      <point x="268" y="79"/>
      <point x="300" y="132"/>
      <point x="315" y="183"/>
      <point x="315" y="194" type="qcurve"/>
      <point x="315" y="238"/>
      <point x="282" y="282"/>
      <point x="257" y="296" type="qcurve"/>
      <point x="239" y="296"/>
      <point x="181" y="305"/>
      <point x="153" y="316" type="qcurve"/>
      <point x="161" y="343" type="line"/>
      <point x="176" y="336"/>
      <point x="192" y="336" type="qcurve"/>
      <point x="230" y="336"/>
      <point x="277" y="406"/>
      <point x="277" y="463" type="qcurve"/>
      <point x="277" y="500"/>
      <point x="264" y="532" type="qcurve" name="hr02"/>
      <point x="258" y="549"/>
      <point x="237" y="563"/>
      <point x="225" y="563" type="qcurve"/>
      <point x="197" y="563"/>
      <point x="145" y="523"/>
      <point x="133" y="499" type="qcurve"/>
      <point x="127" y="502"/>
      <point x="111" y="517"/>
      <point x="97" y="534"/>
      <point x="87" y="547"/>
    </contour>
  </outline>
</glyph>
<glyph name="four" format="1">
  <advance width="493"/>
  <unicode hex="0034"/>
  <outline>
    <contour>
      <point x="431" y="259" type="line"/>
      <point x="379" y="259" type="line"/>
      <point x="379" y="224"/>
      <point x="378" y="187"/>
      <point x="378" y="152" type="curve" smooth="yes"/>
      <point x="378" y="101"/>
      <point x="379" y="41"/>
      <point x="380" y="0" type="curve"/>
      <point x="298" y="0" type="line"/>
      <point x="302" y="26"/>
      <point x="307" y="180"/>
      <point x="309" y="259" type="curve"/>
      <point x="276" y="259" type="line" smooth="yes"/>
      <point x="240" y="258"/>
      <point x="205" y="258"/>
      <point x="173" y="258" type="curve" smooth="yes"/>
      <point x="94" y="258"/>
      <point x="34" y="260"/>
      <point x="34" y="270" type="curve"/>
      <point x="78" y="310" type="line" smooth="yes"/>
      <point x="122" y="351"/>
      <point x="216" y="490"/>
      <point x="235" y="545" type="curve"/>
      <point x="246" y="566"/>
      <point x="271" y="589"/>
      <point x="292" y="607" type="curve"/>
      <point x="292" y="608"/>
      <point x="291" y="609"/>
      <point x="291" y="610" type="curve"/>
      <point x="322" y="634" type="line" smooth="yes"/>
      <point x="323" y="635"/>
      <point x="325" y="636"/>
      <point x="325" y="636" type="curve"/>
      <point x="358" y="659" type="line"/>
      <point x="376" y="659"/>
      <point x="379" y="570"/>
      <point x="379" y="411" type="curve" smooth="yes"/>
      <point x="379" y="318" type="line"/>
      <point x="384" y="318" type="line" smooth="yes"/>
      <point x="423" y="321"/>
      <point x="453" y="323"/>
      <point x="459" y="325" type="curve"/>
    </contour>
    <contour>
      <point x="310" y="314" type="curve"/>
      <point x="309" y="356"/>
      <point x="305" y="471"/>
      <point x="298" y="555" type="curve"/>
      <point x="263" y="462"/>
      <point x="213" y="406"/>
      <point x="161" y="305" type="curve"/>
      <point x="191" y="306"/>
      <point x="251" y="309"/>
    </contour>
  </outline>
</glyph>
<glyph name="five" format="1">
  <advance width="448"/>
  <unicode hex="0035"/>
  <outline>
    <contour>
      <point x="394" y="562" type="line"/>
      <point x="327" y="562" type="line" name="hr01"/>
      <point x="292" y="562"/>
      <point x="224" y="561"/>
      <point x="195" y="561" type="qcurve"/>
      <point x="175" y="561"/>
      <point x="150" y="562"/>
      <point x="136" y="564" type="qcurve"/>
      <point x="137" y="547"/>
      <point x="137" y="521"/>
      <point x="137" y="510" type="qcurve"/>
      <point x="137" y="488"/>
      <point x="134" y="445"/>
      <point x="132" y="405" type="qcurve"/>
      <point x="180" y="403"/>
      <point x="269" y="361"/>
      <point x="336" y="297"/>
      <point x="376" y="220"/>
      <point x="376" y="184" type="qcurve"/>
      <point x="376" y="151"/>
      <point x="343" y="84"/>
      <point x="291" y="30"/>
      <point x="227" y="-3"/>
      <point x="196" y="-3" type="qcurve"/>
      <point x="167" y="-3"/>
      <point x="104" y="1"/>
      <point x="52" y="20"/>
      <point x="18" y="61"/>
      <point x="18" y="97" type="qcurve"/>
      <point x="18" y="106"/>
      <point x="20" y="125"/>
      <point x="23" y="137" type="qcurve"/>
      <point x="25" y="137"/>
      <point x="43" y="136"/>
      <point x="67" y="134"/>
      <point x="90" y="129"/>
      <point x="96" y="126" type="qcurve"/>
      <point x="96" y="112"/>
      <point x="100" y="82"/>
      <point x="111" y="58"/>
      <point x="130" y="43"/>
      <point x="145" y="43" type="qcurve"/>
      <point x="183" y="43"/>
      <point x="235" y="87"/>
      <point x="268" y="144"/>
      <point x="283" y="200"/>
      <point x="283" y="212" type="qcurve" name="hr02"/>
      <point x="283" y="248"/>
      <point x="251" y="303"/>
      <point x="201" y="340"/>
      <point x="139" y="360"/>
      <point x="109" y="360" type="qcurve"/>
      <point x="68" y="360" type="line"/>
      <point x="68" y="362"/>
      <point x="69" y="365"/>
      <point x="69" y="367" type="qcurve"/>
      <point x="76" y="417"/>
      <point x="86" y="509"/>
      <point x="86" y="551" type="qcurve"/>
      <point x="86" y="556"/>
      <point x="86" y="568"/>
      <point x="85" y="573" type="qcurve" name="hr03"/>
      <point x="78" y="578"/>
      <point x="78" y="582" type="qcurve"/>
      <point x="130" y="640" type="line"/>
      <point x="138" y="635"/>
      <point x="183" y="633"/>
      <point x="201" y="633" type="qcurve"/>
      <point x="209" y="633" type="line" name="hr04"/>
      <point x="226" y="633"/>
      <point x="294" y="637"/>
      <point x="363" y="643"/>
      <point x="420" y="648"/>
      <point x="427" y="649" type="qcurve"/>
    </contour>
  </outline>
</glyph>
<glyph name="six" format="1">
  <advance width="448"/>
  <unicode hex="0036"/>
  <outline>
    <contour>
      <point x="232" y="-6" type="qcurve" name="hr03"/>
      <point x="227" y="-6"/>
      <point x="218" y="-7"/>
      <point x="213" y="-7" type="qcurve"/>
      <point x="163" y="-7"/>
      <point x="101" y="28"/>
      <point x="65" y="84"/>
      <point x="49" y="155"/>
      <point x="44" y="192" type="qcurve"/>
      <point x="44" y="194"/>
      <point x="43" y="200"/>
      <point x="43" y="202" type="qcurve"/>
      <point x="43" y="221"/>
      <point x="48" y="302"/>
      <point x="61" y="400"/>
      <point x="85" y="505"/>
      <point x="124" y="592"/>
      <point x="179" y="649"/>
      <point x="217" y="652" type="qcurve"/>
      <point x="222" y="652" type="line"/>
      <point x="239" y="652"/>
      <point x="281" y="640"/>
      <point x="321" y="622"/>
      <point x="353" y="603"/>
      <point x="360" y="596" type="qcurve"/>
      <point x="351" y="574" type="line"/>
      <point x="336" y="583"/>
      <point x="300" y="589"/>
      <point x="282" y="589" type="qcurve"/>
      <point x="274" y="589"/>
      <point x="258" y="589"/>
      <point x="250" y="588" type="qcurve"/>
      <point x="223" y="586"/>
      <point x="183" y="556"/>
      <point x="154" y="495"/>
      <point x="135" y="400"/>
      <point x="128" y="333" type="qcurve"/>
      <point x="131" y="336" type="line" name="hr01"/>
      <point x="146" y="352"/>
      <point x="190" y="388"/>
      <point x="214" y="390" type="qcurve"/>
      <point x="219" y="391"/>
      <point x="230" y="391"/>
      <point x="235" y="391" type="qcurve"/>
      <point x="286" y="391"/>
      <point x="347" y="356"/>
      <point x="382" y="299"/>
      <point x="396" y="227"/>
      <point x="399" y="190" type="qcurve"/>
      <point x="399" y="169"/>
      <point x="362" y="104"/>
      <point x="310" y="42"/>
      <point x="253" y="-4"/>
    </contour>
    <contour>
      <point x="319" y="93" type="qcurve"/>
      <point x="323" y="104"/>
      <point x="326" y="130"/>
      <point x="326" y="144" type="qcurve"/>
      <point x="326" y="150"/>
      <point x="326" y="162"/>
      <point x="325" y="168" type="qcurve"/>
      <point x="322" y="196"/>
      <point x="304" y="249"/>
      <point x="274" y="291"/>
      <point x="232" y="316"/>
      <point x="205" y="316" type="qcurve"/>
      <point x="198" y="316" type="line"/>
      <point x="183" y="314"/>
      <point x="149" y="304"/>
      <point x="130" y="292" type="qcurve"/>
      <point x="120" y="274"/>
      <point x="117" y="229"/>
      <point x="117" y="218" type="qcurve"/>
      <point x="117" y="212" type="line"/>
      <point x="120" y="185"/>
      <point x="142" y="135"/>
      <point x="177" y="97"/>
      <point x="224" y="74"/>
      <point x="251" y="74" type="qcurve"/>
      <point x="259" y="74" type="line"/>
      <point x="273" y="76"/>
      <point x="303" y="84"/>
    </contour>
  </outline>
</glyph>
<glyph name="seven" format="1">
  <advance width="448"/>
  <unicode hex="0037"/>
  <outline>
    <contour>
      <point x="117" y="1" type="line"/>
      <point x="124" y="23"/>
      <point x="156" y="102"/>
      <point x="195" y="202"/>
      <point x="240" y="314"/>
      <point x="283" y="424"/>
      <point x="320" y="523"/>
      <point x="332" y="559" type="qcurve"/>
      <point x="315" y="558"/>
      <point x="276" y="558"/>
      <point x="254" y="558" type="qcurve"/>
      <point x="162" y="558" type="line"/>
      <point x="142" y="558"/>
      <point x="101" y="558"/>
      <point x="81" y="557" type="qcurve"/>
      <point x="44" y="647" type="line"/>
      <point x="51" y="645"/>
      <point x="110" y="640"/>
      <point x="182" y="635"/>
      <point x="251" y="631"/>
      <point x="268" y="631" type="qcurve"/>
      <point x="276" y="631" type="line" name="hr01"/>
      <point x="295" y="631"/>
      <point x="332" y="632"/>
      <point x="342" y="637" type="qcurve"/>
      <point x="388" y="591" type="line" name="hr02"/>
      <point x="402" y="574" type="line"/>
      <point x="401" y="569"/>
      <point x="385" y="564" type="qcurve"/>
      <point x="377" y="529"/>
      <point x="338" y="408"/>
      <point x="286" y="256"/>
      <point x="227" y="85"/>
      <point x="199" y="1" type="qcurve"/>
    </contour>
  </outline>
</glyph>
<glyph name="eight" format="1">
  <advance width="449"/>
  <unicode hex="0038"/>
  <outline>
    <contour>
      <point x="207" y="-3" type="curve" smooth="yes"/>
      <point x="57" y="-3"/>
      <point x="47" y="97"/>
      <point x="47" y="194" type="curve" smooth="yes"/>
      <point x="47" y="221"/>
      <point x="94" y="276"/>
      <point x="145" y="315" type="curve"/>
      <point x="54" y="335"/>
      <point x="47" y="413"/>
      <point x="47" y="492" type="curve" smooth="yes"/>
      <point x="47" y="536"/>
      <point x="173" y="649"/>
      <point x="225" y="649" type="curve" smooth="yes"/>
      <point x="341" y="649"/>
      <point x="372" y="583"/>
      <point x="372" y="510" type="curve" smooth="yes"/>
      <point x="372" y="497"/>
      <point x="371" y="483"/>
      <point x="370" y="469" type="curve"/>
      <point x="370" y="445"/>
      <point x="330" y="398"/>
      <point x="285" y="361" type="curve"/>
      <point x="376" y="346"/>
      <point x="403" y="283"/>
      <point x="403" y="213" type="curve" smooth="yes"/>
      <point x="403" y="199"/>
      <point x="401" y="185"/>
      <point x="399" y="169" type="curve"/>
      <point x="399" y="120"/>
      <point x="263" y="-3"/>
    </contour>
    <contour>
      <point x="307" y="82" type="curve"/>
      <point x="321" y="105"/>
      <point x="328" y="133"/>
      <point x="328" y="161" type="curve" smooth="yes"/>
      <point x="328" y="231"/>
      <point x="287" y="300"/>
      <point x="217" y="300" type="curve" smooth="yes"/>
      <point x="198" y="300"/>
      <point x="176" y="294"/>
      <point x="153" y="282" type="curve"/>
      <point x="133" y="257"/>
      <point x="123" y="228"/>
      <point x="123" y="200" type="curve" smooth="yes"/>
      <point x="123" y="133"/>
      <point x="179" y="68"/>
      <point x="251" y="68" type="curve" smooth="yes"/>
      <point x="269" y="68"/>
      <point x="288" y="73"/>
    </contour>
    <contour>
      <point x="286" y="391" type="curve"/>
      <point x="300" y="412"/>
      <point x="307" y="439"/>
      <point x="307" y="465" type="curve" smooth="yes"/>
      <point x="307" y="529"/>
      <point x="269" y="592"/>
      <point x="204" y="592" type="curve" smooth="yes"/>
      <point x="187" y="592"/>
      <point x="167" y="587"/>
      <point x="146" y="577" type="curve"/>
      <point x="127" y="553"/>
      <point x="119" y="528"/>
      <point x="119" y="501" type="curve" smooth="yes"/>
      <point x="119" y="438"/>
      <point x="170" y="380"/>
      <point x="235" y="380" type="curve" smooth="yes"/>
      <point x="252" y="380"/>
      <point x="269" y="384"/>
    </contour>
  </outline>
</glyph>
<glyph name="nine" format="1">
  <advance width="463"/>
  <unicode hex="0039"/>
  <outline>
    <contour>
      <point x="206" y="652" type="curve" smooth="yes"/>
      <point x="213" y="652"/>
      <point x="219" y="653"/>
      <point x="225" y="653" type="curve" smooth="yes"/>
      <point x="358" y="653"/>
      <point x="381" y="552"/>
      <point x="394" y="454" type="curve" smooth="yes"/>
      <point x="394" y="451"/>
      <point x="395" y="447"/>
      <point x="395" y="444" type="curve" smooth="yes"/>
      <point x="394" y="366"/>
      <point x="373" y="4"/>
      <point x="221" y="-6" type="curve"/>
      <point x="216" y="-6" type="line"/>
      <point x="171" y="-6"/>
      <point x="96" y="32"/>
      <point x="78" y="50" type="curve"/>
      <point x="87" y="72" type="line"/>
      <point x="107" y="60"/>
      <point x="132" y="57"/>
      <point x="156" y="57" type="curve" smooth="yes"/>
      <point x="167" y="57"/>
      <point x="178" y="57"/>
      <point x="188" y="58" type="curve" smooth="yes"/>
      <point x="260" y="63"/>
      <point x="292" y="135"/>
      <point x="310" y="313" type="curve"/>
      <point x="307" y="310" type="line"/>
      <point x="287" y="289"/>
      <point x="256" y="258"/>
      <point x="224" y="256" type="curve" smooth="yes"/>
      <point x="217" y="255"/>
      <point x="210" y="255"/>
      <point x="203" y="255" type="curve" smooth="yes"/>
      <point x="67" y="255"/>
      <point x="48" y="357"/>
      <point x="39" y="456" type="curve"/>
      <point x="39" y="512"/>
      <point x="151" y="647"/>
    </contour>
    <contour>
      <point x="119" y="553" type="curve"/>
      <point x="114" y="538"/>
      <point x="112" y="520"/>
      <point x="112" y="502" type="curve" smooth="yes"/>
      <point x="112" y="494"/>
      <point x="112" y="486"/>
      <point x="113" y="478" type="curve" smooth="yes"/>
      <point x="120" y="403"/>
      <point x="161" y="330"/>
      <point x="233" y="330" type="curve"/>
      <point x="240" y="330" type="line"/>
      <point x="260" y="332"/>
      <point x="283" y="338"/>
      <point x="308" y="354" type="curve"/>
      <point x="321" y="378"/>
      <point x="321" y="414"/>
      <point x="321" y="428" type="curve" smooth="yes"/>
      <point x="321" y="432"/>
      <point x="321" y="434"/>
      <point x="321" y="434" type="curve" smooth="yes"/>
      <point x="314" y="507"/>
      <point x="259" y="572"/>
      <point x="187" y="572" type="curve"/>
      <point x="179" y="572" type="line"/>
      <point x="160" y="570"/>
      <point x="140" y="565"/>
    </contour>
  </outline>
</glyph>
<glyph name="colon" format="1">
  <advance width="180"/>
  <unicode hex="003A"/>
  <outline>
    <contour>
      <point x="90" y="116" type="curve" smooth="yes"/>
      <point x="131" y="116"/>
      <point x="142" y="81"/>
      <point x="142" y="57" type="curve" smooth="yes"/>
      <point x="142" y="26"/>
      <point x="118" y="-2"/>
      <point x="87" y="-2" type="curve" smooth="yes"/>
      <point x="53" y="-2"/>
      <point x="32" y="26"/>
      <point x="32" y="57" type="curve" smooth="yes"/>
      <point x="32" y="63"/>
      <point x="32" y="68"/>
      <point x="34" y="73" type="curve" smooth="yes"/>
      <point x="40" y="100"/>
      <point x="66" y="116"/>
    </contour>
    <contour>
      <point x="90" y="376" type="curve" smooth="yes"/>
      <point x="131" y="376"/>
      <point x="142" y="342"/>
      <point x="142" y="315" type="curve" smooth="yes"/>
      <point x="142" y="285"/>
      <point x="118" y="256"/>
      <point x="87" y="256" type="curve" smooth="yes"/>
      <point x="53" y="256"/>
      <point x="32" y="287"/>
      <point x="32" y="316" type="curve" smooth="yes"/>
      <point x="32" y="321"/>
      <point x="32" y="326"/>
      <point x="34" y="332" type="curve" smooth="yes"/>
      <point x="40" y="358"/>
      <point x="66" y="376"/>
    </contour>
  </outline>
</glyph>
<glyph name="less" format="1">
  <advance width="491"/>
  <unicode hex="003C"/>
  <outline>
    <contour>
      <point x="36" y="242" type="line" name="hr00"/>
      <point x="237" y="323" type="line"/>
      <point x="313" y="354"/>
      <point x="406" y="388"/>
      <point x="429" y="388" type="qcurve"/>
      <point x="447" y="388"/>
      <point x="450" y="377" type="qcurve"/>
      <point x="452" y="374" type="line"/>
      <point x="380" y="306" type="line"/>
      <point x="376" y="307"/>
      <point x="369" y="309"/>
      <point x="366" y="309" type="qcurve"/>
      <point x="356" y="309"/>
      <point x="339" y="301"/>
      <point x="331" y="298" type="qcurve"/>
      <point x="317" y="292"/>
      <point x="266" y="269"/>
      <point x="203" y="241"/>
      <point x="133" y="210"/>
      <point x="102" y="195" type="qcurve"/>
      <point x="133" y="180"/>
      <point x="203" y="149"/>
      <point x="266" y="120"/>
      <point x="317" y="98"/>
      <point x="331" y="93" type="qcurve"/>
      <point x="349" y="85"/>
      <point x="362" y="81"/>
      <point x="365" y="81" type="qcurve"/>
      <point x="370" y="81"/>
      <point x="377" y="84"/>
      <point x="380" y="84" type="qcurve"/>
      <point x="452" y="16" type="line"/>
      <point x="450" y="13" type="line"/>
      <point x="447" y="2"/>
      <point x="429" y="2" type="qcurve"/>
      <point x="406" y="2"/>
      <point x="313" y="36"/>
      <point x="237" y="67" type="qcurve"/>
      <point x="205" y="80"/>
      <point x="171" y="93"/>
      <point x="142" y="105"/>
      <point x="108" y="119"/>
      <point x="77" y="132" type="qcurve"/>
      <point x="38" y="148" type="line"/>
      <point x="35" y="148"/>
      <point x="35" y="150" type="qcurve"/>
      <point x="35" y="152"/>
      <point x="36" y="153"/>
      <point x="36" y="155" type="qcurve"/>
    </contour>
  </outline>
</glyph>
<glyph name="equal" format="1">
  <advance width="520"/>
  <unicode hex="003D"/>
  <outline>
    <contour>
      <point x="54" y="162" type="line"/>
      <point x="132" y="162" type="line" smooth="yes"/>
      <point x="168" y="162"/>
      <point x="205" y="162"/>
      <point x="242" y="163" type="curve"/>
      <point x="467" y="163" type="line"/>
      <point x="433" y="101" type="line"/>
      <point x="422" y="101" type="line"/>
      <point x="407" y="101"/>
      <point x="399" y="103"/>
      <point x="381" y="103" type="curve" smooth="yes"/>
      <point x="330" y="102"/>
      <point x="75" y="100"/>
      <point x="37" y="96" type="curve"/>
    </contour>
    <contour>
      <point x="79" y="334" type="line"/>
      <point x="157" y="334" type="line" smooth="yes"/>
      <point x="193" y="334"/>
      <point x="230" y="335"/>
      <point x="266" y="335" type="curve"/>
      <point x="492" y="335" type="line"/>
      <point x="458" y="273" type="line"/>
      <point x="447" y="273" type="line"/>
      <point x="431" y="273"/>
      <point x="424" y="276"/>
      <point x="406" y="276" type="curve" smooth="yes"/>
      <point x="355" y="275"/>
      <point x="99" y="272"/>
      <point x="61" y="268" type="curve"/>
    </contour>
  </outline>
</glyph>
<glyph name="greater" format="1">
  <advance width="491"/>
  <unicode hex="003E"/>
  <outline>
    <contour>
      <point x="454" y="158" type="line" name="hr00"/>
      <point x="454" y="157"/>
      <point x="455" y="154"/>
      <point x="455" y="152" type="qcurve"/>
      <point x="455" y="148"/>
      <point x="453" y="148" type="qcurve"/>
      <point x="436" y="140"/>
      <point x="423" y="136"/>
      <point x="414" y="132" type="qcurve"/>
      <point x="383" y="119"/>
      <point x="349" y="105"/>
      <point x="320" y="93"/>
      <point x="285" y="80"/>
      <point x="254" y="67" type="qcurve"/>
      <point x="178" y="36"/>
      <point x="85" y="2"/>
      <point x="62" y="2" type="qcurve"/>
      <point x="44" y="2"/>
      <point x="41" y="13" type="qcurve"/>
      <point x="39" y="16" type="line"/>
      <point x="112" y="84" type="line"/>
      <point x="115" y="84"/>
      <point x="122" y="81"/>
      <point x="126" y="81" type="qcurve"/>
      <point x="129" y="81"/>
      <point x="142" y="85"/>
      <point x="160" y="93" type="qcurve"/>
      <point x="173" y="98"/>
      <point x="225" y="120"/>
      <point x="288" y="149"/>
      <point x="357" y="180"/>
      <point x="389" y="195" type="qcurve"/>
      <point x="357" y="210"/>
      <point x="288" y="241"/>
      <point x="225" y="269"/>
      <point x="173" y="292"/>
      <point x="160" y="298" type="qcurve"/>
      <point x="152" y="301"/>
      <point x="135" y="309"/>
      <point x="125" y="309" type="qcurve"/>
      <point x="122" y="309"/>
      <point x="115" y="307"/>
      <point x="112" y="306" type="qcurve"/>
      <point x="39" y="374" type="line"/>
      <point x="41" y="377" type="line"/>
      <point x="44" y="388"/>
      <point x="62" y="388" type="qcurve"/>
      <point x="85" y="388"/>
      <point x="178" y="354"/>
      <point x="254" y="323" type="qcurve"/>
      <point x="285" y="310"/>
      <point x="320" y="297"/>
      <point x="349" y="286"/>
      <point x="383" y="271"/>
      <point x="414" y="258" type="qcurve"/>
      <point x="423" y="254"/>
      <point x="443" y="244"/>
      <point x="454" y="244" type="qcurve"/>
    </contour>
  </outline>
</glyph>
<glyph name="question" format="1">
  <advance width="386"/>
  <unicode hex="003F"/>
  <outline>
    <contour>
      <point x="89" y="180" type="line" name="hr00"/>
      <point x="87" y="187"/>
      <point x="86" y="216"/>
      <point x="84" y="253"/>
      <point x="78" y="295"/>
      <point x="71" y="317" type="qcurve"/>
      <point x="116" y="327" type="line"/>
      <point x="132" y="336"/>
      <point x="160" y="367"/>
      <point x="180" y="405"/>
      <point x="191" y="447"/>
      <point x="191" y="467" type="qcurve"/>
      <point x="191" y="474" type="line"/>
      <point x="191" y="487"/>
      <point x="189" y="535"/>
      <point x="178" y="581"/>
      <point x="157" y="616"/>
      <point x="138" y="616" type="qcurve"/>
      <point x="130" y="616"/>
      <point x="117" y="611" type="qcurve"/>
      <point x="108" y="606"/>
      <point x="93" y="570"/>
      <point x="93" y="544" type="qcurve"/>
      <point x="88" y="541"/>
      <point x="65" y="538"/>
      <point x="40" y="536"/>
      <point x="20" y="536"/>
      <point x="19" y="536" type="qcurve"/>
      <point x="15" y="555"/>
      <point x="15" y="572" type="qcurve"/>
      <point x="15" y="604"/>
      <point x="30" y="639"/>
      <point x="57" y="656"/>
      <point x="94" y="659"/>
      <point x="117" y="659" type="qcurve"/>
      <point x="140" y="659"/>
      <point x="199" y="630"/>
      <point x="251" y="583"/>
      <point x="286" y="524"/>
      <point x="286" y="495" type="qcurve"/>
      <point x="286" y="469"/>
      <point x="255" y="409"/>
      <point x="208" y="354"/>
      <point x="153" y="309"/>
      <point x="128" y="297" type="qcurve"/>
      <point x="136" y="273"/>
      <point x="148" y="238"/>
      <point x="156" y="207"/>
      <point x="161" y="178"/>
      <point x="164" y="161" type="qcurve"/>
    </contour>
    <contour>
      <point x="125" y="116" type="qcurve"/>
      <point x="140" y="116"/>
      <point x="160" y="104"/>
      <point x="172" y="87"/>
      <point x="176" y="66"/>
      <point x="176" y="57" type="qcurve"/>
      <point x="176" y="34"/>
      <point x="145" y="-2"/>
      <point x="121" y="-2" type="qcurve"/>
      <point x="96" y="-2"/>
      <point x="66" y="34"/>
      <point x="66" y="57" type="qcurve"/>
      <point x="66" y="68"/>
      <point x="68" y="73" type="qcurve"/>
      <point x="73" y="93"/>
      <point x="107" y="116"/>
    </contour>
  </outline>
</glyph>
<glyph name="at" format="1">
  <advance width="686"/>
  <unicode hex="0040"/>
  <outline>
    <contour>
      <point x="413" y="-52" type="qcurve" name="hr00"/>
      <point x="422" y="-56" type="line"/>
      <point x="417" y="-70"/>
      <point x="394" y="-97"/>
      <point x="390" y="-98" type="qcurve"/>
      <point x="354" y="-107"/>
      <point x="322" y="-107" type="qcurve"/>
      <point x="256" y="-107"/>
      <point x="147" y="-50"/>
      <point x="69" y="41"/>
      <point x="27" y="153"/>
      <point x="27" y="209" type="qcurve"/>
      <point x="27" y="275"/>
      <point x="46" y="321" type="qcurve"/>
      <point x="74" y="393"/>
      <point x="166" y="492"/>
      <point x="268" y="552"/>
      <point x="366" y="579"/>
      <point x="400" y="579" type="qcurve"/>
      <point x="464" y="577"/>
      <point x="551" y="527"/>
      <point x="603" y="449"/>
      <point x="626" y="353"/>
      <point x="626" y="307" type="qcurve"/>
      <point x="626" y="275"/>
      <point x="620" y="218"/>
      <point x="612" y="195" type="qcurve"/>
      <point x="586" y="129"/>
      <point x="491" y="34"/>
      <point x="434" y="3" type="qcurve"/>
      <point x="411" y="24" type="line"/>
      <point x="397" y="35"/>
      <point x="376" y="62"/>
      <point x="371" y="78" type="qcurve"/>
      <point x="349" y="51"/>
      <point x="308" y="9"/>
      <point x="298" y="9" type="qcurve"/>
      <point x="273" y="9"/>
      <point x="237" y="43"/>
      <point x="213" y="94"/>
      <point x="202" y="155"/>
      <point x="202" y="183" type="qcurve"/>
      <point x="202" y="199"/>
      <point x="204" y="225"/>
      <point x="208" y="236" type="qcurve"/>
      <point x="211" y="249"/>
      <point x="241" y="299"/>
      <point x="280" y="349"/>
      <point x="319" y="386"/>
      <point x="332" y="386" type="qcurve"/>
      <point x="334" y="386"/>
      <point x="336" y="385" type="qcurve"/>
      <point x="348" y="381"/>
      <point x="378" y="359"/>
      <point x="406" y="332"/>
      <point x="427" y="302"/>
      <point x="430" y="290" type="qcurve"/>
      <point x="432" y="286"/>
      <point x="432" y="274" type="qcurve"/>
      <point x="432" y="260"/>
      <point x="429" y="225"/>
      <point x="428" y="211" type="qcurve"/>
      <point x="428" y="205"/>
      <point x="427" y="195"/>
      <point x="427" y="190" type="qcurve"/>
      <point x="427" y="151"/>
      <point x="443" y="105"/>
      <point x="464" y="81"/>
      <point x="487" y="72"/>
      <point x="494" y="68" type="qcurve"/>
      <point x="521" y="94"/>
      <point x="559" y="190"/>
      <point x="559" y="274" type="qcurve"/>
      <point x="559" y="278" type="line"/>
      <point x="558" y="344"/>
      <point x="518" y="429"/>
      <point x="457" y="479"/>
      <point x="381" y="499"/>
      <point x="345" y="499" type="qcurve"/>
      <point x="340" y="499"/>
      <point x="332" y="498"/>
      <point x="327" y="498" type="qcurve"/>
      <point x="312" y="497"/>
      <point x="269" y="493"/>
      <point x="221" y="478"/>
      <point x="172" y="450"/>
      <point x="131" y="402"/>
      <point x="102" y="330"/>
      <point x="99" y="279" type="qcurve"/>
      <point x="98" y="272"/>
      <point x="98" y="262"/>
      <point x="98" y="255" type="qcurve"/>
      <point x="98" y="181"/>
      <point x="152" y="61"/>
      <point x="233" y="-25"/>
      <point x="329" y="-71"/>
      <point x="370" y="-71" type="qcurve"/>
      <point x="383" y="-71"/>
      <point x="408" y="-66"/>
    </contour>
    <contour>
      <point x="362" y="95" type="qcurve"/>
      <point x="367" y="109"/>
      <point x="372" y="144"/>
      <point x="372" y="163" type="qcurve"/>
      <point x="372" y="187"/>
      <point x="363" y="236"/>
      <point x="347" y="275"/>
      <point x="322" y="300"/>
      <point x="306" y="300" type="qcurve"/>
      <point x="292" y="300"/>
      <point x="274" y="290" type="qcurve"/>
      <point x="258" y="258"/>
      <point x="258" y="221" type="qcurve"/>
      <point x="258" y="196"/>
      <point x="270" y="148"/>
      <point x="292" y="111"/>
      <point x="320" y="88"/>
      <point x="337" y="88" type="qcurve"/>
      <point x="343" y="88"/>
      <point x="355" y="92"/>
    </contour>
  </outline>
</glyph>
<glyph name="A" format="1">
  <advance width="519"/>
  <unicode hex="0041"/>
  <outline>
    <contour>
      <point x="440" y="0" type="line"/>
      <point x="436" y="16"/>
      <point x="416" y="77"/>
      <point x="387" y="157" type="curve"/>
      <point x="154" y="157" type="line"/>
      <point x="154" y="156"/>
      <point x="153" y="155"/>
      <point x="153" y="154" type="curve"/>
      <point x="99" y="-5" type="line"/>
      <point x="31" y="0" type="line"/>
      <point x="75" y="108"/>
      <point x="172" y="423"/>
      <point x="223" y="568" type="curve"/>
      <point x="219" y="573"/>
      <point x="214" y="575"/>
      <point x="211" y="576" type="curve"/>
      <point x="281" y="665" type="line"/>
      <point x="282" y="665"/>
      <point x="283" y="666"/>
      <point x="284" y="666" type="curve" smooth="yes"/>
      <point x="318" y="666"/>
      <point x="365" y="476"/>
      <point x="432" y="293" type="curve"/>
      <point x="442" y="266" type="line"/>
      <point x="475" y="177"/>
      <point x="510" y="73"/>
      <point x="538" y="3" type="curve"/>
    </contour>
    <contour>
      <point x="171" y="207" type="curve"/>
      <point x="370" y="207" type="line"/>
      <point x="289" y="443"/>
      <point x="267" y="487"/>
      <point x="258" y="504" type="curve" smooth="yes"/>
      <point x="257" y="506"/>
      <point x="257" y="508"/>
      <point x="256" y="509" type="curve"/>
      <point x="229" y="420"/>
      <point x="204" y="306"/>
    </contour>
    <contour>
      <point x="268" y="597" type="move" name="top"/>
    </contour>
    <contour>
      <point x="481" y="11" type="move" name="bottom"/>
    </contour>
  </outline>
</glyph>
<glyph name="B" format="1">
  <advance width="490"/>
  <unicode hex="0042"/>
  <outline>
    <contour>
      <point x="32" y="649" type="line"/>
      <point x="46" y="648"/>
      <point x="77" y="648"/>
      <point x="93" y="648" type="qcurve"/>
      <point x="148" y="648"/>
      <point x="258" y="650"/>
      <point x="296" y="650" type="qcurve"/>
      <point x="303" y="650" type="line"/>
      <point x="345" y="646"/>
      <point x="401" y="615"/>
      <point x="434" y="571"/>
      <point x="448" y="519"/>
      <point x="448" y="494" type="qcurve"/>
      <point x="448" y="471"/>
      <point x="440" y="435"/>
      <point x="424" y="404"/>
      <point x="397" y="374"/>
      <point x="378" y="357" type="qcurve"/>
      <point x="407" y="348"/>
      <point x="447" y="318"/>
      <point x="471" y="279"/>
      <point x="481" y="237"/>
      <point x="481" y="216" type="qcurve"/>
      <point x="481" y="176"/>
      <point x="444" y="99"/>
      <point x="384" y="38"/>
      <point x="309" y="1"/>
      <point x="271" y="1" type="qcurve"/>
      <point x="185" y="1" type="line"/>
      <point x="162" y="1"/>
      <point x="96" y="0"/>
      <point x="61" y="0" type="qcurve"/>
      <point x="62" y="17"/>
      <point x="65" y="93"/>
      <point x="67" y="188"/>
      <point x="69" y="292"/>
      <point x="71" y="383"/>
      <point x="72" y="450"/>
      <point x="72" y="462" type="qcurve" name="hr01"/>
      <point x="72" y="492"/>
      <point x="69" y="550"/>
      <point x="61" y="563" type="qcurve"/>
      <point x="77" y="584" type="line"/>
      <point x="60" y="582" type="line"/>
    </contour>
    <contour>
      <point x="158" y="57" type="line"/>
      <point x="189" y="53"/>
      <point x="244" y="50"/>
      <point x="264" y="50" type="qcurve"/>
      <point x="333" y="50"/>
      <point x="393" y="109"/>
      <point x="393" y="172" type="qcurve"/>
      <point x="393" y="220"/>
      <point x="369" y="281"/>
      <point x="327" y="315"/>
      <point x="268" y="327"/>
      <point x="233" y="327" type="qcurve"/>
      <point x="216" y="327"/>
      <point x="178" y="324"/>
      <point x="158" y="322" type="qcurve" name="hr02"/>
    </contour>
    <contour>
      <point x="361" y="453" type="qcurve"/>
      <point x="360" y="496"/>
      <point x="340" y="553"/>
      <point x="304" y="585"/>
      <point x="253" y="598"/>
      <point x="220" y="598" type="qcurve"/>
      <point x="203" y="598"/>
      <point x="169" y="596"/>
      <point x="149" y="594" type="qcurve"/>
      <point x="152" y="584"/>
      <point x="156" y="533"/>
      <point x="157" y="472"/>
      <point x="158" y="411"/>
      <point x="158" y="390" type="qcurve" name="hr03"/>
      <point x="158" y="367" type="line"/>
      <point x="197" y="367"/>
      <point x="253" y="368"/>
      <point x="295" y="368"/>
      <point x="328" y="369"/>
      <point x="343" y="369" type="qcurve"/>
      <point x="348" y="378"/>
      <point x="352" y="390" type="qcurve" name="hr04"/>
      <point x="355" y="401"/>
      <point x="361" y="432"/>
    </contour>
  </outline>
</glyph>
<glyph name="C" format="1">
  <advance width="500"/>
  <unicode hex="0043"/>
  <outline>
    <contour>
      <point x="290" y="668" type="line"/>
      <point x="368" y="645"/>
      <point x="474" y="530"/>
      <point x="474" y="513" type="curve" smooth="yes"/>
      <point x="469" y="504"/>
      <point x="449" y="469"/>
      <point x="418" y="446" type="curve"/>
      <point x="388" y="493"/>
      <point x="306" y="561"/>
      <point x="243" y="561" type="curve" smooth="yes"/>
      <point x="154" y="561"/>
      <point x="148" y="424"/>
      <point x="148" y="358" type="curve" smooth="yes"/>
      <point x="148" y="155"/>
      <point x="215" y="80"/>
      <point x="293" y="80" type="curve" smooth="yes"/>
      <point x="356" y="80"/>
      <point x="422" y="91"/>
      <point x="466" y="125" type="curve"/>
      <point x="490" y="83" type="line"/>
      <point x="430" y="35"/>
      <point x="267" y="-1"/>
      <point x="231" y="-3" type="curve"/>
      <point x="108" y="5"/>
      <point x="59" y="151"/>
      <point x="59" y="277" type="curve" smooth="yes"/>
      <point x="59" y="320"/>
      <point x="64" y="371"/>
      <point x="72" y="402" type="curve" smooth="yes"/>
      <point x="89" y="464"/>
      <point x="220" y="668"/>
      <point x="286" y="668" type="curve"/>
    </contour>
    <contour>
      <point x="282" y="602" type="move" name="top"/>
    </contour>
    <contour>
      <point x="260" y="11" type="move" name="bottom"/>
    </contour>
  </outline>
</glyph>
<glyph name="F" format="1">
  <advance width="417"/>
  <unicode hex="0046"/>
  <outline>
    <contour>
      <point x="31" y="649" type="line"/>
      <point x="54" y="648"/>
      <point x="102" y="648"/>
      <point x="123" y="648" type="qcurve"/>
      <point x="284" y="648" type="line"/>
      <point x="347" y="648"/>
      <point x="407" y="639"/>
      <point x="407" y="620" type="qcurve"/>
      <point x="350" y="580" type="line"/>
      <point x="332" y="590"/>
      <point x="277" y="593"/>
      <point x="254" y="593" type="qcurve"/>
      <point x="244" y="593" type="line"/>
      <point x="227" y="593"/>
      <point x="176" y="591"/>
      <point x="150" y="590" type="qcurve"/>
      <point x="155" y="552"/>
      <point x="158" y="440"/>
      <point x="158" y="374" type="qcurve"/>
      <point x="158" y="357" type="line"/>
      <point x="174" y="355"/>
      <point x="199" y="353"/>
      <point x="218" y="353" type="qcurve"/>
      <point x="228" y="353" type="line"/>
      <point x="251" y="353"/>
      <point x="306" y="356"/>
      <point x="323" y="366" type="qcurve"/>
      <point x="385" y="326" type="line"/>
      <point x="385" y="309"/>
      <point x="346" y="299"/>
      <point x="293" y="299" type="qcurve"/>
      <point x="158" y="299" type="line"/>
      <point x="158" y="250" type="line"/>
      <point x="158" y="223"/>
      <point x="157" y="170"/>
      <point x="157" y="143" type="qcurve"/>
      <point x="157" y="106"/>
      <point x="158" y="33"/>
      <point x="159" y="2" type="qcurve"/>
      <point x="60" y="2" type="line"/>
      <point x="61" y="10"/>
      <point x="64" y="78"/>
      <point x="67" y="172"/>
      <point x="69" y="279"/>
      <point x="71" y="376"/>
      <point x="72" y="449"/>
      <point x="72" y="462" type="qcurve"/>
      <point x="72" y="493"/>
      <point x="69" y="549"/>
      <point x="61" y="563" type="qcurve"/>
      <point x="77" y="584" type="line"/>
      <point x="72" y="583"/>
      <point x="63" y="583"/>
      <point x="60" y="582" type="qcurve" name="hr01"/>
    </contour>
  </outline>
</glyph>
<glyph name="G" format="1">
  <advance width="552"/>
  <unicode hex="0047"/>
  <outline>
    <contour>
      <point x="410" y="0" type="line"/>
      <point x="410" y="43" type="line"/>
      <point x="357" y="18"/>
      <point x="254" y="-2"/>
      <point x="231" y="-3" type="curve"/>
      <point x="108" y="5"/>
      <point x="59" y="161"/>
      <point x="59" y="286" type="curve" smooth="yes"/>
      <point x="59" y="329"/>
      <point x="64" y="369"/>
      <point x="72" y="400" type="curve" smooth="yes"/>
      <point x="89" y="462"/>
      <point x="261" y="667"/>
      <point x="327" y="667" type="curve"/>
      <point x="405" y="645"/>
      <point x="514" y="525"/>
      <point x="514" y="512" type="curve" smooth="yes"/>
      <point x="514" y="512"/>
      <point x="492" y="469"/>
      <point x="458" y="443" type="curve"/>
      <point x="428" y="491"/>
      <point x="347" y="559"/>
      <point x="284" y="559" type="curve" smooth="yes"/>
      <point x="194" y="559"/>
      <point x="148" y="410"/>
      <point x="148" y="354" type="curve" smooth="yes"/>
      <point x="148" y="140"/>
      <point x="222" y="80"/>
      <point x="292" y="80" type="curve" smooth="yes"/>
      <point x="315" y="80"/>
      <point x="388" y="86"/>
      <point x="410" y="94" type="curve"/>
      <point x="410" y="185" type="line"/>
      <point x="353" y="185" type="line"/>
      <point x="363" y="236" type="line"/>
      <point x="542" y="236" type="line"/>
      <point x="532" y="185" type="line"/>
      <point x="494" y="185" type="line"/>
      <point x="494" y="174"/>
      <point x="495" y="160"/>
      <point x="495" y="140" type="curve" smooth="yes"/>
      <point x="495" y="108"/>
      <point x="495" y="61"/>
      <point x="497" y="-2" type="curve"/>
    </contour>
    <contour>
      <point x="285" y="587" type="move" name="top"/>
    </contour>
    <contour>
      <point x="256" y="11" type="move" name="bottom"/>
    </contour>
  </outline>
</glyph>
<glyph name="H" format="1">
  <advance width="582"/>
  <unicode hex="0048"/>
  <outline>
    <contour>
      <point x="423" y="0" type="line"/>
      <point x="426" y="20"/>
      <point x="429" y="157"/>
      <point x="431" y="277" type="curve"/>
      <point x="159" y="277" type="line"/>
      <point x="159" y="250" type="line" smooth="yes"/>
      <point x="159" y="214"/>
      <point x="158" y="179"/>
      <point x="158" y="143" type="curve" smooth="yes"/>
      <point x="158" y="94"/>
      <point x="159" y="43"/>
      <point x="160" y="2" type="curve"/>
      <point x="61" y="2" type="line"/>
      <point x="66" y="35"/>
      <point x="72" y="412"/>
      <point x="72" y="462" type="curve" smooth="yes"/>
      <point x="72" y="503"/>
      <point x="72" y="549"/>
      <point x="62" y="567" type="curve"/>
      <point x="124" y="649" type="line"/>
      <point x="155" y="649"/>
      <point x="159" y="526"/>
      <point x="159" y="374" type="curve" smooth="yes"/>
      <point x="159" y="326" type="line"/>
      <point x="432" y="326" type="line"/>
      <point x="433" y="391"/>
      <point x="434" y="445"/>
      <point x="434" y="462" type="curve" smooth="yes"/>
      <point x="434" y="503"/>
      <point x="434" y="549"/>
      <point x="422" y="567" type="curve"/>
      <point x="484" y="649" type="line"/>
      <point x="516" y="649"/>
      <point x="520" y="523"/>
      <point x="520" y="370" type="curve" smooth="yes"/>
      <point x="520" y="248" type="line" smooth="yes"/>
      <point x="520" y="212"/>
      <point x="519" y="177"/>
      <point x="519" y="143" type="curve" smooth="yes"/>
      <point x="519" y="94"/>
      <point x="520" y="43"/>
      <point x="520" y="2" type="curve"/>
    </contour>
    <contour>
      <point x="280" y="567" type="move" name="top"/>
    </contour>
  </outline>
</glyph>
<glyph name="I" format="1">
  <advance width="223"/>
  <unicode hex="0049"/>
  <outline>
    <contour>
      <point x="61" y="0" type="line" name="hr00"/>
      <point x="62" y="9"/>
      <point x="65" y="77"/>
      <point x="67" y="171"/>
      <point x="69" y="279"/>
      <point x="70" y="376"/>
      <point x="71" y="449"/>
      <point x="71" y="462" type="qcurve"/>
      <point x="71" y="493"/>
      <point x="69" y="553"/>
      <point x="61" y="567" type="qcurve"/>
      <point x="123" y="649" type="line"/>
      <point x="134" y="649"/>
      <point x="148" y="606"/>
      <point x="155" y="531"/>
      <point x="157" y="431"/>
      <point x="157" y="374" type="qcurve"/>
      <point x="157" y="143" type="line"/>
      <point x="157" y="106"/>
      <point x="157" y="33"/>
      <point x="158" y="2" type="qcurve"/>
    </contour>
  </outline>
</glyph>
<glyph name="J" format="1">
  <advance width="271"/>
  <unicode hex="004A"/>
  <outline>
    <contour>
      <point x="-26" y="88" type="qcurve"/>
      <point x="-26" y="90"/>
      <point x="-17" y="104"/>
      <point x="-3" y="122"/>
      <point x="13" y="140"/>
      <point x="20" y="145" type="qcurve"/>
      <point x="27" y="134"/>
      <point x="52" y="113"/>
      <point x="80" y="95"/>
      <point x="110" y="84"/>
      <point x="122" y="84" type="qcurve" name="hr01"/>
      <point x="124" y="84"/>
      <point x="127" y="85"/>
      <point x="129" y="85" type="qcurve"/>
      <point x="130" y="109"/>
      <point x="132" y="182"/>
      <point x="134" y="263"/>
      <point x="135" y="347"/>
      <point x="136" y="420"/>
      <point x="137" y="474"/>
      <point x="137" y="484" type="qcurve"/>
      <point x="137" y="514"/>
      <point x="133" y="554"/>
      <point x="125" y="568" type="qcurve"/>
      <point x="189" y="652" type="line"/>
      <point x="200" y="649"/>
      <point x="213" y="611"/>
      <point x="220" y="550"/>
      <point x="222" y="468"/>
      <point x="222" y="421" type="qcurve"/>
      <point x="222" y="147" type="line"/>
      <point x="222" y="136"/>
      <point x="191" y="87"/>
      <point x="148" y="35"/>
      <point x="101" y="-4"/>
      <point x="85" y="-4" type="qcurve"/>
      <point x="82" y="-4"/>
      <point x="80" y="-3" type="qcurve"/>
      <point x="69" y="-3"/>
      <point x="37" y="18"/>
      <point x="4" y="47"/>
      <point x="-22" y="78"/>
    </contour>
  </outline>
</glyph>
<glyph name="K" format="1">
  <advance width="559"/>
  <unicode hex="004B"/>
  <outline>
    <contour>
      <point x="61" y="0" type="line"/>
      <point x="66" y="35"/>
      <point x="72" y="412"/>
      <point x="72" y="462" type="curve" smooth="yes"/>
      <point x="72" y="503"/>
      <point x="72" y="557"/>
      <point x="62" y="575" type="curve"/>
      <point x="124" y="657" type="line"/>
      <point x="155" y="657"/>
      <point x="159" y="526"/>
      <point x="159" y="374" type="curve" smooth="yes"/>
      <point x="159" y="335" type="line"/>
      <point x="253" y="438"/>
      <point x="414" y="640"/>
      <point x="460" y="640" type="curve" smooth="yes"/>
      <point x="464" y="640"/>
      <point x="466" y="640"/>
      <point x="469" y="638" type="curve"/>
      <point x="476" y="557" type="line"/>
      <point x="462" y="552"/>
      <point x="341" y="422"/>
      <point x="285" y="366" type="curve"/>
      <point x="331" y="305"/>
      <point x="376" y="247"/>
      <point x="415" y="198" type="curve" smooth="yes"/>
      <point x="485" y="112"/>
      <point x="538" y="47"/>
      <point x="538" y="15" type="curve" smooth="yes"/>
      <point x="538" y="8"/>
      <point x="536" y="3"/>
      <point x="531" y="-1" type="curve"/>
      <point x="449" y="-4" type="line"/>
      <point x="446" y="20"/>
      <point x="400" y="81"/>
      <point x="376" y="112" type="curve" smooth="yes"/>
      <point x="351" y="145"/>
      <point x="265" y="260"/>
      <point x="221" y="312" type="curve"/>
      <point x="159" y="242" type="line"/>
      <point x="158" y="219"/>
      <point x="158" y="166"/>
      <point x="158" y="143" type="curve" smooth="yes"/>
      <point x="158" y="94"/>
      <point x="159" y="43"/>
      <point x="160" y="2" type="curve"/>
    </contour>
    <contour>
      <point x="251" y="4" type="move" name="bottom"/>
    </contour>
  </outline>
</glyph>
<glyph name="L" format="1">
  <advance width="453"/>
  <unicode hex="004C"/>
  <outline>
    <contour>
      <point x="61" y="0" type="line"/>
      <point x="66" y="35"/>
      <point x="72" y="412"/>
      <point x="72" y="462" type="curve" smooth="yes"/>
      <point x="72" y="503"/>
      <point x="72" y="549"/>
      <point x="62" y="567" type="curve"/>
      <point x="124" y="649" type="line"/>
      <point x="155" y="649"/>
      <point x="159" y="526"/>
      <point x="159" y="374" type="curve" smooth="yes"/>
      <point x="159" y="250" type="line" smooth="yes"/>
      <point x="159" y="214"/>
      <point x="158" y="179"/>
      <point x="158" y="143" type="curve" smooth="yes"/>
      <point x="158" y="61" type="line"/>
      <point x="203" y="58"/>
      <point x="261" y="56"/>
      <point x="297" y="56" type="curve" smooth="yes"/>
      <point x="307" y="56" type="line" smooth="yes"/>
      <point x="337" y="56"/>
      <point x="379" y="56"/>
      <point x="403" y="69" type="curve"/>
      <point x="458" y="28" type="line"/>
      <point x="458" y="4"/>
      <point x="419" y="1"/>
      <point x="338" y="1" type="curve" smooth="yes"/>
      <point x="281" y="1" type="line" smooth="yes"/>
      <point x="261" y="1"/>
      <point x="237" y="2"/>
      <point x="212" y="2" type="curve" smooth="yes"/>
      <point x="176" y="2"/>
      <point x="128" y="1"/>
      <point x="84" y="0" type="curve" smooth="yes"/>
    </contour>
    <contour>
      <point x="116" y="583" type="move" name="top"/>
    </contour>
    <contour>
      <point x="269" y="11" type="move" name="bottom"/>
    </contour>
  </outline>
</glyph>
<glyph name="M" format="1">
  <advance width="742"/>
  <unicode hex="004D"/>
  <outline>
    <contour>
      <point x="557" y="558" type="qcurve"/>
      <point x="554" y="567" type="line"/>
      <point x="646" y="649" type="line"/>
      <point x="658" y="649"/>
      <point x="671" y="605"/>
      <point x="679" y="528"/>
      <point x="681" y="426"/>
      <point x="681" y="369" type="qcurve"/>
      <point x="681" y="121" type="line"/>
      <point x="681" y="90"/>
      <point x="681" y="28"/>
      <point x="682" y="2" type="qcurve"/>
      <point x="580" y="2" type="line"/>
      <point x="581" y="8"/>
      <point x="583" y="70"/>
      <point x="585" y="160"/>
      <point x="587" y="268"/>
      <point x="589" y="372"/>
      <point x="591" y="461"/>
      <point x="591" y="489" type="qcurve"/>
      <point x="369" y="-7" type="line"/>
      <point x="367" y="0"/>
      <point x="340" y="59"/>
      <point x="300" y="145"/>
      <point x="252" y="250"/>
      <point x="203" y="355"/>
      <point x="159" y="453"/>
      <point x="144" y="489" type="qcurve"/>
      <point x="144" y="121" type="line"/>
      <point x="144" y="105"/>
      <point x="143" y="74"/>
      <point x="143" y="59" type="qcurve"/>
      <point x="143" y="44"/>
      <point x="143" y="15"/>
      <point x="144" y="2" type="qcurve"/>
      <point x="79" y="2" type="line"/>
      <point x="80" y="10"/>
      <point x="83" y="78"/>
      <point x="85" y="172"/>
      <point x="87" y="279"/>
      <point x="88" y="376"/>
      <point x="89" y="449"/>
      <point x="89" y="462" type="qcurve"/>
      <point x="89" y="493"/>
      <point x="86" y="553"/>
      <point x="78" y="567" type="qcurve"/>
      <point x="99" y="594"/>
      <point x="129" y="627"/>
      <point x="149" y="645"/>
      <point x="161" y="650"/>
      <point x="164" y="650" type="qcurve"/>
      <point x="174" y="650"/>
      <point x="205" y="594"/>
      <point x="243" y="504"/>
      <point x="286" y="395"/>
      <point x="329" y="287"/>
      <point x="370" y="195"/>
      <point x="388" y="168" type="qcurve"/>
      <point x="394" y="181" type="line" name="hr01"/>
      <point x="396" y="187"/>
      <point x="402" y="199"/>
      <point x="405" y="205" type="qcurve"/>
      <point x="424" y="247"/>
      <point x="467" y="343"/>
      <point x="509" y="439"/>
      <point x="545" y="526"/>
    </contour>
  </outline>
</glyph>
<glyph name="N" format="1">
  <advance width="562"/>
  <unicode hex="004E"/>
  <outline>
    <contour>
      <point x="433" y="0" type="line"/>
      <point x="430" y="1" type="line"/>
      <point x="417" y="34"/>
      <point x="331" y="169"/>
      <point x="246" y="298" type="curve"/>
      <point x="207" y="357"/>
      <point x="170" y="415"/>
      <point x="143" y="458" type="curve"/>
      <point x="143" y="121" type="line" smooth="yes"/>
      <point x="143" y="80"/>
      <point x="143" y="37"/>
      <point x="144" y="2" type="curve"/>
      <point x="79" y="2" type="line"/>
      <point x="84" y="35"/>
      <point x="89" y="412"/>
      <point x="89" y="462" type="curve" smooth="yes"/>
      <point x="89" y="503"/>
      <point x="89" y="549"/>
      <point x="78" y="567" type="curve"/>
      <point x="123" y="650" type="line"/>
      <point x="156" y="591"/>
      <point x="200" y="526"/>
      <point x="250" y="453" type="curve"/>
      <point x="259" y="440" type="line"/>
      <point x="319" y="351"/>
      <point x="387" y="249"/>
      <point x="439" y="164" type="curve"/>
      <point x="442" y="285"/>
      <point x="444" y="432"/>
      <point x="444" y="462" type="curve" smooth="yes"/>
      <point x="444" y="503"/>
      <point x="444" y="549"/>
      <point x="434" y="567" type="curve"/>
      <point x="484" y="648" type="line"/>
      <point x="504" y="648"/>
      <point x="506" y="607"/>
      <point x="506" y="544" type="curve"/>
      <point x="506" y="480" type="line"/>
      <point x="506" y="308"/>
      <point x="503" y="155"/>
      <point x="503" y="2" type="curve"/>
    </contour>
    <contour>
      <point x="285" y="625" type="move" name="top"/>
    </contour>
    <contour>
      <point x="216" y="11" type="move" name="bottom"/>
    </contour>
  </outline>
</glyph>
<glyph name="Q" format="1">
  <advance width="568"/>
  <unicode hex="0051"/>
  <outline>
    <contour>
      <point x="65" y="392" type="curve" smooth="yes"/>
      <point x="123" y="589"/>
      <point x="287" y="657"/>
      <point x="373" y="657" type="curve"/>
      <point x="501" y="657"/>
      <point x="545" y="503"/>
      <point x="545" y="375" type="curve" smooth="yes"/>
      <point x="545" y="332"/>
      <point x="541" y="292"/>
      <point x="533" y="261" type="curve" smooth="yes"/>
      <point x="495" y="112"/>
      <point x="393" y="39"/>
      <point x="306" y="11" type="curve"/>
      <point x="373" y="-36"/>
      <point x="525" y="-104"/>
      <point x="655" y="-104" type="curve" smooth="yes"/>
      <point x="694" y="-104"/>
      <point x="731" y="-98"/>
      <point x="763" y="-84" type="curve"/>
      <point x="773" y="-126" type="line"/>
      <point x="715" y="-166"/>
      <point x="657" y="-182"/>
      <point x="599" y="-182" type="curve" smooth="yes"/>
      <point x="460" y="-182"/>
      <point x="326" y="-88"/>
      <point x="220" y="-14" type="curve"/>
      <point x="200" y="0" type="line"/>
      <point x="92" y="22"/>
      <point x="50" y="158"/>
      <point x="50" y="277" type="curve" smooth="yes"/>
      <point x="50" y="320"/>
      <point x="56" y="361"/>
    </contour>
    <contour>
      <point x="258" y="576" type="curve"/>
      <point x="214" y="574"/>
      <point x="139" y="552"/>
      <point x="139" y="348" type="curve"/>
      <point x="139" y="330" type="line"/>
      <point x="139" y="161"/>
      <point x="237" y="75"/>
      <point x="314" y="75" type="curve" smooth="yes"/>
      <point x="406" y="75"/>
      <point x="451" y="109"/>
      <point x="457" y="335" type="curve"/>
      <point x="457" y="345" type="line"/>
      <point x="455" y="549"/>
      <point x="339" y="577"/>
      <point x="276" y="577" type="curve" smooth="yes"/>
      <point x="269" y="577"/>
      <point x="264" y="577"/>
    </contour>
  </outline>
</glyph>
<glyph name="S" format="1">
  <advance width="523"/>
  <unicode hex="0053"/>
  <outline>
    <contour>
      <point x="410" y="477" type="line"/>
      <point x="408" y="509"/>
      <point x="378" y="553"/>
      <point x="332" y="579"/>
      <point x="278" y="590"/>
      <point x="253" y="590" type="qcurve"/>
      <point x="236" y="590"/>
      <point x="194" y="571"/>
      <point x="181" y="563" type="qcurve"/>
      <point x="171" y="542"/>
      <point x="162" y="524"/>
      <point x="161" y="510" type="qcurve"/>
      <point x="161" y="501" type="line"/>
      <point x="161" y="470"/>
      <point x="208" y="432"/>
      <point x="279" y="403"/>
      <point x="362" y="376"/>
      <point x="433" y="334"/>
      <point x="480" y="271"/>
      <point x="481" y="220" type="qcurve"/>
      <point x="481" y="207"/>
      <point x="477" y="179"/>
      <point x="474" y="164" type="qcurve"/>
      <point x="468" y="140"/>
      <point x="413" y="82"/>
      <point x="343" y="31"/>
      <point x="272" y="-4"/>
      <point x="251" y="-4" type="qcurve"/>
      <point x="200" y="-4"/>
      <point x="122" y="32"/>
      <point x="80" y="74" type="qcurve"/>
      <point x="76" y="75"/>
      <point x="73" y="95"/>
      <point x="72" y="108" type="qcurve"/>
      <point x="71" y="122"/>
      <point x="71" y="141" type="qcurve"/>
      <point x="71" y="163"/>
      <point x="75" y="198"/>
      <point x="80" y="200" type="qcurve"/>
      <point x="123" y="216" type="line" name="hr01"/>
      <point x="123" y="207" type="line"/>
      <point x="123" y="171"/>
      <point x="152" y="117"/>
      <point x="200" y="80"/>
      <point x="261" y="62"/>
      <point x="293" y="62" type="qcurve"/>
      <point x="313" y="62"/>
      <point x="354" y="81"/>
      <point x="369" y="89" type="qcurve"/>
      <point x="378" y="104"/>
      <point x="383" y="125"/>
      <point x="385" y="139" type="qcurve"/>
      <point x="386" y="144"/>
      <point x="386" y="155"/>
      <point x="386" y="160" type="qcurve"/>
      <point x="386" y="209"/>
      <point x="342" y="265"/>
      <point x="276" y="299"/>
      <point x="199" y="323"/>
      <point x="132" y="361"/>
      <point x="86" y="422"/>
      <point x="85" y="476" type="qcurve" name="hr02"/>
      <point x="87" y="502" type="line"/>
      <point x="94" y="527"/>
      <point x="141" y="582"/>
      <point x="201" y="628"/>
      <point x="260" y="658"/>
      <point x="279" y="658" type="qcurve"/>
      <point x="310" y="658"/>
      <point x="365" y="647"/>
      <point x="406" y="633"/>
      <point x="430" y="620"/>
      <point x="430" y="617" type="qcurve"/>
      <point x="434" y="603"/>
      <point x="445" y="567"/>
      <point x="455" y="529"/>
      <point x="464" y="493"/>
      <point x="466" y="479" type="qcurve"/>
    </contour>
  </outline>
</glyph>
<glyph name="T" format="1">
  <advance width="440"/>
  <unicode hex="0054"/>
  <outline>
    <contour>
      <point x="361" y="648" type="line" name="hr00"/>
      <point x="424" y="648"/>
      <point x="484" y="639"/>
      <point x="484" y="620" type="qcurve"/>
      <point x="430" y="572" type="line"/>
      <point x="419" y="575"/>
      <point x="388" y="578"/>
      <point x="353" y="580"/>
      <point x="318" y="581"/>
      <point x="303" y="581" type="qcurve"/>
      <point x="274" y="581" type="line"/>
      <point x="276" y="541"/>
      <point x="276" y="428"/>
      <point x="276" y="358" type="qcurve"/>
      <point x="276" y="2" type="line"/>
      <point x="180" y="2" type="line"/>
      <point x="181" y="35"/>
      <point x="185" y="146"/>
      <point x="189" y="276"/>
      <point x="191" y="413"/>
      <point x="191" y="470" type="qcurve"/>
      <point x="191" y="508"/>
      <point x="190" y="561"/>
      <point x="189" y="581" type="qcurve"/>
      <point x="130" y="581" type="line"/>
      <point x="102" y="581"/>
      <point x="47" y="578"/>
      <point x="25" y="572" type="qcurve"/>
      <point x="-32" y="620" type="line"/>
      <point x="-32" y="639"/>
      <point x="29" y="648"/>
      <point x="92" y="648" type="qcurve"/>
    </contour>
  </outline>
</glyph>
<glyph name="U" format="1">
  <advance width="551"/>
  <unicode hex="0055"/>
  <outline>
    <contour>
      <point x="400" y="162" type="line" name="hr00"/>
      <point x="400" y="181"/>
      <point x="400" y="241"/>
      <point x="401" y="312"/>
      <point x="401" y="386"/>
      <point x="401" y="421" type="qcurve"/>
      <point x="401" y="468"/>
      <point x="401" y="570"/>
      <point x="399" y="626" type="qcurve"/>
      <point x="483" y="644" type="line"/>
      <point x="481" y="629"/>
      <point x="480" y="575"/>
      <point x="479" y="510"/>
      <point x="479" y="439"/>
      <point x="479" y="405" type="qcurve"/>
      <point x="479" y="312" type="line"/>
      <point x="479" y="270"/>
      <point x="473" y="211"/>
      <point x="463" y="169"/>
      <point x="452" y="142"/>
      <point x="447" y="133" type="qcurve"/>
      <point x="443" y="125"/>
      <point x="427" y="104"/>
      <point x="409" y="83"/>
      <point x="390" y="64"/>
      <point x="384" y="58" type="qcurve"/>
      <point x="367" y="42"/>
      <point x="327" y="20"/>
      <point x="288" y="5"/>
      <point x="254" y="-2"/>
      <point x="244" y="-2" type="qcurve"/>
      <point x="223" y="-2"/>
      <point x="168" y="30"/>
      <point x="119" y="73"/>
      <point x="84" y="115"/>
      <point x="84" y="125" type="qcurve"/>
      <point x="79" y="131"/>
      <point x="73" y="168"/>
      <point x="70" y="222"/>
      <point x="70" y="287"/>
      <point x="70" y="320" type="qcurve"/>
      <point x="70" y="418" type="line"/>
      <point x="70" y="442"/>
      <point x="70" y="508"/>
      <point x="70" y="570"/>
      <point x="69" y="619"/>
      <point x="68" y="626" type="qcurve"/>
      <point x="162" y="635" type="line"/>
      <point x="160" y="615"/>
      <point x="158" y="551"/>
      <point x="158" y="516" type="qcurve"/>
      <point x="158" y="481"/>
      <point x="159" y="416"/>
      <point x="159" y="395" type="qcurve"/>
      <point x="159" y="328" type="line"/>
      <point x="159" y="284"/>
      <point x="166" y="203"/>
      <point x="192" y="140"/>
      <point x="245" y="100"/>
      <point x="292" y="97" type="qcurve"/>
      <point x="315" y="97" type="line"/>
      <point x="337" y="97"/>
      <point x="388" y="106"/>
      <point x="400" y="123" type="qcurve"/>
    </contour>
  </outline>
</glyph>
<glyph name="V" format="1">
  <advance width="510"/>
  <unicode hex="0056"/>
  <outline>
    <contour>
      <point x="262" y="-1" type="line" name="hr00"/>
      <point x="240" y="57"/>
      <point x="177" y="212"/>
      <point x="108" y="372"/>
      <point x="39" y="519"/>
      <point x="11" y="569" type="qcurve"/>
      <point x="66" y="648" type="line"/>
      <point x="69" y="651"/>
      <point x="73" y="651" type="qcurve"/>
      <point x="86" y="651"/>
      <point x="123" y="571"/>
      <point x="175" y="439"/>
      <point x="244" y="270"/>
      <point x="289" y="181" type="qcurve"/>
      <point x="307" y="235"/>
      <point x="346" y="350"/>
      <point x="385" y="468"/>
      <point x="420" y="587"/>
      <point x="434" y="645" type="qcurve"/>
      <point x="488" y="649" type="line"/>
      <point x="502" y="643"/>
      <point x="502" y="622" type="qcurve"/>
      <point x="502" y="618" type="line"/>
      <point x="501" y="598"/>
      <point x="475" y="522"/>
      <point x="430" y="400"/>
      <point x="367" y="229"/>
      <point x="330" y="114" type="qcurve"/>
      <point x="332" y="109"/>
      <point x="334" y="101"/>
      <point x="336" y="96" type="qcurve"/>
    </contour>
  </outline>
</glyph>
<glyph name="W" format="1">
  <advance width="815"/>
  <unicode hex="0057"/>
  <outline>
    <contour>
      <point x="562" y="-1" type="line"/>
      <point x="526" y="92"/>
      <point x="470" y="231"/>
      <point x="414" y="357" type="curve"/>
      <point x="390" y="290"/>
      <point x="362" y="210"/>
      <point x="330" y="114" type="curve"/>
      <point x="332" y="107"/>
      <point x="333" y="103"/>
      <point x="336" y="96" type="curve"/>
      <point x="262" y="-1" type="line"/>
      <point x="203" y="153"/>
      <point x="86" y="436"/>
      <point x="11" y="569" type="curve"/>
      <point x="66" y="648" type="line" smooth="yes"/>
      <point x="68" y="650"/>
      <point x="71" y="651"/>
      <point x="73" y="651" type="curve" smooth="yes"/>
      <point x="109" y="651"/>
      <point x="168" y="418"/>
      <point x="289" y="181" type="curve"/>
      <point x="315" y="262"/>
      <point x="347" y="351"/>
      <point x="376" y="440" type="curve"/>
      <point x="352" y="490"/>
      <point x="330" y="534"/>
      <point x="311" y="569" type="curve"/>
      <point x="366" y="648" type="line" smooth="yes"/>
      <point x="368" y="650"/>
      <point x="371" y="651"/>
      <point x="373" y="651" type="curve" smooth="yes"/>
      <point x="409" y="651"/>
      <point x="458" y="418"/>
      <point x="579" y="181" type="curve"/>
      <point x="626" y="324"/>
      <point x="688" y="491"/>
      <point x="724" y="645" type="curve"/>
      <point x="788" y="649" type="line"/>
      <point x="797" y="645"/>
      <point x="802" y="637"/>
      <point x="802" y="622" type="curve" smooth="yes"/>
      <point x="802" y="618" type="line" smooth="yes"/>
      <point x="800" y="565"/>
      <point x="730" y="420"/>
      <point x="630" y="114" type="curve"/>
      <point x="632" y="107"/>
      <point x="633" y="103"/>
      <point x="636" y="96" type="curve"/>
    </contour>
    <contour>
      <point x="372" y="604" type="move" name="top"/>
    </contour>
  </outline>
</glyph>
<glyph name="X" format="1">
  <advance width="481"/>
  <unicode hex="0058"/>
  <outline>
    <contour>
      <point x="373" y="6" type="line" name="hr00"/>
      <point x="347" y="45"/>
      <point x="276" y="164"/>
      <point x="236" y="232" type="qcurve"/>
      <point x="232" y="238"/>
      <point x="230" y="254"/>
      <point x="225" y="264" type="qcurve"/>
      <point x="198" y="220" type="line"/>
      <point x="184" y="198"/>
      <point x="148" y="134"/>
      <point x="115" y="68"/>
      <point x="92" y="13"/>
      <point x="92" y="0" type="qcurve"/>
      <point x="5" y="0" type="line"/>
      <point x="6" y="20"/>
      <point x="38" y="87"/>
      <point x="89" y="173"/>
      <point x="153" y="274"/>
      <point x="186" y="328" type="qcurve"/>
      <point x="171" y="339" type="line"/>
      <point x="129" y="408"/>
      <point x="52" y="528"/>
      <point x="21" y="569" type="qcurve"/>
      <point x="81" y="648" type="line"/>
      <point x="85" y="650"/>
      <point x="88" y="650" type="qcurve"/>
      <point x="93" y="650"/>
      <point x="124" y="610"/>
      <point x="169" y="543"/>
      <point x="225" y="453"/>
      <point x="255" y="404" type="qcurve"/>
      <point x="272" y="432"/>
      <point x="308" y="496"/>
      <point x="339" y="559"/>
      <point x="361" y="618"/>
      <point x="366" y="641" type="qcurve"/>
      <point x="435" y="647" type="line"/>
      <point x="442" y="641"/>
      <point x="450" y="630"/>
      <point x="451" y="622" type="qcurve"/>
      <point x="451" y="611"/>
      <point x="427" y="559"/>
      <point x="385" y="484"/>
      <point x="328" y="390"/>
      <point x="295" y="338" type="qcurve"/>
      <point x="332" y="276"/>
      <point x="401" y="157"/>
      <point x="455" y="63"/>
      <point x="487" y="6"/>
      <point x="486" y="6" type="qcurve"/>
    </contour>
  </outline>
</glyph>
<glyph name="Y" format="1">
  <advance width="475"/>
  <unicode hex="0059"/>
  <outline>
    <contour>
      <point x="375" y="495" type="line"/>
      <point x="395" y="532"/>
      <point x="427" y="606"/>
      <point x="427" y="635" type="curve" smooth="yes"/>
      <point x="427" y="638"/>
      <point x="427" y="640"/>
      <point x="426" y="642" type="curve"/>
      <point x="480" y="647" type="line"/>
      <point x="488" y="645"/>
      <point x="492" y="639"/>
      <point x="492" y="629" type="curve" smooth="yes"/>
      <point x="492" y="591"/>
      <point x="405" y="430"/>
      <point x="326" y="260" type="curve"/>
      <point x="326" y="228" type="line" smooth="yes"/>
      <point x="326" y="189"/>
      <point x="325" y="149"/>
      <point x="325" y="112" type="curve" smooth="yes"/>
      <point x="325" y="75"/>
      <point x="325" y="34"/>
      <point x="326" y="2" type="curve"/>
      <point x="229" y="2" type="line"/>
      <point x="233" y="89"/>
      <point x="240" y="183"/>
      <point x="240" y="269" type="curve" smooth="yes"/>
      <point x="200" y="361"/>
      <point x="62" y="586"/>
      <point x="33" y="593" type="curve"/>
      <point x="96" y="645" type="line"/>
      <point x="100" y="646"/>
      <point x="102" y="647"/>
      <point x="105" y="647" type="curve" smooth="yes"/>
      <point x="142" y="647"/>
      <point x="170" y="566"/>
      <point x="278" y="382" type="curve" smooth="yes"/>
      <point x="300" y="345" type="line"/>
    </contour>
    <contour>
      <point x="271" y="619" type="move" name="top"/>
    </contour>
  </outline>
</glyph>
<glyph name="Z" format="1">
  <advance width="438"/>
  <unicode hex="005A"/>
  <outline>
    <contour>
      <point x="297" y="561" type="line"/>
      <point x="275" y="569"/>
      <point x="258" y="571"/>
      <point x="244" y="571" type="curve" smooth="yes"/>
      <point x="161" y="568"/>
      <point x="142" y="509"/>
      <point x="134" y="482" type="curve" smooth="yes"/>
      <point x="134" y="480"/>
      <point x="133" y="479"/>
      <point x="133" y="478" type="curve"/>
      <point x="167" y="437" type="line"/>
      <point x="147" y="401" type="line"/>
      <point x="108" y="446"/>
      <point x="54" y="503"/>
      <point x="54" y="534" type="curve" smooth="yes"/>
      <point x="54" y="537"/>
      <point x="56" y="539"/>
      <point x="56" y="544" type="curve"/>
      <point x="68" y="598"/>
      <point x="128" y="649"/>
      <point x="186" y="649" type="curve" smooth="yes"/>
      <point x="212" y="649"/>
      <point x="264" y="637"/>
      <point x="295" y="623" type="curve"/>
      <point x="338" y="608"/>
      <point x="370" y="601"/>
      <point x="398" y="601" type="curve" smooth="yes"/>
      <point x="407" y="601"/>
      <point x="416" y="602"/>
      <point x="423" y="604" type="curve" smooth="yes"/>
      <point x="436" y="605"/>
      <point x="466" y="608"/>
      <point x="476" y="612" type="curve"/>
      <point x="437" y="549" type="line"/>
      <point x="405" y="467"/>
      <point x="276" y="268"/>
      <point x="170" y="58" type="curve"/>
      <point x="251" y="64"/>
      <point x="432" y="82"/>
      <point x="455" y="84" type="curve"/>
      <point x="445" y="0" type="line"/>
      <point x="415" y="1"/>
      <point x="385" y="1"/>
      <point x="356" y="1" type="curve" smooth="yes"/>
      <point x="280" y="1"/>
      <point x="208" y="0"/>
      <point x="151" y="0" type="curve"/>
      <point x="96" y="0" type="line"/>
      <point x="53" y="0"/>
      <point x="27" y="1"/>
      <point x="27" y="13" type="curve"/>
      <point x="83" y="60"/>
      <point x="265" y="422"/>
      <point x="346" y="556" type="curve"/>
    </contour>
    <contour>
      <point x="248" y="587" type="move" name="top"/>
    </contour>
  </outline>
</glyph>
<glyph name="bracketleft" format="1">
  <advance width="254"/>
  <unicode hex="005B"/>
  <outline>
    <contour>
      <point x="45" y="663" type="line"/>
      <point x="128" y="664"/>
      <point x="158" y="664"/>
      <point x="161" y="664" type="curve"/>
      <point x="244" y="664"/>
      <point x="284" y="661"/>
      <point x="284" y="636" type="curve"/>
      <point x="242" y="608" type="line"/>
      <point x="218" y="621"/>
      <point x="177" y="621"/>
      <point x="146" y="621" type="curve" smooth="yes"/>
      <point x="140" y="621" type="line"/>
      <point x="147" y="563"/>
      <point x="148" y="456"/>
      <point x="148" y="334" type="curve" smooth="yes"/>
      <point x="148" y="205"/>
      <point x="146" y="61"/>
      <point x="146" y="-54" type="curve" smooth="yes"/>
      <point x="146" y="-83"/>
      <point x="147" y="-111"/>
      <point x="147" y="-135" type="curve"/>
      <point x="178" y="-135"/>
      <point x="218" y="-135"/>
      <point x="242" y="-122" type="curve"/>
      <point x="284" y="-151" type="line"/>
      <point x="284" y="-175"/>
      <point x="244" y="-179"/>
      <point x="161" y="-179" type="curve"/>
      <point x="45" y="-179" type="line"/>
      <point x="66" y="-149" type="line"/>
      <point x="71" y="-48"/>
      <point x="78" y="434"/>
      <point x="78" y="481" type="curve" smooth="yes"/>
      <point x="78" y="521"/>
      <point x="75" y="614"/>
      <point x="65" y="633" type="curve"/>
    </contour>
  </outline>
</glyph>
<glyph name="backslash" format="1">
  <advance width="394"/>
  <unicode hex="005C"/>
  <outline>
    <contour>
      <point x="369" y="-2" type="line" name="hr00"/>
      <point x="270" y="197" type="line"/>
      <point x="258" y="220"/>
      <point x="232" y="267"/>
      <point x="220" y="292" type="qcurve"/>
      <point x="163" y="404" type="line"/>
      <point x="128" y="474"/>
      <point x="75" y="590"/>
      <point x="67" y="625" type="qcurve"/>
      <point x="64" y="637"/>
      <point x="64" y="645" type="qcurve"/>
      <point x="64" y="659"/>
      <point x="72" y="662" type="qcurve"/>
      <point x="153" y="602" type="line"/>
      <point x="153" y="600"/>
      <point x="153" y="593"/>
      <point x="155" y="589" type="qcurve"/>
      <point x="158" y="574"/>
      <point x="178" y="531"/>
      <point x="189" y="510" type="qcurve"/>
      <point x="198" y="490" type="line"/>
      <point x="209" y="468"/>
      <point x="254" y="380"/>
      <point x="309" y="274"/>
      <point x="367" y="161"/>
      <point x="417" y="65"/>
      <point x="453" y="-2"/>
      <point x="458" y="-9" type="qcurve"/>
    </contour>
  </outline>
</glyph>
<glyph name="bracketright" format="1">
  <advance width="230"/>
  <unicode hex="005D"/>
  <outline>
    <contour>
      <point x="163" y="634" type="line"/>
      <point x="166" y="633" type="line" name="hr01"/>
      <point x="162" y="626"/>
      <point x="157" y="588"/>
      <point x="154" y="542"/>
      <point x="153" y="496"/>
      <point x="153" y="481" type="qcurve"/>
      <point x="153" y="469"/>
      <point x="154" y="381"/>
      <point x="156" y="258"/>
      <point x="158" y="115"/>
      <point x="160" y="-17"/>
      <point x="163" y="-124"/>
      <point x="164" y="-149" type="qcurve"/>
      <point x="185" y="-179" type="line"/>
      <point x="70" y="-179" type="line"/>
      <point x="7" y="-179"/>
      <point x="-53" y="-169"/>
      <point x="-53" y="-151" type="qcurve"/>
      <point x="-11" y="-122" type="line"/>
      <point x="6" y="-132"/>
      <point x="60" y="-135"/>
      <point x="84" y="-135" type="qcurve"/>
      <point x="84" y="-79" type="line"/>
      <point x="84" y="-34"/>
      <point x="83" y="68"/>
      <point x="83" y="175"/>
      <point x="82" y="283"/>
      <point x="82" y="335" type="qcurve"/>
      <point x="82" y="426"/>
      <point x="85" y="577"/>
      <point x="89" y="621" type="qcurve"/>
      <point x="84" y="621" type="line"/>
      <point x="61" y="621"/>
      <point x="6" y="618"/>
      <point x="-11" y="608" type="qcurve"/>
      <point x="-53" y="636" type="line"/>
      <point x="-53" y="655"/>
      <point x="7" y="664"/>
      <point x="70" y="664" type="qcurve" name="hr02"/>
      <point x="97" y="664"/>
      <point x="153" y="663"/>
      <point x="185" y="663" type="qcurve"/>
    </contour>
  </outline>
</glyph>
<glyph name="asciicircum" format="1">
  <advance width="683"/>
  <unicode hex="005E"/>
  <outline>
    <contour>
      <point x="286" y="635" type="line" name="hr00"/>
      <point x="292" y="617"/>
      <point x="318" y="560"/>
      <point x="350" y="491"/>
      <point x="383" y="418"/>
      <point x="410" y="350"/>
      <point x="428" y="295"/>
      <point x="428" y="279" type="qcurve"/>
      <point x="428" y="265"/>
      <point x="421" y="262" type="qcurve"/>
      <point x="417" y="261" type="line"/>
      <point x="349" y="333" type="line"/>
      <point x="350" y="337"/>
      <point x="353" y="344"/>
      <point x="353" y="347" type="qcurve"/>
      <point x="353" y="356"/>
      <point x="344" y="373"/>
      <point x="341" y="381" type="qcurve"/>
      <point x="335" y="394"/>
      <point x="313" y="435"/>
      <point x="285" y="485"/>
      <point x="254" y="541"/>
      <point x="239" y="571" type="qcurve"/>
      <point x="224" y="541"/>
      <point x="193" y="485"/>
      <point x="165" y="435"/>
      <point x="143" y="394"/>
      <point x="137" y="381" type="qcurve"/>
      <point x="134" y="376" type="line"/>
      <point x="129" y="362"/>
      <point x="125" y="351"/>
      <point x="125" y="348" type="qcurve"/>
      <point x="125" y="343"/>
      <point x="128" y="336"/>
      <point x="129" y="333" type="qcurve"/>
      <point x="61" y="261" type="line"/>
      <point x="57" y="262" type="line"/>
      <point x="50" y="265"/>
      <point x="50" y="280" type="qcurve"/>
      <point x="50" y="296"/>
      <point x="68" y="351"/>
      <point x="95" y="418"/>
      <point x="128" y="491"/>
      <point x="159" y="559"/>
      <point x="185" y="616"/>
      <point x="191" y="634" type="qcurve"/>
      <point x="191" y="634"/>
      <point x="193" y="635"/>
      <point x="202" y="635"/>
      <point x="221" y="635"/>
      <point x="239" y="635" type="qcurve"/>
    </contour>
  </outline>
</glyph>
<glyph name="underscore" format="1">
  <advance width="453"/>
  <unicode hex="005F"/>
  <outline>
    <contour>
      <point x="12" y="-27" type="line"/>
      <point x="90" y="-27" type="line" smooth="yes"/>
      <point x="126" y="-27"/>
      <point x="189" y="-25"/>
      <point x="226" y="-25" type="curve"/>
      <point x="452" y="-25" type="line"/>
      <point x="423" y="-78" type="line"/>
      <point x="412" y="-78" type="line"/>
      <point x="397" y="-78"/>
      <point x="389" y="-75"/>
      <point x="371" y="-75" type="curve" smooth="yes"/>
      <point x="321" y="-76"/>
      <point x="39" y="-80"/>
      <point x="1" y="-84" type="curve"/>
    </contour>
  </outline>
</glyph>
<glyph name="grave" format="1">
  <advance width="328"/>
  <unicode hex="0060"/>
  <outline>
    <contour>
      <point x="148" y="694" type="line" name="hr00"/>
      <point x="158" y="683"/>
      <point x="176" y="668"/>
      <point x="193" y="654" type="qcurve"/>
      <point x="207" y="643"/>
      <point x="234" y="625"/>
      <point x="243" y="623" type="qcurve"/>
      <point x="246" y="559" type="line"/>
      <point x="243" y="554"/>
      <point x="238" y="554" type="qcurve"/>
      <point x="233" y="554"/>
      <point x="218" y="564"/>
      <point x="190" y="587"/>
      <point x="147" y="622"/>
      <point x="115" y="648" type="qcurve"/>
    </contour>
  </outline>
</glyph>
<glyph name="a" format="1">
  <advance width="390"/>
  <unicode hex="0061"/>
  <outline>
    <contour>
      <point x="129" y="4" type="qcurve" name="hr00"/>
      <point x="113" y="6"/>
      <point x="77" y="29"/>
      <point x="45" y="64"/>
      <point x="22" y="104"/>
      <point x="21" y="122" type="qcurve"/>
      <point x="23" y="124"/>
      <point x="40" y="167"/>
      <point x="78" y="217"/>
      <point x="142" y="258"/>
      <point x="191" y="258" type="qcurve"/>
      <point x="198" y="258"/>
      <point x="209" y="258"/>
      <point x="217" y="257" type="qcurve"/>
      <point x="217" y="269" type="line"/>
      <point x="217" y="340"/>
      <point x="178" y="396"/>
      <point x="143" y="396" type="qcurve"/>
      <point x="127" y="396"/>
      <point x="97" y="388"/>
      <point x="86" y="384" type="qcurve"/>
      <point x="72" y="381" type="line"/>
      <point x="65" y="394" type="line"/>
      <point x="78" y="409"/>
      <point x="107" y="439"/>
      <point x="136" y="463"/>
      <point x="160" y="479"/>
      <point x="169" y="479" type="qcurve"/>
      <point x="183" y="477"/>
      <point x="225" y="454"/>
      <point x="266" y="420"/>
      <point x="300" y="379"/>
      <point x="305" y="361" type="qcurve"/>
      <point x="306" y="358"/>
      <point x="306" y="347" type="qcurve"/>
      <point x="306" y="330"/>
      <point x="301" y="280"/>
      <point x="301" y="260" type="qcurve"/>
      <point x="300" y="252"/>
      <point x="300" y="237"/>
      <point x="300" y="229" type="qcurve"/>
      <point x="300" y="174"/>
      <point x="317" y="114"/>
      <point x="338" y="84"/>
      <point x="354" y="74"/>
      <point x="354" y="68" type="qcurve"/>
      <point x="349" y="55"/>
      <point x="340" y="43" type="qcurve"/>
      <point x="332" y="32"/>
      <point x="307" y="6"/>
      <point x="289" y="-6" type="qcurve"/>
      <point x="261" y="8"/>
      <point x="235" y="62"/>
      <point x="226" y="91" type="qcurve"/>
      <point x="212" y="74"/>
      <point x="183" y="43"/>
      <point x="157" y="19"/>
      <point x="135" y="4"/>
    </contour>
    <contour>
      <point x="216" y="115" type="qcurve"/>
      <point x="217" y="115"/>
      <point x="220" y="152"/>
      <point x="220" y="176" type="qcurve"/>
      <point x="220" y="201"/>
      <point x="217" y="213" type="qcurve"/>
      <point x="206" y="214"/>
      <point x="188" y="216"/>
      <point x="179" y="216" type="qcurve"/>
      <point x="158" y="216"/>
      <point x="129" y="209"/>
      <point x="121" y="204" type="qcurve"/>
      <point x="111" y="199"/>
      <point x="106" y="192" type="qcurve"/>
      <point x="106" y="177"/>
      <point x="117" y="146"/>
      <point x="138" y="121"/>
      <point x="165" y="105"/>
      <point x="182" y="105" type="qcurve"/>
      <point x="190" y="105"/>
      <point x="206" y="110"/>
    </contour>
  </outline>
</glyph>
<glyph name="b" format="1">
  <advance width="403"/>
  <unicode hex="0062"/>
  <outline>
    <contour>
      <point x="35" y="0" type="line"/>
      <point x="36" y="10"/>
      <point x="39" y="83"/>
      <point x="42" y="183"/>
      <point x="44" y="297"/>
      <point x="45" y="400"/>
      <point x="46" y="480"/>
      <point x="46" y="496" type="qcurve"/>
      <point x="46" y="515"/>
      <point x="46" y="555"/>
      <point x="44" y="591"/>
      <point x="39" y="620"/>
      <point x="35" y="629" type="qcurve"/>
      <point x="103" y="723" type="line"/>
      <point x="114" y="723"/>
      <point x="120" y="665"/>
      <point x="120" y="606" type="qcurve"/>
      <point x="120" y="562"/>
      <point x="118" y="443"/>
      <point x="118" y="368" type="qcurve"/>
      <point x="131" y="386"/>
      <point x="167" y="422"/>
      <point x="201" y="451"/>
      <point x="230" y="469"/>
      <point x="236" y="469" type="qcurve"/>
      <point x="270" y="469"/>
      <point x="320" y="427"/>
      <point x="352" y="362"/>
      <point x="367" y="286"/>
      <point x="367" y="252" type="qcurve"/>
      <point x="367" y="220"/>
      <point x="361" y="196" type="qcurve"/>
      <point x="357" y="179"/>
      <point x="319" y="112"/>
      <point x="270" y="46"/>
      <point x="219" y="-4"/>
      <point x="203" y="-4" type="qcurve"/>
      <point x="202" y="-4"/>
      <point x="201" y="-2"/>
      <point x="199" y="-2" type="qcurve" name="hr01"/>
      <point x="181" y="1"/>
      <point x="130" y="36"/>
      <point x="107" y="57" type="qcurve" name="hr02"/>
      <point x="83" y="2" type="line"/>
    </contour>
    <contour>
      <point x="157" y="351" type="qcurve"/>
      <point x="147" y="344"/>
      <point x="121" y="328"/>
      <point x="118" y="320" type="qcurve"/>
      <point x="118" y="201" type="line"/>
      <point x="125" y="178"/>
      <point x="150" y="140"/>
      <point x="183" y="112"/>
      <point x="221" y="97"/>
      <point x="239" y="97" type="qcurve"/>
      <point x="261" y="97"/>
      <point x="286" y="114" type="qcurve"/>
      <point x="302" y="146"/>
      <point x="302" y="190" type="qcurve"/>
      <point x="302" y="221"/>
      <point x="285" y="283"/>
      <point x="255" y="333"/>
      <point x="216" y="363"/>
      <point x="194" y="363" type="qcurve"/>
      <point x="185" y="363"/>
      <point x="166" y="356"/>
    </contour>
  </outline>
</glyph>
<glyph name="c" format="1">
  <advance width="376"/>
  <unicode hex="0063"/>
  <outline>
    <contour>
      <point x="326" y="373" type="qcurve" name="hr00"/>
      <point x="325" y="371"/>
      <point x="315" y="352"/>
      <point x="301" y="330"/>
      <point x="285" y="309"/>
      <point x="279" y="305" type="qcurve"/>
      <point x="271" y="318"/>
      <point x="243" y="343"/>
      <point x="209" y="363"/>
      <point x="173" y="376"/>
      <point x="157" y="376" type="qcurve"/>
      <point x="139" y="376"/>
      <point x="109" y="357"/>
      <point x="103" y="332" type="qcurve"/>
      <point x="102" y="318"/>
      <point x="100" y="292"/>
      <point x="100" y="279" type="qcurve"/>
      <point x="100" y="230"/>
      <point x="123" y="160"/>
      <point x="160" y="115"/>
      <point x="207" y="93"/>
      <point x="232" y="93" type="qcurve"/>
      <point x="260" y="93"/>
      <point x="311" y="117"/>
      <point x="330" y="140" type="qcurve"/>
      <point x="351" y="118" type="line"/>
      <point x="337" y="100"/>
      <point x="279" y="58"/>
      <point x="217" y="21"/>
      <point x="164" y="-4"/>
      <point x="157" y="-4" type="qcurve"/>
      <point x="122" y="-4"/>
      <point x="73" y="39"/>
      <point x="40" y="106"/>
      <point x="25" y="185"/>
      <point x="25" y="221" type="qcurve"/>
      <point x="25" y="236"/>
      <point x="29" y="264"/>
      <point x="31" y="277" type="qcurve"/>
      <point x="34" y="289"/>
      <point x="53" y="328"/>
      <point x="81" y="372"/>
      <point x="115" y="417"/>
      <point x="149" y="454"/>
      <point x="180" y="477"/>
      <point x="191" y="477" type="qcurve"/>
      <point x="195" y="477" type="line"/>
      <point x="207" y="475"/>
      <point x="248" y="450"/>
      <point x="290" y="418"/>
      <point x="323" y="385"/>
    </contour>
  </outline>
</glyph>
<glyph name="d" format="1">
  <advance width="403"/>
  <unicode hex="0064"/>
  <outline>
    <contour>
      <point x="288" y="-6" type="line" name="hr01"/>
      <point x="288" y="17"/>
      <point x="272" y="65"/>
      <point x="272" y="91" type="qcurve"/>
      <point x="264" y="82"/>
      <point x="235" y="51"/>
      <point x="201" y="21"/>
      <point x="167" y="-3"/>
      <point x="155" y="-4" type="qcurve"/>
      <point x="121" y="-3"/>
      <point x="72" y="37"/>
      <point x="40" y="99"/>
      <point x="25" y="172"/>
      <point x="25" y="207" type="qcurve"/>
      <point x="25" y="240"/>
      <point x="31" y="267" type="qcurve"/>
      <point x="34" y="285"/>
      <point x="72" y="351"/>
      <point x="121" y="417"/>
      <point x="172" y="466"/>
      <point x="188" y="466" type="qcurve"/>
      <point x="192" y="466" type="line"/>
      <point x="206" y="461"/>
      <point x="252" y="431"/>
      <point x="273" y="414" type="qcurve"/>
      <point x="273" y="431"/>
      <point x="274" y="467"/>
      <point x="274" y="484" type="qcurve"/>
      <point x="274" y="522"/>
      <point x="267" y="592"/>
      <point x="256" y="620" type="qcurve"/>
      <point x="327" y="717" type="line"/>
      <point x="335" y="717"/>
      <point x="344" y="694"/>
      <point x="349" y="639"/>
      <point x="350" y="546"/>
      <point x="350" y="476" type="qcurve"/>
      <point x="350" y="-4" type="line"/>
    </contour>
    <contour>
      <point x="235" y="112" type="qcurve"/>
      <point x="247" y="120"/>
      <point x="271" y="138"/>
      <point x="273" y="149" type="qcurve"/>
      <point x="274" y="169"/>
      <point x="275" y="224"/>
      <point x="275" y="247" type="qcurve"/>
      <point x="269" y="272"/>
      <point x="244" y="315"/>
      <point x="210" y="347"/>
      <point x="170" y="365"/>
      <point x="151" y="365" type="qcurve"/>
      <point x="127" y="365"/>
      <point x="104" y="348" type="qcurve"/>
      <point x="96" y="331"/>
      <point x="89" y="293"/>
      <point x="89" y="273" type="qcurve"/>
      <point x="89" y="241"/>
      <point x="106" y="179"/>
      <point x="134" y="129"/>
      <point x="173" y="99"/>
      <point x="196" y="99" type="qcurve" name="hr02"/>
      <point x="212" y="99"/>
    </contour>
  </outline>
</glyph>
<glyph name="f" format="1">
  <advance width="227"/>
  <unicode hex="0066"/>
  <outline>
    <contour>
      <point x="233" y="544" type="line"/>
      <point x="258" y="564"/>
      <point x="256" y="565"/>
      <point x="260" y="580" type="curve" smooth="yes"/>
      <point x="260" y="581"/>
      <point x="260" y="585"/>
      <point x="259" y="586" type="curve"/>
      <point x="233" y="609"/>
      <point x="188" y="628"/>
      <point x="159" y="628" type="curve" smooth="yes"/>
      <point x="151" y="628"/>
      <point x="146" y="625"/>
      <point x="139" y="624" type="curve"/>
      <point x="127" y="624"/>
      <point x="126" y="591"/>
      <point x="126" y="577" type="curve"/>
      <point x="126" y="572" type="line"/>
      <point x="126" y="528"/>
      <point x="133" y="471"/>
      <point x="133" y="471" type="curve"/>
      <point x="244" y="471" type="line"/>
      <point x="235" y="420" type="line"/>
      <point x="131" y="420" type="line"/>
      <point x="131" y="0" type="line"/>
      <point x="38" y="0" type="line"/>
      <point x="46" y="74"/>
      <point x="48" y="157"/>
      <point x="48" y="229" type="curve" smooth="yes"/>
      <point x="48" y="335"/>
      <point x="43" y="417"/>
      <point x="43" y="417" type="curve"/>
      <point x="-25" y="417" type="line"/>
      <point x="-15" y="471" type="line"/>
      <point x="44" y="471" type="line"/>
      <point x="46" y="530" type="line" smooth="yes"/>
      <point x="47" y="565"/>
      <point x="152" y="717"/>
      <point x="198" y="717" type="curve"/>
      <point x="202" y="717" type="line"/>
      <point x="228" y="716"/>
      <point x="293" y="665"/>
      <point x="322" y="618" type="curve"/>
      <point x="319" y="602"/>
      <point x="295" y="557"/>
      <point x="249" y="519" type="curve"/>
    </contour>
  </outline>
</glyph>
<glyph name="g" format="1">
  <advance width="472"/>
  <unicode hex="0067"/>
  <outline>
    <contour>
      <point x="189" y="124" type="qcurve"/>
      <point x="151" y="124"/>
      <point x="100" y="143"/>
      <point x="84" y="160" type="qcurve"/>
      <point x="82" y="155"/>
      <point x="82" y="145" type="qcurve"/>
      <point x="82" y="110"/>
      <point x="188" y="64"/>
      <point x="284" y="62" type="qcurve"/>
      <point x="294" y="62"/>
      <point x="320" y="59"/>
      <point x="344" y="56"/>
      <point x="364" y="51"/>
      <point x="370" y="50" type="qcurve"/>
      <point x="396" y="43"/>
      <point x="429" y="18"/>
      <point x="447" y="-13"/>
      <point x="453" y="-47"/>
      <point x="453" y="-62" type="qcurve"/>
      <point x="453" y="-71" type="line"/>
      <point x="442" y="-94"/>
      <point x="393" y="-145"/>
      <point x="335" y="-190"/>
      <point x="276" y="-219"/>
      <point x="255" y="-219" type="qcurve"/>
      <point x="226" y="-219"/>
      <point x="147" y="-215"/>
      <point x="77" y="-194"/>
      <point x="28" y="-148"/>
      <point x="28" y="-107" type="qcurve"/>
      <point x="29" y="-95"/>
      <point x="44" y="-67"/>
      <point x="65" y="-38"/>
      <point x="87" y="-14"/>
      <point x="96" y="-7" type="qcurve"/>
      <point x="98" y="-5"/>
      <point x="99" y="-2"/>
      <point x="101" y="-2" type="qcurve"/>
      <point x="85" y="1"/>
      <point x="57" y="23"/>
      <point x="36" y="51"/>
      <point x="22" y="81"/>
      <point x="21" y="94" type="qcurve"/>
      <point x="21" y="99" type="line" name="hr01"/>
      <point x="21" y="118"/>
      <point x="50" y="153"/>
      <point x="72" y="166" type="qcurve"/>
      <point x="57" y="189"/>
      <point x="49" y="246"/>
      <point x="49" y="277" type="qcurve"/>
      <point x="49" y="305" type="line"/>
      <point x="49" y="323"/>
      <point x="92" y="379"/>
      <point x="150" y="432"/>
      <point x="210" y="471"/>
      <point x="229" y="471" type="qcurve"/>
      <point x="275" y="471"/>
      <point x="332" y="444"/>
      <point x="348" y="422" type="qcurve"/>
      <point x="352" y="427"/>
      <point x="358" y="435"/>
      <point x="362" y="437" type="qcurve"/>
      <point x="373" y="442" type="line"/>
      <point x="391" y="447"/>
      <point x="423" y="464"/>
      <point x="443" y="464" type="qcurve" name="hr02"/>
      <point x="459" y="464"/>
      <point x="467" y="456" type="qcurve"/>
      <point x="468" y="454"/>
      <point x="471" y="421"/>
      <point x="471" y="404" type="qcurve"/>
      <point x="471" y="384"/>
      <point x="468" y="374" type="qcurve"/>
      <point x="443" y="385"/>
      <point x="407" y="385" type="qcurve"/>
      <point x="384" y="385"/>
      <point x="367" y="381" type="qcurve"/>
      <point x="373" y="357"/>
      <point x="373" y="330" type="qcurve"/>
      <point x="373" y="318"/>
      <point x="372" y="301"/>
      <point x="370" y="288" type="qcurve"/>
      <point x="370" y="271"/>
      <point x="328" y="216"/>
      <point x="270" y="163"/>
      <point x="208" y="124"/>
    </contour>
    <contour>
      <point x="116" y="-12" type="qcurve"/>
      <point x="101" y="-31"/>
      <point x="101" y="-53" type="qcurve"/>
      <point x="101" y="-73"/>
      <point x="127" y="-107"/>
      <point x="170" y="-133"/>
      <point x="226" y="-147"/>
      <point x="255" y="-147" type="qcurve"/>
      <point x="265" y="-147"/>
      <point x="294" y="-145"/>
      <point x="325" y="-142"/>
      <point x="352" y="-136"/>
      <point x="361" y="-133" type="qcurve"/>
      <point x="382" y="-106"/>
      <point x="382" y="-85" type="qcurve" name="hr03"/>
      <point x="382" y="-65"/>
      <point x="352" y="-34"/>
      <point x="305" y="-13"/>
      <point x="246" y="-2"/>
      <point x="216" y="-2" type="qcurve"/>
      <point x="207" y="-2"/>
      <point x="179" y="-3"/>
      <point x="150" y="-6"/>
      <point x="123" y="-9"/>
    </contour>
    <contour>
      <point x="271" y="193" type="qcurve"/>
      <point x="278" y="210"/>
      <point x="283" y="245"/>
      <point x="283" y="265" type="qcurve"/>
      <point x="283" y="291"/>
      <point x="272" y="342"/>
      <point x="249" y="383"/>
      <point x="215" y="408"/>
      <point x="193" y="408" type="qcurve"/>
      <point x="170" y="408"/>
      <point x="143" y="393" type="qcurve"/>
      <point x="132" y="376"/>
      <point x="123" y="337"/>
      <point x="123" y="319" type="qcurve"/>
      <point x="123" y="293"/>
      <point x="139" y="244"/>
      <point x="167" y="207"/>
      <point x="205" y="184"/>
      <point x="228" y="184" type="qcurve"/>
      <point x="239" y="184"/>
      <point x="260" y="188"/>
    </contour>
  </outline>
</glyph>
<glyph name="h" format="1">
  <advance width="423"/>
  <unicode hex="0068"/>
  <outline>
    <contour>
      <point x="25" y="0" type="line"/>
      <point x="31" y="42"/>
      <point x="36" y="433"/>
      <point x="36" y="496" type="curve" smooth="yes"/>
      <point x="36" y="546"/>
      <point x="36" y="606"/>
      <point x="25" y="629" type="curve"/>
      <point x="93" y="723" type="line"/>
      <point x="113" y="723"/>
      <point x="117" y="673"/>
      <point x="117" y="489" type="curve" smooth="yes"/>
      <point x="117" y="410" type="line"/>
      <point x="149" y="443"/>
      <point x="189" y="472"/>
      <point x="228" y="472" type="curve" smooth="yes"/>
      <point x="273" y="472"/>
      <point x="373" y="404"/>
      <point x="375" y="325" type="curve"/>
      <point x="375" y="325"/>
      <point x="373" y="242"/>
      <point x="373" y="169" type="curve" smooth="yes"/>
      <point x="373" y="126"/>
      <point x="375" y="14"/>
      <point x="375" y="0" type="curve"/>
      <point x="282" y="0" type="line"/>
      <point x="287" y="37"/>
      <point x="291" y="146"/>
      <point x="291" y="186" type="curve" smooth="yes"/>
      <point x="291" y="285"/>
      <point x="270" y="367"/>
      <point x="191" y="381" type="curve"/>
      <point x="170" y="381" type="line" smooth="yes"/>
      <point x="150" y="381"/>
      <point x="132" y="377"/>
      <point x="117" y="370" type="curve"/>
      <point x="117" y="177" type="line" smooth="yes"/>
      <point x="117" y="115"/>
      <point x="117" y="55"/>
      <point x="118" y="2" type="curve"/>
    </contour>
    <contour>
      <point x="182" y="677" type="move" name="top"/>
    </contour>
  </outline>
</glyph>
<glyph name="j" format="1">
  <advance width="260"/>
  <unicode hex="006A"/>
  <outline>
    <contour>
      <point x="-101" y="-117" type="curve"/>
      <point x="-99" y="-111"/>
      <point x="-70" y="-62"/>
      <point x="-53" y="-49" type="curve"/>
      <point x="-34" y="-82"/>
      <point x="22" y="-119"/>
      <point x="63" y="-119" type="curve" smooth="yes"/>
      <point x="70" y="-119"/>
      <point x="75" y="-118"/>
      <point x="81" y="-117" type="curve"/>
      <point x="86" y="3"/>
      <point x="91" y="190"/>
      <point x="91" y="244" type="curve" smooth="yes"/>
      <point x="91" y="295"/>
      <point x="91" y="353"/>
      <point x="80" y="376" type="curve"/>
      <point x="148" y="472" type="line"/>
      <point x="170" y="472"/>
      <point x="175" y="374"/>
      <point x="175" y="239" type="curve" smooth="yes"/>
      <point x="175" y="139"/>
      <point x="172" y="163"/>
      <point x="172" y="47" type="curve" smooth="yes"/>
      <point x="172" y="19"/>
      <point x="173" y="-8"/>
      <point x="173" y="-34" type="curve" smooth="yes"/>
      <point x="173" y="-67"/>
      <point x="70" y="-220"/>
      <point x="25" y="-220" type="curve" smooth="yes"/>
      <point x="23" y="-220"/>
      <point x="23" y="-219"/>
      <point x="20" y="-219" type="curve" smooth="yes"/>
      <point x="-6" y="-214"/>
      <point x="-98" y="-146"/>
    </contour>
    <contour>
      <point x="125" y="703" type="curve" smooth="yes"/>
      <point x="160" y="703"/>
      <point x="169" y="672"/>
      <point x="169" y="650" type="curve" smooth="yes"/>
      <point x="169" y="622"/>
      <point x="148" y="596"/>
      <point x="122" y="596" type="curve" smooth="yes"/>
      <point x="95" y="596"/>
      <point x="77" y="622"/>
      <point x="77" y="650" type="curve" smooth="yes"/>
      <point x="77" y="656"/>
      <point x="77" y="660"/>
      <point x="80" y="663" type="curve"/>
      <point x="84" y="688"/>
      <point x="106" y="703"/>
    </contour>
    <contour>
      <point x="127" y="477" type="move" name="top"/>
    </contour>
  </outline>
</glyph>
<glyph name="k" format="1">
  <advance width="467"/>
  <unicode hex="006B"/>
  <outline>
    <contour>
      <point x="311" y="466" type="curve" smooth="yes"/>
      <point x="326" y="460"/>
      <point x="370" y="366"/>
      <point x="371" y="306" type="curve"/>
      <point x="344" y="303" type="line"/>
      <point x="342" y="325"/>
      <point x="329" y="345"/>
      <point x="314" y="345" type="curve" smooth="yes"/>
      <point x="311" y="345"/>
      <point x="309" y="343"/>
      <point x="306" y="342" type="curve" smooth="yes"/>
      <point x="287" y="336"/>
      <point x="263" y="308"/>
      <point x="238" y="279" type="curve"/>
      <point x="290" y="211" type="line" smooth="yes"/>
      <point x="320" y="172"/>
      <point x="349" y="126"/>
      <point x="373" y="115" type="curve"/>
      <point x="379" y="115" type="line" smooth="yes"/>
      <point x="399" y="115"/>
      <point x="414" y="136"/>
      <point x="418" y="160" type="curve"/>
      <point x="447" y="153" type="line"/>
      <point x="440" y="95"/>
      <point x="392" y="14"/>
      <point x="375" y="-6" type="curve"/>
      <point x="371" y="-9"/>
      <point x="367" y="-10"/>
      <point x="364" y="-10" type="curve" smooth="yes"/>
      <point x="337" y="-10"/>
      <point x="301" y="57"/>
      <point x="187" y="216" type="curve"/>
      <point x="140" y="141" type="line"/>
      <point x="140" y="93"/>
      <point x="140" y="43"/>
      <point x="141" y="2" type="curve"/>
      <point x="48" y="2" type="line"/>
      <point x="54" y="42"/>
      <point x="59" y="433"/>
      <point x="59" y="496" type="curve" smooth="yes"/>
      <point x="59" y="546"/>
      <point x="59" y="606"/>
      <point x="48" y="629" type="curve"/>
      <point x="116" y="723" type="line"/>
      <point x="138" y="723"/>
      <point x="140" y="660"/>
      <point x="140" y="463" type="curve" smooth="yes"/>
      <point x="140" y="278" type="line"/>
      <point x="228" y="386"/>
      <point x="287" y="466"/>
    </contour>
    <contour>
      <point x="205" y="2" type="move" name="bottom"/>
    </contour>
  </outline>
</glyph>
<glyph name="l" format="1">
  <advance width="198"/>
  <unicode hex="006C"/>
  <outline>
    <contour>
      <point x="35" y="0" type="line" name="hr00"/>
      <point x="37" y="10"/>
      <point x="40" y="83"/>
      <point x="43" y="183"/>
      <point x="45" y="297"/>
      <point x="46" y="400"/>
      <point x="47" y="480"/>
      <point x="47" y="496" type="qcurve"/>
      <point x="47" y="515"/>
      <point x="47" y="555"/>
      <point x="44" y="591"/>
      <point x="39" y="620"/>
      <point x="35" y="629" type="qcurve"/>
      <point x="104" y="723" type="line"/>
      <point x="112" y="723"/>
      <point x="122" y="698"/>
      <point x="127" y="638"/>
      <point x="129" y="539"/>
      <point x="129" y="466" type="qcurve"/>
      <point x="129" y="391"/>
      <point x="128" y="232"/>
      <point x="128" y="156" type="qcurve"/>
      <point x="128" y="115"/>
      <point x="128" y="38"/>
      <point x="129" y="2" type="qcurve"/>
    </contour>
  </outline>
</glyph>
<glyph name="m" format="1">
  <advance width="677"/>
  <unicode hex="006D"/>
  <outline>
    <contour>
      <point x="25" y="0" type="line" name="hr00"/>
      <point x="27" y="16"/>
      <point x="31" y="78"/>
      <point x="34" y="150"/>
      <point x="36" y="220"/>
      <point x="36" y="244" type="qcurve"/>
      <point x="36" y="263"/>
      <point x="36" y="303"/>
      <point x="34" y="338"/>
      <point x="29" y="367"/>
      <point x="25" y="376" type="qcurve"/>
      <point x="93" y="472" type="line"/>
      <point x="114" y="472"/>
      <point x="116" y="392" type="qcurve"/>
      <point x="141" y="423"/>
      <point x="195" y="472"/>
      <point x="221" y="472" type="qcurve"/>
      <point x="236" y="472"/>
      <point x="276" y="455"/>
      <point x="315" y="430"/>
      <point x="346" y="402"/>
      <point x="354" y="392" type="qcurve"/>
      <point x="367" y="406"/>
      <point x="396" y="434"/>
      <point x="429" y="457"/>
      <point x="464" y="472"/>
      <point x="482" y="472" type="qcurve"/>
      <point x="498" y="472"/>
      <point x="548" y="448"/>
      <point x="594" y="408"/>
      <point x="628" y="355"/>
      <point x="629" y="325" type="qcurve"/>
      <point x="628" y="300"/>
      <point x="628" y="274" type="qcurve"/>
      <point x="627" y="251"/>
      <point x="627" y="196"/>
      <point x="627" y="169" type="qcurve"/>
      <point x="627" y="153"/>
      <point x="628" y="100"/>
      <point x="628" y="47"/>
      <point x="629" y="5"/>
      <point x="629" y="0" type="qcurve"/>
      <point x="535" y="0" type="line"/>
      <point x="538" y="14"/>
      <point x="541" y="64"/>
      <point x="543" y="120"/>
      <point x="544" y="171"/>
      <point x="544" y="186" type="qcurve"/>
      <point x="544" y="223"/>
      <point x="536" y="289"/>
      <point x="514" y="341"/>
      <point x="475" y="376"/>
      <point x="444" y="381" type="qcurve"/>
      <point x="425" y="381" type="line"/>
      <point x="389" y="381"/>
      <point x="366" y="367" type="qcurve"/>
      <point x="371" y="348"/>
      <point x="374" y="279"/>
      <point x="374" y="241" type="qcurve"/>
      <point x="374" y="169" type="line"/>
      <point x="374" y="153"/>
      <point x="374" y="100"/>
      <point x="374" y="47"/>
      <point x="375" y="5"/>
      <point x="376" y="0" type="qcurve"/>
      <point x="281" y="0" type="line"/>
      <point x="283" y="14"/>
      <point x="287" y="64"/>
      <point x="289" y="120"/>
      <point x="290" y="171"/>
      <point x="290" y="186" type="qcurve"/>
      <point x="290" y="223"/>
      <point x="284" y="290"/>
      <point x="262" y="342"/>
      <point x="219" y="374"/>
      <point x="181" y="376" type="qcurve"/>
      <point x="176" y="376" type="line"/>
      <point x="156" y="376"/>
      <point x="128" y="363"/>
      <point x="117" y="353" type="qcurve"/>
      <point x="117" y="2" type="line"/>
    </contour>
  </outline>
</glyph>
<glyph name="n" format="1">
  <advance width="424"/>
  <unicode hex="006E"/>
  <outline>
    <contour>
      <point x="25" y="0" type="line" name="hr00"/>
      <point x="27" y="16"/>
      <point x="31" y="78"/>
      <point x="34" y="150"/>
      <point x="36" y="220"/>
      <point x="36" y="244" type="qcurve"/>
      <point x="36" y="263"/>
      <point x="36" y="303"/>
      <point x="34" y="338"/>
      <point x="29" y="367"/>
      <point x="25" y="376" type="qcurve"/>
      <point x="93" y="472" type="line"/>
      <point x="114" y="472"/>
      <point x="116" y="392" type="qcurve"/>
      <point x="141" y="423"/>
      <point x="195" y="472"/>
      <point x="221" y="472" type="qcurve"/>
      <point x="239" y="472"/>
      <point x="287" y="448"/>
      <point x="329" y="417"/>
      <point x="359" y="387"/>
      <point x="359" y="381" type="qcurve"/>
      <point x="364" y="376"/>
      <point x="370" y="349"/>
      <point x="373" y="310"/>
      <point x="374" y="264"/>
      <point x="374" y="241" type="qcurve"/>
      <point x="374" y="169" type="line"/>
      <point x="374" y="153"/>
      <point x="374" y="100"/>
      <point x="374" y="47"/>
      <point x="375" y="5"/>
      <point x="376" y="0" type="qcurve"/>
      <point x="281" y="0" type="line"/>
      <point x="283" y="14"/>
      <point x="287" y="64"/>
      <point x="289" y="120"/>
      <point x="290" y="171"/>
      <point x="290" y="186" type="qcurve"/>
      <point x="290" y="223"/>
      <point x="284" y="290"/>
      <point x="262" y="342"/>
      <point x="219" y="374"/>
      <point x="181" y="376" type="qcurve"/>
      <point x="176" y="376" type="line"/>
      <point x="156" y="376"/>
      <point x="128" y="363"/>
      <point x="117" y="353" type="qcurve"/>
      <point x="117" y="2" type="line"/>
    </contour>
  </outline>
</glyph>
<glyph name="o" format="1">
  <advance width="444"/>
  <unicode hex="006F"/>
  <outline>
    <contour>
      <point x="288" y="109" type="curve"/>
      <point x="320" y="140"/>
      <point x="330" y="153"/>
      <point x="330" y="182" type="curve" smooth="yes"/>
      <point x="330" y="285"/>
      <point x="277" y="391"/>
      <point x="203" y="391" type="curve" smooth="yes"/>
      <point x="187" y="391"/>
      <point x="148" y="386"/>
      <point x="128" y="371" type="curve"/>
      <point x="101" y="348"/>
      <point x="88" y="314"/>
      <point x="88" y="280" type="curve" smooth="yes"/>
      <point x="88" y="178"/>
      <point x="147" y="84"/>
      <point x="221" y="84" type="curve" smooth="yes"/>
      <point x="236" y="84"/>
      <point x="273" y="99"/>
    </contour>
    <contour>
      <point x="189" y="-4" type="curve" smooth="yes"/>
      <point x="34" y="-4"/>
      <point x="25" y="128"/>
      <point x="25" y="255" type="curve" smooth="yes"/>
      <point x="25" y="315"/>
      <point x="166" y="480"/>
      <point x="223" y="480" type="curve" smooth="yes"/>
      <point x="356" y="480"/>
      <point x="391" y="384"/>
      <point x="391" y="277" type="curve" smooth="yes"/>
      <point x="391" y="257"/>
      <point x="390" y="238"/>
      <point x="388" y="220" type="curve"/>
      <point x="388" y="159"/>
      <point x="246" y="-4"/>
    </contour>
    <contour>
      <point x="214" y="459" type="move" name="top"/>
    </contour>
  </outline>
</glyph>
<glyph name="p" format="1">
  <advance width="392"/>
  <unicode hex="0070"/>
  <outline>
    <contour>
      <point x="36" y="-216" type="line"/>
      <point x="37" y="-206"/>
      <point x="40" y="-139"/>
      <point x="42" y="-47"/>
      <point x="44" y="58"/>
      <point x="45" y="153"/>
      <point x="46" y="228"/>
      <point x="46" y="244" type="qcurve"/>
      <point x="46" y="263"/>
      <point x="46" y="303"/>
      <point x="44" y="338"/>
      <point x="39" y="367"/>
      <point x="35" y="376" type="qcurve"/>
      <point x="103" y="472" type="line"/>
      <point x="111" y="472"/>
      <point x="121" y="419"/>
      <point x="123" y="371" type="qcurve"/>
      <point x="127" y="376" type="line"/>
      <point x="139" y="394"/>
      <point x="172" y="427"/>
      <point x="204" y="453"/>
      <point x="230" y="469"/>
      <point x="236" y="469" type="qcurve"/>
      <point x="270" y="469"/>
      <point x="320" y="427"/>
      <point x="352" y="362"/>
      <point x="367" y="286"/>
      <point x="367" y="252" type="qcurve"/>
      <point x="367" y="220"/>
      <point x="361" y="196" type="qcurve"/>
      <point x="358" y="184"/>
      <point x="339" y="146"/>
      <point x="311" y="101"/>
      <point x="278" y="56"/>
      <point x="244" y="19"/>
      <point x="213" y="-4"/>
      <point x="202" y="-4" type="qcurve"/>
      <point x="198" y="-4" type="line"/>
      <point x="191" y="-2"/>
      <point x="172" y="9"/>
      <point x="150" y="24"/>
      <point x="127" y="41"/>
      <point x="117" y="48" type="qcurve"/>
      <point x="117" y="-16"/>
      <point x="120" y="-103"/>
      <point x="124" y="-161"/>
      <point x="128" y="-199"/>
      <point x="128" y="-214" type="qcurve"/>
    </contour>
    <contour>
      <point x="157" y="351" type="qcurve"/>
      <point x="139" y="340"/>
      <point x="118" y="319"/>
      <point x="117" y="308" type="qcurve"/>
      <point x="117" y="207" type="line"/>
      <point x="124" y="183"/>
      <point x="149" y="143"/>
      <point x="182" y="114"/>
      <point x="220" y="98"/>
      <point x="239" y="98" type="qcurve"/>
      <point x="263" y="98"/>
      <point x="286" y="114" type="qcurve" name="hr01"/>
      <point x="302" y="149"/>
      <point x="302" y="190" type="qcurve"/>
      <point x="302" y="221"/>
      <point x="285" y="283"/>
      <point x="256" y="333"/>
      <point x="217" y="363"/>
      <point x="194" y="363" type="qcurve"/>
      <point x="186" y="363"/>
      <point x="166" y="356"/>
    </contour>
  </outline>
</glyph>
<glyph name="q" format="1">
  <advance width="417"/>
  <unicode hex="0071"/>
  <outline>
    <contour>
      <point x="357" y="463" type="line"/>
      <point x="352" y="423"/>
      <point x="345" y="74"/>
      <point x="345" y="12" type="curve"/>
      <point x="345" y="-28" type="line"/>
      <point x="345" y="-67"/>
      <point x="346" y="-106"/>
      <point x="354" y="-121" type="curve"/>
      <point x="356" y="-122"/>
      <point x="361" y="-123"/>
      <point x="364" y="-123" type="curve" smooth="yes"/>
      <point x="376" y="-123"/>
      <point x="393" y="-113"/>
      <point x="403" y="-101" type="curve"/>
      <point x="423" y="-123" type="line"/>
      <point x="391" y="-169"/>
      <point x="307" y="-214"/>
      <point x="285" y="-217" type="curve"/>
      <point x="273" y="-217"/>
      <point x="270" y="-209"/>
      <point x="270" y="-170" type="curve" smooth="yes"/>
      <point x="270" y="-136"/>
      <point x="272" y="-80"/>
      <point x="272" y="12" type="curve"/>
      <point x="272" y="92" type="line"/>
      <point x="255" y="70"/>
      <point x="190" y="-2"/>
      <point x="157" y="-4" type="curve"/>
      <point x="65" y="-1"/>
      <point x="25" y="119"/>
      <point x="25" y="212" type="curve" smooth="yes"/>
      <point x="25" y="232"/>
      <point x="28" y="250"/>
      <point x="31" y="267" type="curve" smooth="yes"/>
      <point x="42" y="314"/>
      <point x="146" y="466"/>
      <point x="191" y="466" type="curve"/>
      <point x="195" y="466" type="line"/>
      <point x="217" y="460"/>
      <point x="255" y="434"/>
      <point x="285" y="404" type="curve"/>
      <point x="309" y="460" type="line"/>
    </contour>
    <contour>
      <point x="237" y="112" type="curve"/>
      <point x="258" y="122"/>
      <point x="271" y="134"/>
      <point x="274" y="146" type="curve"/>
      <point x="274" y="179"/>
      <point x="275" y="222"/>
      <point x="275" y="256" type="curve"/>
      <point x="258" y="319"/>
      <point x="204" y="365"/>
      <point x="153" y="365" type="curve" smooth="yes"/>
      <point x="138" y="365"/>
      <point x="122" y="360"/>
      <point x="106" y="348" type="curve"/>
      <point x="96" y="325"/>
      <point x="91" y="299"/>
      <point x="91" y="273" type="curve" smooth="yes"/>
      <point x="91" y="188"/>
      <point x="138" y="99"/>
      <point x="198" y="99" type="curve" smooth="yes"/>
      <point x="210" y="99"/>
      <point x="223" y="104"/>
    </contour>
  </outline>
</glyph>
<glyph name="r" format="1">
  <advance width="316"/>
  <unicode hex="0072"/>
  <outline>
    <contour>
      <point x="35" y="0" type="line"/>
      <point x="42" y="42"/>
      <point x="47" y="180"/>
      <point x="47" y="244" type="curve" smooth="yes"/>
      <point x="47" y="295"/>
      <point x="47" y="353"/>
      <point x="35" y="376" type="curve"/>
      <point x="104" y="472" type="line"/>
      <point x="120" y="472"/>
      <point x="127" y="444"/>
      <point x="128" y="387" type="curve"/>
      <point x="159" y="430"/>
      <point x="194" y="466"/>
      <point x="211" y="466" type="curve"/>
      <point x="263" y="459"/>
      <point x="307" y="403"/>
      <point x="307" y="395" type="curve"/>
      <point x="294" y="369"/>
      <point x="284" y="341"/>
      <point x="235" y="297" type="curve"/>
      <point x="218" y="323" type="line"/>
      <point x="230" y="326"/>
      <point x="240" y="345"/>
      <point x="242" y="356" type="curve" smooth="yes"/>
      <point x="242" y="359"/>
      <point x="242" y="361"/>
      <point x="241" y="364" type="curve"/>
      <point x="226" y="379"/>
      <point x="211" y="386"/>
      <point x="195" y="386" type="curve" smooth="yes"/>
      <point x="172" y="386"/>
      <point x="148" y="372"/>
      <point x="128" y="352" type="curve"/>
      <point x="128" y="312" type="line" smooth="yes"/>
      <point x="128" y="268"/>
      <point x="127" y="215"/>
      <point x="127" y="154" type="curve"/>
      <point x="127" y="2" type="line"/>
    </contour>
    <contour>
      <point x="184" y="469" type="move" name="top"/>
    </contour>
    <contour>
      <point x="74" y="14" type="move" name="bottom"/>
    </contour>
  </outline>
</glyph>
<glyph name="s" format="1">
  <advance width="383"/>
  <unicode hex="0073"/>
  <outline>
    <contour>
      <point x="279" y="346" type="line"/>
      <point x="278" y="369"/>
      <point x="256" y="398"/>
      <point x="224" y="414"/>
      <point x="185" y="419"/>
      <point x="167" y="419" type="qcurve"/>
      <point x="142" y="419"/>
      <point x="123" y="408" type="qcurve"/>
      <point x="115" y="393"/>
      <point x="109" y="380"/>
      <point x="109" y="370" type="qcurve"/>
      <point x="109" y="346"/>
      <point x="143" y="320"/>
      <point x="194" y="303"/>
      <point x="253" y="288"/>
      <point x="304" y="260"/>
      <point x="338" y="212"/>
      <point x="338" y="172" type="qcurve"/>
      <point x="338" y="166" type="line"/>
      <point x="338" y="150"/>
      <point x="333" y="125" type="qcurve"/>
      <point x="329" y="108"/>
      <point x="287" y="63"/>
      <point x="233" y="23"/>
      <point x="179" y="-4"/>
      <point x="164" y="-4" type="qcurve"/>
      <point x="127" y="-4"/>
      <point x="72" y="7"/>
      <point x="40" y="22" type="qcurve"/>
      <point x="40" y="52"/>
      <point x="25" y="111"/>
      <point x="25" y="140" type="qcurve"/>
      <point x="71" y="156" type="line"/>
      <point x="71" y="149" type="line"/>
      <point x="71" y="123"/>
      <point x="92" y="87"/>
      <point x="126" y="65"/>
      <point x="170" y="55"/>
      <point x="193" y="55" type="qcurve"/>
      <point x="223" y="55"/>
      <point x="243" y="65" type="qcurve"/>
      <point x="250" y="76"/>
      <point x="254" y="90"/>
      <point x="255" y="101" type="qcurve"/>
      <point x="255" y="106" type="line"/>
      <point x="255" y="141"/>
      <point x="224" y="179"/>
      <point x="176" y="202"/>
      <point x="122" y="219"/>
      <point x="74" y="248"/>
      <point x="43" y="296"/>
      <point x="43" y="338" type="qcurve"/>
      <point x="43" y="345" type="line"/>
      <point x="45" y="364" type="line" name="hr01"/>
      <point x="50" y="382"/>
      <point x="84" y="421"/>
      <point x="127" y="455"/>
      <point x="170" y="477"/>
      <point x="184" y="477" type="qcurve"/>
      <point x="207" y="477"/>
      <point x="249" y="469"/>
      <point x="282" y="459"/>
      <point x="301" y="449"/>
      <point x="301" y="447" type="qcurve"/>
      <point x="304" y="437"/>
      <point x="312" y="411"/>
      <point x="319" y="384"/>
      <point x="325" y="357"/>
      <point x="327" y="347" type="qcurve"/>
    </contour>
  </outline>
</glyph>
<glyph name="t" format="1">
  <advance width="347"/>
  <unicode hex="0074"/>
  <outline>
    <contour>
      <point x="29" y="446" type="line"/>
      <point x="84" y="446" type="line"/>
      <point x="84" y="593" type="line"/>
      <point x="178" y="593" type="line"/>
      <point x="170" y="446" type="line"/>
      <point x="318" y="446" type="line"/>
      <point x="311" y="393" type="line"/>
      <point x="169" y="393" type="line"/>
      <point x="168" y="373"/>
      <point x="168" y="352"/>
      <point x="168" y="331" type="curve" smooth="yes"/>
      <point x="168" y="320" type="line" smooth="yes"/>
      <point x="168" y="277"/>
      <point x="171" y="164"/>
      <point x="171" y="151" type="curve" smooth="yes"/>
      <point x="171" y="133"/>
      <point x="172" y="118"/>
      <point x="176" y="107" type="curve" smooth="yes"/>
      <point x="180" y="95"/>
      <point x="192" y="88"/>
      <point x="201" y="88" type="curve"/>
      <point x="269" y="100"/>
      <point x="290" y="128"/>
      <point x="291" y="127" type="curve" smooth="yes"/>
      <point x="312" y="104" type="line"/>
      <point x="261" y="54"/>
      <point x="152" y="-4"/>
      <point x="132" y="-4" type="curve" smooth="yes"/>
      <point x="94" y="-4"/>
      <point x="86" y="38"/>
      <point x="86" y="86" type="curve" smooth="yes"/>
      <point x="86" y="258"/>
      <point x="83" y="300"/>
      <point x="83" y="364" type="curve" smooth="yes"/>
      <point x="83" y="393" type="line"/>
      <point x="21" y="393" type="line"/>
    </contour>
    <contour>
      <point x="128" y="14" type="move" name="bottom"/>
    </contour>
  </outline>
</glyph>
<glyph name="u" format="1">
  <advance width="447"/>
  <unicode hex="0075"/>
  <outline>
    <contour>
      <point x="374" y="463" type="line"/>
      <point x="368" y="420"/>
      <point x="362" y="286"/>
      <point x="362" y="224" type="curve" smooth="yes"/>
      <point x="362" y="174"/>
      <point x="367" y="24"/>
      <point x="378" y="0" type="curve"/>
      <point x="307" y="-4" type="line"/>
      <point x="288" y="-4"/>
      <point x="283" y="22"/>
      <point x="281" y="76" type="curve"/>
      <point x="244" y="35"/>
      <point x="202" y="-4"/>
      <point x="173" y="-4" type="curve" smooth="yes"/>
      <point x="124" y="-4"/>
      <point x="65" y="68"/>
      <point x="65" y="87" type="curve"/>
      <point x="51" y="98"/>
      <point x="50" y="164"/>
      <point x="50" y="227" type="curve"/>
      <point x="50" y="296" type="line"/>
      <point x="50" y="342"/>
      <point x="50" y="432"/>
      <point x="48" y="446" type="curve"/>
      <point x="140" y="453" type="line"/>
      <point x="131" y="368"/>
      <point x="131" y="283"/>
      <point x="131" y="201" type="curve" smooth="yes"/>
      <point x="131" y="140"/>
      <point x="141" y="91"/>
      <point x="218" y="91" type="curve"/>
      <point x="238" y="91"/>
      <point x="260" y="104"/>
      <point x="279" y="119" type="curve"/>
      <point x="279" y="169"/>
      <point x="281" y="233"/>
      <point x="281" y="314" type="curve" smooth="yes"/>
      <point x="281" y="353"/>
      <point x="281" y="398"/>
      <point x="279" y="446" type="curve"/>
    </contour>
    <contour>
      <point x="216" y="433" type="move" name="top"/>
    </contour>
    <contour>
      <point x="336" y="4" type="move" name="bottom"/>
    </contour>
  </outline>
</glyph>
<glyph name="v" format="1">
  <advance width="399"/>
  <unicode hex="0076"/>
  <outline>
    <contour>
      <point x="188" y="-2" type="line" name="hr00"/>
      <point x="185" y="13"/>
      <point x="165" y="75"/>
      <point x="141" y="147"/>
      <point x="116" y="216"/>
      <point x="107" y="237" type="qcurve"/>
      <point x="101" y="251" type="line"/>
      <point x="88" y="283"/>
      <point x="62" y="343"/>
      <point x="48" y="357" type="qcurve"/>
      <point x="45" y="358"/>
      <point x="39" y="360"/>
      <point x="36" y="360" type="qcurve"/>
      <point x="24" y="360"/>
      <point x="2" y="338"/>
      <point x="-3" y="325" type="qcurve"/>
      <point x="-28" y="342" type="line"/>
      <point x="-20" y="363"/>
      <point x="11" y="406"/>
      <point x="44" y="442"/>
      <point x="75" y="467"/>
      <point x="83" y="470" type="qcurve"/>
      <point x="84" y="471"/>
      <point x="88" y="471" type="qcurve"/>
      <point x="100" y="471"/>
      <point x="123" y="435"/>
      <point x="153" y="363"/>
      <point x="194" y="254"/>
      <point x="223" y="181" type="qcurve"/>
      <point x="236" y="213"/>
      <point x="257" y="273"/>
      <point x="263" y="291" type="qcurve"/>
      <point x="269" y="308"/>
      <point x="283" y="349"/>
      <point x="295" y="391"/>
      <point x="303" y="428"/>
      <point x="303" y="441" type="qcurve"/>
      <point x="303" y="443"/>
      <point x="303" y="447"/>
      <point x="302" y="449" type="qcurve"/>
      <point x="357" y="457" type="line"/>
      <point x="369" y="452"/>
      <point x="369" y="436" type="qcurve"/>
      <point x="369" y="421"/>
      <point x="354" y="372"/>
      <point x="325" y="294"/>
      <point x="284" y="180"/>
      <point x="258" y="99" type="qcurve"/>
      <point x="259" y="91"/>
      <point x="266" y="83" type="qcurve"/>
    </contour>
  </outline>
</glyph>
<glyph name="w" format="1">
  <advance width="604"/>
  <unicode hex="0077"/>
  <outline>
    <contour>
      <point x="409" y="-4" type="line" name="hr00"/>
      <point x="406" y="11"/>
      <point x="386" y="73"/>
      <point x="361" y="144"/>
      <point x="336" y="213"/>
      <point x="327" y="234" type="qcurve"/>
      <point x="314" y="263" type="line"/>
      <point x="312" y="254" type="line"/>
      <point x="301" y="225"/>
      <point x="274" y="147"/>
      <point x="257" y="94" type="qcurve"/>
      <point x="264" y="82" type="line"/>
      <point x="186" y="-4" type="line"/>
      <point x="183" y="11"/>
      <point x="164" y="73"/>
      <point x="140" y="144"/>
      <point x="115" y="213"/>
      <point x="106" y="234" type="qcurve"/>
      <point x="104" y="241" type="line"/>
      <point x="90" y="274"/>
      <point x="61" y="341"/>
      <point x="48" y="357" type="qcurve"/>
      <point x="44" y="358"/>
      <point x="38" y="358" type="qcurve"/>
      <point x="24" y="358"/>
      <point x="3" y="340"/>
      <point x="-2" y="325" type="qcurve"/>
      <point x="-28" y="342" type="line"/>
      <point x="-20" y="363"/>
      <point x="12" y="407"/>
      <point x="46" y="444"/>
      <point x="77" y="468"/>
      <point x="83" y="469" type="qcurve"/>
      <point x="85" y="470"/>
      <point x="89" y="470" type="qcurve"/>
      <point x="99" y="470"/>
      <point x="122" y="433"/>
      <point x="153" y="359"/>
      <point x="196" y="247"/>
      <point x="226" y="172" type="qcurve"/>
      <point x="267" y="286" type="line"/>
      <point x="270" y="297"/>
      <point x="278" y="321"/>
      <point x="281" y="334" type="qcurve"/>
      <point x="278" y="339"/>
      <point x="271" y="348"/>
      <point x="268" y="351" type="qcurve"/>
      <point x="303" y="469" type="line"/>
      <point x="304" y="470"/>
      <point x="309" y="470" type="qcurve"/>
      <point x="319" y="470"/>
      <point x="340" y="437"/>
      <point x="369" y="370"/>
      <point x="408" y="269"/>
      <point x="435" y="202" type="qcurve"/>
      <point x="470" y="306" type="line"/>
      <point x="476" y="324"/>
      <point x="489" y="367"/>
      <point x="500" y="409"/>
      <point x="508" y="446"/>
      <point x="508" y="458" type="qcurve"/>
      <point x="508" y="465" type="line"/>
      <point x="561" y="472" type="line"/>
      <point x="574" y="469"/>
      <point x="574" y="450" type="qcurve"/>
      <point x="574" y="435"/>
      <point x="559" y="384"/>
      <point x="530" y="306"/>
      <point x="490" y="196"/>
      <point x="466" y="122" type="qcurve"/>
      <point x="484" y="82" type="line"/>
    </contour>
  </outline>
</glyph>
<glyph name="x" format="1">
  <advance width="414"/>
  <unicode hex="0078"/>
  <outline>
    <contour>
      <point x="303" y="4" type="line" name="hr00"/>
      <point x="282" y="33"/>
      <point x="228" y="121"/>
      <point x="196" y="172" type="qcurve"/>
      <point x="192" y="176"/>
      <point x="190" y="187"/>
      <point x="187" y="195" type="qcurve"/>
      <point x="164" y="163" type="line"/>
      <point x="153" y="147"/>
      <point x="123" y="99"/>
      <point x="96" y="51"/>
      <point x="76" y="9"/>
      <point x="76" y="0" type="qcurve"/>
      <point x="-1" y="0" type="line"/>
      <point x="0" y="15"/>
      <point x="28" y="64"/>
      <point x="72" y="127"/>
      <point x="127" y="202"/>
      <point x="154" y="241" type="qcurve"/>
      <point x="142" y="250" type="line"/>
      <point x="108" y="301"/>
      <point x="42" y="388"/>
      <point x="16" y="418" type="qcurve"/>
      <point x="68" y="478" type="line"/>
      <point x="72" y="480"/>
      <point x="73" y="480" type="qcurve"/>
      <point x="79" y="480"/>
      <point x="107" y="452"/>
      <point x="145" y="404"/>
      <point x="191" y="340"/>
      <point x="215" y="304" type="qcurve"/>
      <point x="228" y="323"/>
      <point x="254" y="366"/>
      <point x="275" y="408"/>
      <point x="291" y="448"/>
      <point x="295" y="464" type="qcurve"/>
      <point x="356" y="470" type="line"/>
      <point x="368" y="461"/>
      <point x="369" y="451" type="qcurve"/>
      <point x="369" y="434"/>
      <point x="301" y="330"/>
      <point x="248" y="255" type="qcurve"/>
      <point x="279" y="209"/>
      <point x="336" y="119"/>
      <point x="380" y="48"/>
      <point x="404" y="4"/>
      <point x="402" y="4" type="qcurve"/>
    </contour>
  </outline>
</glyph>
<glyph name="y" format="1">
  <advance width="425"/>
  <unicode hex="0079"/>
  <outline>
    <contour>
      <point x="78" y="-215" type="line"/>
      <point x="85" y="-196"/>
      <point x="100" y="-162"/>
      <point x="121" y="-111"/>
      <point x="154" y="-31"/>
      <point x="181" y="35" type="qcurve"/>
      <point x="175" y="57"/>
      <point x="156" y="115"/>
      <point x="136" y="173"/>
      <point x="116" y="227"/>
      <point x="109" y="244" type="qcurve"/>
      <point x="101" y="262"/>
      <point x="86" y="298"/>
      <point x="71" y="330"/>
      <point x="57" y="356"/>
      <point x="50" y="362" type="qcurve"/>
      <point x="47" y="365"/>
      <point x="39" y="365" type="qcurve"/>
      <point x="27" y="365"/>
      <point x="4" y="346"/>
      <point x="-3" y="331" type="qcurve" name="hr01"/>
      <point x="-28" y="347" type="line"/>
      <point x="-21" y="366"/>
      <point x="12" y="412"/>
      <point x="49" y="452"/>
      <point x="83" y="479"/>
      <point x="92" y="479" type="qcurve"/>
      <point x="103" y="479"/>
      <point x="125" y="443"/>
      <point x="156" y="367"/>
      <point x="200" y="249"/>
      <point x="234" y="167" type="qcurve"/>
      <point x="253" y="218"/>
      <point x="287" y="313"/>
      <point x="312" y="393"/>
      <point x="326" y="453"/>
      <point x="326" y="470" type="qcurve"/>
      <point x="391" y="480" type="line"/>
      <point x="395" y="480"/>
      <point x="395" y="471" type="qcurve"/>
      <point x="395" y="451"/>
      <point x="372" y="371"/>
      <point x="333" y="262"/>
      <point x="283" y="132"/>
      <point x="229" y="-7"/>
      <point x="176" y="-149"/>
      <point x="153" y="-215" type="qcurve"/>
    </contour>
  </outline>
</glyph>
<glyph name="z" format="1">
  <advance width="397"/>
  <unicode hex="007A"/>
  <outline>
    <contour>
      <point x="211" y="397" type="line"/>
      <point x="193" y="403"/>
      <point x="179" y="404"/>
      <point x="167" y="404" type="curve" smooth="yes"/>
      <point x="100" y="402"/>
      <point x="84" y="350"/>
      <point x="77" y="328" type="curve" smooth="yes"/>
      <point x="76" y="326"/>
      <point x="76" y="324"/>
      <point x="76" y="323" type="curve"/>
      <point x="104" y="293" type="line"/>
      <point x="87" y="267" type="line"/>
      <point x="55" y="300"/>
      <point x="11" y="341"/>
      <point x="11" y="363" type="curve" smooth="yes"/>
      <point x="11" y="365"/>
      <point x="12" y="367"/>
      <point x="12" y="370" type="curve"/>
      <point x="22" y="409"/>
      <point x="88" y="475"/>
      <point x="136" y="475" type="curve"/>
      <point x="157" y="475"/>
      <point x="200" y="459"/>
      <point x="226" y="449" type="curve"/>
      <point x="261" y="438"/>
      <point x="287" y="433"/>
      <point x="310" y="433" type="curve" smooth="yes"/>
      <point x="318" y="433"/>
      <point x="325" y="434"/>
      <point x="331" y="435" type="curve"/>
      <point x="342" y="436"/>
      <point x="350" y="438"/>
      <point x="358" y="441" type="curve"/>
      <point x="362" y="370" type="line"/>
      <point x="329" y="376" type="line"/>
      <point x="303" y="317"/>
      <point x="240" y="217"/>
      <point x="158" y="58" type="curve"/>
      <point x="225" y="63"/>
      <point x="363" y="81"/>
      <point x="382" y="82" type="curve"/>
      <point x="349" y="0" type="line"/>
      <point x="324" y="1"/>
      <point x="300" y="1"/>
      <point x="276" y="1" type="curve" smooth="yes"/>
      <point x="213" y="1"/>
      <point x="154" y="0"/>
      <point x="107" y="0" type="curve" smooth="yes"/>
      <point x="45" y="0"/>
      <point x="5" y="2"/>
      <point x="5" y="14" type="curve"/>
      <point x="55" y="66" type="line"/>
      <point x="84" y="97"/>
      <point x="157" y="223"/>
      <point x="183" y="274" type="curve" smooth="yes"/>
      <point x="204" y="317"/>
      <point x="231" y="366"/>
      <point x="235" y="393" type="curve"/>
    </contour>
    <contour>
      <point x="213" y="444" type="move" name="top"/>
    </contour>
  </outline>
</glyph>
<glyph name="braceleft" format="1">
  <advance width="317"/>
  <unicode hex="007B"/>
  <outline>
    <contour>
      <point x="38" y="242" type="curve"/>
      <point x="40" y="246"/>
      <point x="43" y="248"/>
      <point x="45" y="252" type="curve" smooth="yes"/>
      <point x="72" y="286"/>
      <point x="81" y="361"/>
      <point x="81" y="437" type="curve" smooth="yes"/>
      <point x="81" y="515"/>
      <point x="72" y="594"/>
      <point x="65" y="633" type="curve"/>
      <point x="45" y="663" type="line"/>
      <point x="128" y="664"/>
      <point x="158" y="664"/>
      <point x="161" y="664" type="curve"/>
      <point x="244" y="664"/>
      <point x="284" y="661"/>
      <point x="284" y="636" type="curve"/>
      <point x="242" y="608" type="line"/>
      <point x="218" y="621"/>
      <point x="177" y="621"/>
      <point x="146" y="621" type="curve" smooth="yes"/>
      <point x="140" y="621" type="line"/>
      <point x="143" y="549"/>
      <point x="150" y="487"/>
      <point x="150" y="433" type="curve" smooth="yes"/>
      <point x="150" y="353"/>
      <point x="135" y="291"/>
      <point x="75" y="243" type="curve"/>
      <point x="135" y="194"/>
      <point x="150" y="133"/>
      <point x="150" y="53" type="curve" smooth="yes"/>
      <point x="150" y="-1"/>
      <point x="143" y="-63"/>
      <point x="140" y="-134" type="curve"/>
      <point x="146" y="-134" type="line" smooth="yes"/>
      <point x="177" y="-134"/>
      <point x="218" y="-134"/>
      <point x="242" y="-121" type="curve"/>
      <point x="284" y="-150" type="line"/>
      <point x="284" y="-175"/>
      <point x="244" y="-178"/>
      <point x="161" y="-178" type="curve"/>
      <point x="45" y="-178" type="line"/>
      <point x="66" y="-148" type="line"/>
      <point x="73" y="-109"/>
      <point x="81" y="-29"/>
      <point x="81" y="49" type="curve" smooth="yes"/>
      <point x="81" y="134"/>
      <point x="71" y="216"/>
    </contour>
  </outline>
</glyph>
<glyph name="bar" format="1">
  <advance width="202"/>
  <unicode hex="007C"/>
  <outline>
    <contour>
      <point x="79" y="-235" type="line" name="hr00"/>
      <point x="80" y="-230"/>
      <point x="81" y="-183"/>
      <point x="81" y="-110"/>
      <point x="82" y="-16"/>
      <point x="82" y="89"/>
      <point x="82" y="200"/>
      <point x="82" y="253" type="qcurve"/>
      <point x="82" y="538" type="line"/>
      <point x="82" y="553"/>
      <point x="81" y="598"/>
      <point x="78" y="645"/>
      <point x="73" y="683"/>
      <point x="69" y="690" type="qcurve"/>
      <point x="112" y="713" type="line"/>
      <point x="118" y="713"/>
      <point x="127" y="645"/>
      <point x="131" y="531"/>
      <point x="133" y="381"/>
      <point x="133" y="299" type="qcurve"/>
      <point x="133" y="189"/>
      <point x="131" y="-33"/>
      <point x="131" y="-124" type="qcurve"/>
      <point x="131" y="-158"/>
      <point x="131" y="-216"/>
      <point x="132" y="-240" type="qcurve"/>
    </contour>
  </outline>
</glyph>
<glyph name="braceright" format="1">
  <advance width="380"/>
  <unicode hex="007D"/>
  <outline>
    <contour>
      <point x="284" y="242" type="line" name="hr00"/>
      <point x="279" y="238"/>
      <point x="276" y="234" type="qcurve"/>
      <point x="272" y="230" type="line"/>
      <point x="254" y="204"/>
      <point x="240" y="106"/>
      <point x="240" y="50" type="qcurve"/>
      <point x="240" y="20"/>
      <point x="243" y="-38"/>
      <point x="247" y="-90"/>
      <point x="252" y="-133"/>
      <point x="255" y="-148" type="qcurve"/>
      <point x="276" y="-178" type="line"/>
      <point x="161" y="-178" type="line"/>
      <point x="98" y="-178"/>
      <point x="38" y="-169"/>
      <point x="38" y="-150" type="qcurve"/>
      <point x="80" y="-121" type="line"/>
      <point x="97" y="-131"/>
      <point x="152" y="-134"/>
      <point x="175" y="-134" type="qcurve"/>
      <point x="181" y="-134" type="line"/>
      <point x="179" y="-80"/>
      <point x="171" y="13"/>
      <point x="171" y="54" type="qcurve"/>
      <point x="171" y="114"/>
      <point x="200" y="206"/>
      <point x="246" y="243" type="qcurve"/>
      <point x="200" y="279"/>
      <point x="171" y="372"/>
      <point x="171" y="431" type="qcurve"/>
      <point x="171" y="472"/>
      <point x="179" y="567"/>
      <point x="181" y="621" type="qcurve"/>
      <point x="175" y="621" type="line"/>
      <point x="152" y="621"/>
      <point x="97" y="618"/>
      <point x="80" y="608" type="qcurve"/>
      <point x="38" y="636" type="line"/>
      <point x="38" y="655"/>
      <point x="98" y="664"/>
      <point x="161" y="664" type="qcurve"/>
      <point x="181" y="664"/>
      <point x="231" y="664"/>
      <point x="276" y="663" type="qcurve"/>
      <point x="257" y="633" type="line"/>
      <point x="254" y="618"/>
      <point x="248" y="574"/>
      <point x="243" y="522"/>
      <point x="240" y="463"/>
      <point x="240" y="433" type="qcurve"/>
      <point x="240" y="378"/>
      <point x="254" y="281"/>
      <point x="272" y="256" type="qcurve"/>
      <point x="276" y="252" type="line"/>
    </contour>
  </outline>
</glyph>
<glyph name="asciitilde" format="1">
  <advance width="459"/>
  <unicode hex="007E"/>
  <outline>
    <contour>
      <point x="191" y="276" type="line"/>
      <point x="198" y="276"/>
      <point x="222" y="257"/>
      <point x="248" y="234"/>
      <point x="271" y="214"/>
      <point x="276" y="211" type="qcurve"/>
      <point x="282" y="208"/>
      <point x="287" y="208" type="qcurve"/>
      <point x="306" y="208"/>
      <point x="352" y="252"/>
      <point x="370" y="277" type="qcurve"/>
      <point x="371" y="278" type="line"/>
      <point x="372" y="277" type="line"/>
      <point x="374" y="275"/>
      <point x="375" y="275" type="qcurve"/>
      <point x="378" y="272" type="line"/>
      <point x="375" y="208" type="line"/>
      <point x="347" y="176"/>
      <point x="301" y="147"/>
      <point x="268" y="147" type="qcurve"/>
      <point x="264" y="147"/>
      <point x="240" y="168"/>
      <point x="212" y="193"/>
      <point x="186" y="214"/>
      <point x="180" y="214" type="qcurve" name="hr01"/>
      <point x="169" y="214"/>
      <point x="141" y="193"/>
      <point x="114" y="168"/>
      <point x="93" y="147"/>
      <point x="89" y="147" type="qcurve"/>
      <point x="85" y="147"/>
      <point x="81" y="152" type="qcurve"/>
      <point x="84" y="216" type="line"/>
      <point x="95" y="225"/>
      <point x="119" y="246"/>
      <point x="143" y="264"/>
      <point x="170" y="276"/>
      <point x="184" y="276" type="qcurve" name="hr02"/>
    </contour>
  </outline>
</glyph>
<glyph name="exclamdown" format="1">
  <advance width="243"/>
  <unicode hex="00A1"/>
  <outline>
    <contour>
      <point x="148" y="230" type="line"/>
      <point x="159" y="170"/>
      <point x="166" y="57"/>
      <point x="166" y="-46" type="curve" smooth="yes"/>
      <point x="166" y="-162"/>
      <point x="157" y="-265"/>
      <point x="139" y="-265" type="curve" smooth="yes"/>
      <point x="135" y="-265"/>
      <point x="132" y="-262"/>
      <point x="129" y="-257" type="curve"/>
      <point x="75" y="-175" type="line"/>
      <point x="85" y="-157"/>
      <point x="94" y="-110"/>
      <point x="94" y="-69" type="curve" smooth="yes"/>
      <point x="94" y="-20"/>
      <point x="89" y="152"/>
      <point x="84" y="187" type="curve"/>
    </contour>
    <contour>
      <point x="125" y="275" type="curve"/>
      <point x="101" y="275"/>
      <point x="75" y="291"/>
      <point x="68" y="318" type="curve" smooth="yes"/>
      <point x="66" y="323"/>
      <point x="66" y="328"/>
      <point x="66" y="335" type="curve" smooth="yes"/>
      <point x="66" y="365"/>
      <point x="88" y="393"/>
      <point x="121" y="393" type="curve" smooth="yes"/>
      <point x="153" y="393"/>
      <point x="176" y="365"/>
      <point x="176" y="335" type="curve" smooth="yes"/>
      <point x="176" y="310"/>
      <point x="166" y="275"/>
    </contour>
  </outline>
</glyph>
<glyph name="cent" format="1">
  <advance width="340"/>
  <unicode hex="00A2"/>
  <outline>
    <contour>
      <point x="326" y="373" type="qcurve" name="hr00"/>
      <point x="325" y="371"/>
      <point x="315" y="352"/>
      <point x="301" y="330"/>
      <point x="285" y="309"/>
      <point x="279" y="305" type="qcurve"/>
      <point x="268" y="321"/>
      <point x="230" y="353"/>
      <point x="207" y="363" type="qcurve"/>
      <point x="197" y="98" type="line"/>
      <point x="205" y="95"/>
      <point x="223" y="93"/>
      <point x="232" y="93" type="qcurve"/>
      <point x="260" y="93"/>
      <point x="311" y="117"/>
      <point x="330" y="140" type="qcurve"/>
      <point x="351" y="118" type="line"/>
      <point x="341" y="105"/>
      <point x="303" y="75"/>
      <point x="258" y="45"/>
      <point x="212" y="19"/>
      <point x="194" y="10" type="qcurve"/>
      <point x="194" y="-10"/>
      <point x="194" y="-49"/>
      <point x="195" y="-69" type="qcurve"/>
      <point x="142" y="-64" type="line"/>
      <point x="143" y="-57"/>
      <point x="143" y="-25"/>
      <point x="144" y="-3" type="qcurve"/>
      <point x="113" y="1"/>
      <point x="68" y="46"/>
      <point x="39" y="111"/>
      <point x="25" y="186"/>
      <point x="25" y="221" type="qcurve"/>
      <point x="25" y="236"/>
      <point x="29" y="264"/>
      <point x="31" y="277" type="qcurve"/>
      <point x="34" y="290"/>
      <point x="58" y="336"/>
      <point x="92" y="387"/>
      <point x="132" y="437"/>
      <point x="150" y="454" type="qcurve"/>
      <point x="150" y="466"/>
      <point x="149" y="491"/>
      <point x="149" y="504" type="qcurve"/>
      <point x="191" y="528" type="line"/>
      <point x="196" y="528"/>
      <point x="205" y="495"/>
      <point x="207" y="473" type="qcurve"/>
      <point x="221" y="467"/>
      <point x="260" y="441"/>
      <point x="297" y="412"/>
      <point x="324" y="383"/>
    </contour>
    <contour>
      <point x="150" y="376" type="qcurve"/>
      <point x="134" y="374"/>
      <point x="108" y="355"/>
      <point x="103" y="332" type="qcurve"/>
      <point x="102" y="318"/>
      <point x="100" y="292"/>
      <point x="100" y="279" type="qcurve"/>
      <point x="100" y="227"/>
      <point x="125" y="156"/>
      <point x="145" y="133" type="qcurve"/>
      <point x="146" y="205"/>
      <point x="149" y="322"/>
    </contour>
  </outline>
</glyph>
<glyph name="sterling" format="1">
  <advance width="516"/>
  <unicode hex="00A3"/>
  <outline>
    <contour>
      <point x="139" y="383" type="line"/>
      <point x="207" y="383" type="line"/>
      <point x="208" y="401"/>
      <point x="212" y="431"/>
      <point x="213" y="470" type="curve"/>
      <point x="238" y="527"/>
      <point x="328" y="648"/>
      <point x="369" y="648" type="curve"/>
      <point x="388" y="646"/>
      <point x="407" y="635"/>
      <point x="426" y="622" type="curve"/>
      <point x="432" y="620"/>
      <point x="435" y="618"/>
      <point x="436" y="613" type="curve"/>
      <point x="472" y="586"/>
      <point x="503" y="553"/>
      <point x="503" y="548" type="curve" smooth="yes"/>
      <point x="503" y="542"/>
      <point x="471" y="493"/>
      <point x="455" y="482" type="curve"/>
      <point x="433" y="514"/>
      <point x="377" y="550"/>
      <point x="333" y="550" type="curve" smooth="yes"/>
      <point x="309" y="550"/>
      <point x="289" y="539"/>
      <point x="281" y="511" type="curve" smooth="yes"/>
      <point x="280" y="508"/>
      <point x="279" y="503"/>
      <point x="279" y="499" type="curve" smooth="yes"/>
      <point x="277" y="487"/>
      <point x="277" y="475"/>
      <point x="277" y="463" type="curve" smooth="yes"/>
      <point x="277" y="434"/>
      <point x="280" y="409"/>
      <point x="281" y="394" type="curve" smooth="yes"/>
      <point x="281" y="389"/>
      <point x="282" y="386"/>
      <point x="282" y="383" type="curve"/>
      <point x="316" y="383"/>
      <point x="349" y="384"/>
      <point x="382" y="385" type="curve" smooth="yes"/>
      <point x="411" y="385" type="line"/>
      <point x="372" y="320" type="line"/>
      <point x="342" y="320"/>
      <point x="333" y="322"/>
      <point x="312" y="322" type="curve" smooth="yes"/>
      <point x="303" y="322"/>
      <point x="294" y="322"/>
      <point x="284" y="321" type="curve"/>
      <point x="275" y="230"/>
      <point x="233" y="134"/>
      <point x="169" y="74" type="curve"/>
      <point x="223" y="69"/>
      <point x="294" y="68"/>
      <point x="332" y="68" type="curve" smooth="yes"/>
      <point x="343" y="68" type="line" smooth="yes"/>
      <point x="378" y="68"/>
      <point x="425" y="68"/>
      <point x="453" y="84" type="curve"/>
      <point x="516" y="34" type="line"/>
      <point x="516" y="5"/>
      <point x="471" y="1"/>
      <point x="379" y="1" type="curve" smooth="yes"/>
      <point x="313" y="1" type="line" smooth="yes"/>
      <point x="290" y="1"/>
      <point x="237" y="2"/>
      <point x="208" y="2" type="curve" smooth="yes"/>
      <point x="168" y="2"/>
      <point x="113" y="1"/>
      <point x="62" y="0" type="curve"/>
      <point x="97" y="80" type="line"/>
      <point x="103" y="79"/>
      <point x="116" y="77"/>
      <point x="131" y="76" type="curve"/>
      <point x="178" y="119"/>
      <point x="199" y="231"/>
      <point x="204" y="321" type="curve"/>
      <point x="171" y="320"/>
      <point x="153" y="317"/>
      <point x="120" y="314" type="curve"/>
    </contour>
  </outline>
</glyph>
<glyph name="currency" format="1">
  <advance width="431"/>
  <unicode hex="00A4"/>
  <outline>
    <contour>
      <point x="57" y="300" type="curve" smooth="yes"/>
      <point x="57" y="333"/>
      <point x="66" y="362"/>
      <point x="85" y="388" type="curve"/>
      <point x="61" y="414"/>
      <point x="43" y="439"/>
      <point x="30" y="455" type="curve"/>
      <point x="82" y="482" type="line"/>
      <point x="88" y="474"/>
      <point x="106" y="454"/>
      <point x="128" y="431" type="curve"/>
      <point x="157" y="454"/>
      <point x="195" y="467"/>
      <point x="237" y="467" type="curve" smooth="yes"/>
      <point x="277" y="467"/>
      <point x="314" y="455"/>
      <point x="342" y="433" type="curve"/>
      <point x="344" y="430" type="line"/>
      <point x="391" y="482" type="line"/>
      <point x="444" y="455" type="line"/>
      <point x="430" y="439"/>
      <point x="411" y="414"/>
      <point x="387" y="388" type="curve"/>
      <point x="405" y="362"/>
      <point x="413" y="333"/>
      <point x="413" y="300" type="curve" smooth="yes"/>
      <point x="413" y="267"/>
      <point x="404" y="237"/>
      <point x="385" y="210" type="curve"/>
      <point x="409" y="182"/>
      <point x="429" y="157"/>
      <point x="444" y="139" type="curve"/>
      <point x="391" y="112" type="line"/>
      <point x="341" y="167" type="line"/>
      <point x="313" y="147"/>
      <point x="277" y="135"/>
      <point x="237" y="135" type="curve" smooth="yes"/>
      <point x="197" y="135"/>
      <point x="161" y="146"/>
      <point x="132" y="167" type="curve"/>
      <point x="107" y="141"/>
      <point x="89" y="120"/>
      <point x="82" y="112" type="curve"/>
      <point x="30" y="139" type="line"/>
      <point x="43" y="157"/>
      <point x="64" y="182"/>
      <point x="88" y="210" type="curve"/>
      <point x="69" y="237"/>
      <point x="57" y="267"/>
    </contour>
    <contour>
      <point x="113" y="300" type="curve" smooth="yes"/>
      <point x="113" y="237"/>
      <point x="169" y="187"/>
      <point x="237" y="187" type="curve" smooth="yes"/>
      <point x="304" y="187"/>
      <point x="359" y="237"/>
      <point x="359" y="300" type="curve" smooth="yes"/>
      <point x="359" y="364"/>
      <point x="304" y="415"/>
      <point x="237" y="415" type="curve" smooth="yes"/>
      <point x="169" y="415"/>
      <point x="113" y="364"/>
    </contour>
  </outline>
</glyph>
<glyph name="yen" format="1">
  <advance width="537"/>
  <unicode hex="00A5"/>
  <outline>
    <contour>
      <point x="82" y="215" type="line"/>
      <point x="239" y="215" type="line"/>
      <point x="239" y="237"/>
      <point x="240" y="260"/>
      <point x="240" y="283" type="curve"/>
      <point x="188" y="282"/>
      <point x="113" y="278"/>
      <point x="81" y="275" type="curve"/>
      <point x="98" y="335" type="line"/>
      <point x="215" y="335" type="line"/>
      <point x="190" y="390"/>
      <point x="174" y="425"/>
      <point x="155" y="458" type="curve" smooth="yes"/>
      <point x="131" y="500"/>
      <point x="79" y="580"/>
      <point x="53" y="593" type="curve"/>
      <point x="116" y="647" type="line"/>
      <point x="120" y="648"/>
      <point x="122" y="649"/>
      <point x="125" y="649" type="curve" smooth="yes"/>
      <point x="162" y="649"/>
      <point x="190" y="565"/>
      <point x="298" y="374" type="curve"/>
      <point x="320" y="415"/>
      <point x="344" y="461"/>
      <point x="355" y="491" type="curve"/>
      <point x="375" y="530"/>
      <point x="407" y="606"/>
      <point x="407" y="637" type="curve" smooth="yes"/>
      <point x="407" y="640"/>
      <point x="407" y="642"/>
      <point x="406" y="644" type="curve"/>
      <point x="460" y="649" type="line"/>
      <point x="468" y="647"/>
      <point x="472" y="641"/>
      <point x="472" y="630" type="curve" smooth="yes"/>
      <point x="472" y="589"/>
      <point x="430" y="522"/>
      <point x="346" y="335" type="curve"/>
      <point x="465" y="335" type="line"/>
      <point x="490" y="339" type="line"/>
      <point x="456" y="283" type="line"/>
      <point x="433" y="284"/>
      <point x="417" y="285"/>
      <point x="401" y="285" type="curve" smooth="yes"/>
      <point x="380" y="285"/>
      <point x="359" y="284"/>
      <point x="326" y="284" type="curve"/>
      <point x="326" y="234" type="line"/>
      <point x="325" y="230"/>
      <point x="325" y="228"/>
      <point x="325" y="227" type="curve"/>
      <point x="325" y="215" type="line"/>
      <point x="474" y="215" type="line"/>
      <point x="440" y="162" type="line"/>
      <point x="410" y="163"/>
      <point x="385" y="164"/>
      <point x="359" y="164" type="curve" smooth="yes"/>
      <point x="348" y="164"/>
      <point x="336" y="164"/>
      <point x="325" y="163" type="curve"/>
      <point x="325" y="114"/>
      <point x="325" y="23"/>
      <point x="326" y="2" type="curve"/>
      <point x="229" y="2" type="line"/>
      <point x="230" y="43"/>
      <point x="234" y="123"/>
      <point x="236" y="160" type="curve"/>
      <point x="228" y="162" type="line"/>
      <point x="175" y="161"/>
      <point x="98" y="159"/>
      <point x="65" y="156" type="curve"/>
    </contour>
  </outline>
</glyph>
<glyph name="brokenbar" format="1">
  <advance width="202"/>
  <unicode hex="00A6"/>
  <outline>
    <contour>
      <point x="77" y="-174" type="line" name="hr00"/>
      <point x="81" y="-148"/>
      <point x="82" y="-82"/>
      <point x="82" y="-43" type="qcurve"/>
      <point x="82" y="158" type="line"/>
      <point x="132" y="158" type="line"/>
      <point x="133" y="155"/>
      <point x="133" y="142" type="qcurve"/>
      <point x="133" y="116"/>
      <point x="129" y="-6"/>
      <point x="129" y="-103" type="qcurve"/>
      <point x="129" y="-113"/>
      <point x="129" y="-115"/>
      <point x="130" y="-114"/>
      <point x="130" y="-117"/>
      <point x="130" y="-129" type="qcurve"/>
      <point x="130" y="-179" type="line"/>
    </contour>
    <contour>
      <point x="78" y="315" type="line"/>
      <point x="79" y="324"/>
      <point x="81" y="363"/>
      <point x="82" y="411"/>
      <point x="82" y="464"/>
      <point x="82" y="487" type="qcurve"/>
      <point x="82" y="539" type="line"/>
      <point x="82" y="568"/>
      <point x="77" y="606"/>
      <point x="69" y="620" type="qcurve"/>
      <point x="112" y="644" type="line"/>
      <point x="119" y="642"/>
      <point x="127" y="606"/>
      <point x="130" y="527"/>
      <point x="131" y="401"/>
      <point x="131" y="310" type="qcurve"/>
    </contour>
  </outline>
</glyph>
<glyph name="section" format="1">
  <advance width="420"/>
  <unicode hex="00A7"/>
  <outline>
    <contour>
      <point x="120" y="-42" type="line"/>
      <point x="121" y="-65"/>
      <point x="147" y="-94"/>
      <point x="187" y="-110"/>
      <point x="234" y="-115"/>
      <point x="257" y="-115" type="qcurve"/>
      <point x="288" y="-115"/>
      <point x="312" y="-104" type="qcurve"/>
      <point x="321" y="-89"/>
      <point x="329" y="-76"/>
      <point x="330" y="-66" type="qcurve"/>
      <point x="330" y="-41"/>
      <point x="288" y="-3"/>
      <point x="225" y="30"/>
      <point x="152" y="62"/>
      <point x="89" y="100"/>
      <point x="47" y="150"/>
      <point x="47" y="183" type="qcurve"/>
      <point x="47" y="189" type="line"/>
      <point x="45" y="197"/>
      <point x="45" y="201" type="qcurve"/>
      <point x="45" y="218"/>
      <point x="69" y="262"/>
      <point x="109" y="307"/>
      <point x="160" y="350"/>
      <point x="188" y="367" type="qcurve"/>
      <point x="162" y="378"/>
      <point x="111" y="401"/>
      <point x="71" y="433"/>
      <point x="47" y="478"/>
      <point x="47" y="511" type="qcurve"/>
      <point x="47" y="518" type="line"/>
      <point x="48" y="523"/>
      <point x="48" y="532"/>
      <point x="50" y="537" type="qcurve"/>
      <point x="56" y="555"/>
      <point x="98" y="594"/>
      <point x="151" y="628"/>
      <point x="203" y="650"/>
      <point x="220" y="650" type="qcurve"/>
      <point x="248" y="650"/>
      <point x="301" y="642"/>
      <point x="340" y="632"/>
      <point x="364" y="622"/>
      <point x="364" y="620" type="qcurve"/>
      <point x="368" y="610"/>
      <point x="377" y="584"/>
      <point x="386" y="557"/>
      <point x="394" y="530"/>
      <point x="396" y="520" type="qcurve"/>
      <point x="337" y="520" type="line"/>
      <point x="336" y="543"/>
      <point x="310" y="571"/>
      <point x="270" y="587"/>
      <point x="222" y="592"/>
      <point x="200" y="592" type="qcurve"/>
      <point x="169" y="592"/>
      <point x="145" y="581" type="qcurve"/>
      <point x="136" y="566"/>
      <point x="128" y="553"/>
      <point x="127" y="543" type="qcurve"/>
      <point x="127" y="518"/>
      <point x="169" y="479"/>
      <point x="232" y="444"/>
      <point x="305" y="411"/>
      <point x="368" y="372"/>
      <point x="410" y="325"/>
      <point x="410" y="294" type="qcurve" name="hr01"/>
      <point x="410" y="288" type="line"/>
      <point x="412" y="280"/>
      <point x="412" y="274" type="qcurve"/>
      <point x="412" y="254"/>
      <point x="387" y="209"/>
      <point x="347" y="166"/>
      <point x="293" y="126"/>
      <point x="265" y="111" type="qcurve"/>
      <point x="276" y="106" type="line"/>
      <point x="301" y="95"/>
      <point x="349" y="73"/>
      <point x="387" y="41"/>
      <point x="410" y="-3"/>
      <point x="410" y="-34" type="qcurve"/>
      <point x="410" y="-41" type="line"/>
      <point x="409" y="-46"/>
      <point x="409" y="-55"/>
      <point x="407" y="-60" type="qcurve"/>
      <point x="401" y="-78"/>
      <point x="359" y="-117"/>
      <point x="306" y="-151"/>
      <point x="253" y="-173"/>
      <point x="237" y="-173" type="qcurve"/>
      <point x="208" y="-173"/>
      <point x="156" y="-165"/>
      <point x="117" y="-155"/>
      <point x="93" y="-145"/>
      <point x="93" y="-143" type="qcurve"/>
      <point x="89" y="-133"/>
      <point x="80" y="-107"/>
      <point x="71" y="-80"/>
      <point x="63" y="-53"/>
      <point x="61" y="-43" type="qcurve"/>
    </contour>
    <contour>
      <point x="318" y="222" type="qcurve"/>
      <point x="318" y="227" type="line"/>
      <point x="318" y="273"/>
      <point x="271" y="327"/>
      <point x="237" y="344" type="qcurve"/>
      <point x="223" y="339"/>
      <point x="189" y="318"/>
      <point x="160" y="293"/>
      <point x="140" y="267"/>
      <point x="139" y="255" type="qcurve"/>
      <point x="139" y="250" type="line"/>
      <point x="139" y="203"/>
      <point x="186" y="149"/>
      <point x="221" y="131" type="qcurve"/>
      <point x="234" y="135"/>
      <point x="267" y="157"/>
      <point x="296" y="183"/>
      <point x="317" y="211"/>
    </contour>
  </outline>
</glyph>
<glyph name="dieresis" format="1">
  <advance width="359"/>
  <unicode hex="00A8"/>
  <outline>
    <contour>
      <point x="110" y="693" type="curve" smooth="yes"/>
      <point x="140" y="693"/>
      <point x="148" y="666"/>
      <point x="148" y="648" type="curve" smooth="yes"/>
      <point x="148" y="627"/>
      <point x="130" y="606"/>
      <point x="107" y="606" type="curve" smooth="yes"/>
      <point x="83" y="606"/>
      <point x="68" y="628"/>
      <point x="68" y="650" type="curve" smooth="yes"/>
      <point x="68" y="653"/>
      <point x="68" y="658"/>
      <point x="70" y="661" type="curve" smooth="yes"/>
      <point x="73" y="680"/>
      <point x="93" y="693"/>
    </contour>
    <contour>
      <point x="248" y="693" type="curve" smooth="yes"/>
      <point x="278" y="693"/>
      <point x="286" y="666"/>
      <point x="286" y="648" type="curve" smooth="yes"/>
      <point x="286" y="627"/>
      <point x="268" y="606"/>
      <point x="244" y="606" type="curve" smooth="yes"/>
      <point x="221" y="606"/>
      <point x="207" y="628"/>
      <point x="207" y="650" type="curve" smooth="yes"/>
      <point x="207" y="653"/>
      <point x="207" y="658"/>
      <point x="208" y="661" type="curve" smooth="yes"/>
      <point x="212" y="680"/>
      <point x="231" y="693"/>
    </contour>
    <contour>
      <point x="170" y="518" type="move" name="_top"/>
    </contour>
  </outline>
</glyph>
<glyph name="copyright" format="1">
  <advance width="709"/>
  <unicode hex="00A9"/>
  <outline>
    <contour>
      <point x="29" y="324" type="qcurve"/>
      <point x="29" y="392"/>
      <point x="80" y="511"/>
      <point x="168" y="599"/>
      <point x="286" y="650"/>
      <point x="353" y="650" type="qcurve"/>
      <point x="421" y="650"/>
      <point x="540" y="599"/>
      <point x="628" y="511"/>
      <point x="679" y="392"/>
      <point x="679" y="324" type="qcurve"/>
      <point x="679" y="257"/>
      <point x="628" y="139"/>
      <point x="540" y="51"/>
      <point x="421" y="0"/>
      <point x="353" y="0" type="qcurve"/>
      <point x="286" y="0"/>
      <point x="168" y="51"/>
      <point x="80" y="139"/>
      <point x="29" y="257"/>
    </contour>
    <contour>
      <point x="99" y="324" type="qcurve"/>
      <point x="99" y="272"/>
      <point x="139" y="179"/>
      <point x="208" y="110"/>
      <point x="301" y="70"/>
      <point x="353" y="70" type="qcurve"/>
      <point x="406" y="70"/>
      <point x="499" y="110"/>
      <point x="568" y="179"/>
      <point x="608" y="272"/>
      <point x="608" y="324" type="qcurve"/>
      <point x="608" y="377"/>
      <point x="568" y="470"/>
      <point x="499" y="539"/>
      <point x="406" y="579"/>
      <point x="353" y="579" type="qcurve"/>
      <point x="301" y="579"/>
      <point x="208" y="539"/>
      <point x="139" y="470"/>
      <point x="99" y="377"/>
    </contour>
    <contour>
      <point x="481" y="451" type="qcurve"/>
      <point x="480" y="449"/>
      <point x="471" y="433"/>
      <point x="458" y="413"/>
      <point x="444" y="395"/>
      <point x="439" y="391" type="qcurve"/>
      <point x="432" y="402"/>
      <point x="407" y="424"/>
      <point x="377" y="442"/>
      <point x="345" y="453"/>
      <point x="331" y="453" type="qcurve"/>
      <point x="314" y="453"/>
      <point x="288" y="437"/>
      <point x="282" y="414" type="qcurve"/>
      <point x="281" y="402"/>
      <point x="279" y="378"/>
      <point x="279" y="367" type="qcurve"/>
      <point x="279" y="323"/>
      <point x="299" y="261"/>
      <point x="332" y="221"/>
      <point x="375" y="202"/>
      <point x="397" y="202" type="qcurve"/>
      <point x="422" y="202"/>
      <point x="467" y="223"/>
      <point x="484" y="244" type="qcurve"/>
      <point x="503" y="224" type="line" name="hr01"/>
      <point x="491" y="208"/>
      <point x="439" y="171"/>
      <point x="384" y="138"/>
      <point x="338" y="116"/>
      <point x="331" y="116" type="qcurve"/>
      <point x="300" y="116"/>
      <point x="256" y="154"/>
      <point x="227" y="213"/>
      <point x="213" y="284"/>
      <point x="213" y="316" type="qcurve"/>
      <point x="213" y="330"/>
      <point x="217" y="354"/>
      <point x="219" y="365" type="qcurve"/>
      <point x="221" y="376"/>
      <point x="238" y="410"/>
      <point x="263" y="450"/>
      <point x="293" y="490"/>
      <point x="323" y="523"/>
      <point x="351" y="543"/>
      <point x="361" y="543" type="qcurve"/>
      <point x="365" y="543" type="line"/>
      <point x="375" y="541"/>
      <point x="412" y="520"/>
      <point x="450" y="491"/>
      <point x="479" y="461"/>
    </contour>
  </outline>
</glyph>
<glyph name="ordfeminine" format="1">
  <advance width="344"/>
  <unicode hex="00AA"/>
  <outline>
    <contour>
      <point x="135" y="366" type="curve" smooth="yes"/>
      <point x="93" y="370"/>
      <point x="66" y="429"/>
      <point x="66" y="436" type="curve"/>
      <point x="70" y="440"/>
      <point x="91" y="522"/>
      <point x="174" y="522" type="curve" smooth="yes"/>
      <point x="180" y="522"/>
      <point x="186" y="522"/>
      <point x="193" y="521" type="curve"/>
      <point x="193" y="529" type="line"/>
      <point x="193" y="585"/>
      <point x="169" y="598"/>
      <point x="143" y="598" type="curve" smooth="yes"/>
      <point x="130" y="598"/>
      <point x="117" y="595"/>
      <point x="107" y="592" type="curve"/>
      <point x="98" y="590" type="line"/>
      <point x="94" y="597" type="line"/>
      <point x="118" y="622"/>
      <point x="148" y="648"/>
      <point x="161" y="648" type="curve" smooth="yes"/>
      <point x="185" y="645"/>
      <point x="241" y="607"/>
      <point x="248" y="577" type="curve" smooth="yes"/>
      <point x="249" y="575"/>
      <point x="249" y="572"/>
      <point x="249" y="567" type="curve" smooth="yes"/>
      <point x="249" y="553"/>
      <point x="247" y="532"/>
      <point x="247" y="518" type="curve"/>
      <point x="246" y="511"/>
      <point x="246" y="504"/>
      <point x="246" y="498" type="curve" smooth="yes"/>
      <point x="246" y="411"/>
      <point x="295" y="413"/>
      <point x="294" y="404" type="curve"/>
      <point x="294" y="404"/>
      <point x="284" y="379"/>
      <point x="252" y="359" type="curve"/>
      <point x="228" y="370"/>
      <point x="207" y="395"/>
      <point x="198" y="417" type="curve"/>
      <point x="175" y="390"/>
      <point x="148" y="366"/>
    </contour>
    <contour>
      <point x="192" y="432" type="curve"/>
      <point x="193" y="432"/>
      <point x="194" y="455"/>
      <point x="194" y="474" type="curve" smooth="yes"/>
      <point x="194" y="483"/>
      <point x="194" y="491"/>
      <point x="193" y="496" type="curve"/>
      <point x="184" y="497"/>
      <point x="176" y="498"/>
      <point x="170" y="498" type="curve" smooth="yes"/>
      <point x="132" y="498"/>
      <point x="121" y="483"/>
      <point x="121" y="483" type="curve"/>
      <point x="121" y="460"/>
      <point x="141" y="427"/>
      <point x="171" y="427" type="curve" smooth="yes"/>
      <point x="177" y="427"/>
      <point x="184" y="428"/>
    </contour>
    <contour>
      <point x="79" y="327" type="line"/>
      <point x="157" y="327" type="line" smooth="yes"/>
      <point x="193" y="327"/>
      <point x="230" y="328"/>
      <point x="266" y="329" type="curve"/>
      <point x="303" y="329" type="line"/>
      <point x="273" y="286" type="line"/>
      <point x="262" y="286" type="line"/>
      <point x="247" y="286"/>
      <point x="239" y="289"/>
      <point x="221" y="289" type="curve" smooth="yes"/>
      <point x="171" y="288"/>
      <point x="103" y="286"/>
      <point x="66" y="281" type="curve"/>
    </contour>
  </outline>
</glyph>
